<svg width="280" height="280" viewBox="0 0 280 280" fill="none" xmlns="http://www.w3.org/2000/svg">
<path d="M88.3722 71.0583C88.3722 71.0583 120.213 95.2208 168.62 50.0409C211.61 9.91692 246.712 73.2234 246.958 103.54C247.276 142.812 203.968 174.235 224.985 200.029C246.002 225.823 183.304 268.418 149.513 231.555C107.479 185.699 96.0908 222.957 72.131 222.957C54.935 222.957 19.6295 180.229 43.4709 148.441C63.5329 121.691 52.5915 112.814 47.2929 103.54C39.6499 90.1651 57.8013 53.8622 88.3722 71.0583Z" fill="#E7ECF5"/>
<path d="M197.529 156.357C196.885 160.331 195.818 164.225 194.348 167.974C184.765 192.52 159.059 207.897 132.007 203.478C117.072 201.033 103.718 192.757 94.8824 180.471C86.0464 168.184 82.4506 152.892 84.8856 137.955C85.0094 137.197 85.1537 136.433 85.3043 135.69C91.4076 105.829 120.059 85.8762 150.408 90.8335C159.464 92.2975 168.03 95.936 175.371 101.437C177.783 103.238 180.047 105.231 182.139 107.395C188.352 113.786 192.98 121.544 195.653 130.046C198.326 138.549 198.968 147.56 197.529 156.356V156.357Z" fill="#BBD0E7"/>
<path d="M194.348 167.974C183.48 174.971 170.646 181.442 156.497 186.794C142.09 192.24 127.942 195.919 114.975 197.847C84.5033 202.39 60.5727 197.313 55.1807 183.051C50.1312 169.729 62.551 151.686 85.3045 135.69C85.1539 136.434 85.0095 137.198 84.8858 137.956C84.4311 140.73 84.1843 143.534 84.1475 146.345C71.0379 156.467 64.2156 166.38 66.905 173.491C69.5198 180.404 80.6216 183.347 96.415 182.512C111.855 181.699 131.779 177.252 152.633 169.368C170.67 162.541 186.487 154.242 198.264 145.906C214.031 134.76 222.582 123.544 219.631 115.719C216.596 107.686 202.115 105.009 182.139 107.396C180.047 105.232 177.783 103.239 175.371 101.438C203.333 98.2066 224.887 103.488 229.967 116.921C235.409 131.289 220.567 151.125 194.348 167.974Z" fill="#90AFCF"/>
<path d="M209.634 13L210.841 22.6531C212.275 34.1269 221.088 43.2893 232.497 45.1686L235.268 45.625L232.497 46.0814C221.088 47.9607 212.275 57.1231 210.841 68.5969L209.634 78.25L208.427 68.5969C206.993 57.1231 198.18 47.9607 186.771 46.0814L184 45.625L186.771 45.1686C198.18 43.2893 206.993 34.1269 208.427 22.6531L209.634 13Z" fill="#92A0BB"/>
</svg>
