<svg width="254" height="255" viewBox="0 0 254 255" fill="none" xmlns="http://www.w3.org/2000/svg">
<path d="M80.2122 65.1158C80.2122 65.1158 109.068 87.0131 152.937 46.0688C191.897 9.70645 223.708 67.078 223.93 94.5522C224.219 130.143 184.971 158.62 204.018 181.996C223.065 205.372 166.245 243.973 135.621 210.566C97.5273 169.009 87.2072 202.774 65.4937 202.774C49.9098 202.774 17.9142 164.052 39.5205 135.244C57.7017 111.002 47.786 102.957 42.9842 94.5522C36.0577 82.4314 52.5074 49.5319 80.2122 65.1158Z" fill="#DEE9FF"/>
<path d="M179.135 142.418C178.552 146.02 177.585 149.55 176.252 152.946C167.568 175.191 144.272 189.127 119.756 185.122C106.221 182.906 94.1194 175.407 86.1117 164.272C78.1041 153.137 74.8455 139.278 77.0522 125.742C77.1643 125.055 77.2951 124.363 77.4317 123.689C82.9628 96.6279 108.928 78.5456 136.432 83.0381C144.639 84.3648 152.402 87.6622 159.055 92.6475C161.241 94.2798 163.292 96.0855 165.188 98.0471C170.818 103.839 175.013 110.869 177.435 118.575C179.857 126.28 180.44 134.447 179.135 142.418V142.418Z" fill="#AECAFF"/>
<path d="M176.253 152.947C166.404 159.288 154.773 165.152 141.95 170.002C128.893 174.938 116.072 178.272 104.32 180.019C76.7057 184.136 55.0186 179.535 50.1321 166.61C45.556 154.537 56.8115 138.185 77.4318 123.689C77.2953 124.363 77.1645 125.056 77.0523 125.743C76.6402 128.257 76.4166 130.798 76.3833 133.345C64.5027 142.518 58.32 151.502 60.7573 157.946C63.1269 164.212 73.188 166.878 87.5007 166.122C101.493 165.385 119.549 161.355 138.449 154.21C154.794 148.023 169.128 140.502 179.802 132.948C194.09 122.846 201.84 112.682 199.165 105.591C196.415 98.311 183.291 95.8847 165.188 98.0483C163.292 96.0866 161.241 94.2809 159.055 92.6486C184.395 89.7199 203.928 94.506 208.532 106.68C213.464 119.701 200.013 137.677 176.253 152.947Z" fill="#618ADA"/>
<path d="M192.509 12.5L193.716 22.1531C195.15 33.6269 203.963 42.7893 215.372 44.6686L218.143 45.125L215.372 45.5814C203.963 47.4607 195.15 56.6231 193.716 68.0969L192.509 77.75L191.302 68.0969C189.868 56.6231 181.055 47.4607 169.646 45.5814L166.875 45.125L169.646 44.6686C181.055 42.7893 189.868 33.6269 191.302 22.1531L192.509 12.5Z" fill="#618ADA"/>
</svg>
