<svg width="360" height="428" viewBox="0 0 360 428" fill="none" xmlns="http://www.w3.org/2000/svg">
<path d="M117.559 57.2V58.874H115.399V62.024H113.617V54.5H115.399V57.2H117.559ZM110.737 56.444C110.737 58.256 109.951 59.6 108.379 60.476C106.819 61.352 104.653 61.79 101.881 61.79V60.296C104.125 60.284 105.865 59.99 107.101 59.414C108.337 58.826 108.955 57.932 108.955 56.732V56.372H101.881V54.878H110.737V56.444ZM104.329 68.27H115.561V69.674H102.565V62.87H115.399V64.274H104.329V65.606H115.183V66.938H104.329V68.27ZM126.468 61.124C125.184 61.124 124.026 60.998 122.994 60.746C121.974 60.494 121.158 60.116 120.546 59.612C119.946 59.108 119.646 58.49 119.646 57.758C119.646 57.026 119.946 56.408 120.546 55.904C121.158 55.4 121.98 55.028 123.012 54.788C124.044 54.536 125.196 54.41 126.468 54.41C127.74 54.41 128.892 54.536 129.924 54.788C130.956 55.028 131.772 55.4 132.372 55.904C132.984 56.408 133.29 57.026 133.29 57.758C133.29 58.49 132.984 59.108 132.372 59.612C131.772 60.116 130.956 60.494 129.924 60.746C128.904 60.998 127.752 61.124 126.468 61.124ZM126.468 59.684C127.872 59.684 129.042 59.516 129.978 59.18C130.926 58.832 131.4 58.358 131.4 57.758C131.4 57.158 130.926 56.69 129.978 56.354C129.042 56.018 127.872 55.85 126.468 55.85C125.064 55.85 123.888 56.018 122.94 56.354C122.004 56.69 121.536 57.158 121.536 57.758C121.536 58.358 122.004 58.832 122.94 59.18C123.888 59.516 125.064 59.684 126.468 59.684ZM118.8 62.492H134.154V64.004H118.8V62.492ZM119.862 65.318H121.68V68.162H133.362V69.692H119.862V65.318ZM155.505 54.5V69.872H153.723V54.5H155.505ZM148.035 54.95C148.011 57.35 147.807 59.456 147.423 61.268L152.391 67.892L150.951 68.918L146.865 63.338C146.289 65.054 145.539 66.398 144.615 67.37C143.691 68.342 142.629 68.87 141.429 68.954V67.154C142.425 66.998 143.283 66.362 144.003 65.246C144.723 64.118 145.269 62.654 145.641 60.854C146.013 59.054 146.205 57.062 146.217 54.878L148.035 54.95ZM174.547 58.154V59.864H172.387V65.912H170.605V54.5H172.387V58.154H174.547ZM167.725 56.966C167.725 58.394 167.359 59.6 166.627 60.584C165.895 61.556 164.863 62.288 163.531 62.78C162.211 63.26 160.657 63.5 158.869 63.5V61.898C161.053 61.886 162.775 61.472 164.035 60.656C165.295 59.84 165.925 58.682 165.925 57.182V56.444H158.869V54.878H167.725V56.966ZM161.335 68.054H172.801V69.674H159.535V64.832H161.335V68.054ZM177.264 71.312H175.788L176.364 67.244H178.164L177.264 71.312ZM201.266 57.2V58.874H199.106V62.024H197.324V54.5H199.106V57.2H201.266ZM194.444 56.444C194.444 58.256 193.658 59.6 192.086 60.476C190.526 61.352 188.36 61.79 185.588 61.79V60.296C187.832 60.284 189.572 59.99 190.808 59.414C192.044 58.826 192.662 57.932 192.662 56.732V56.372H185.588V54.878H194.444V56.444ZM188.036 68.27H199.268V69.674H186.272V62.87H199.106V64.274H188.036V65.606H198.89V66.938H188.036V68.27ZM210.175 61.124C208.891 61.124 207.733 60.998 206.701 60.746C205.681 60.494 204.865 60.116 204.253 59.612C203.653 59.108 203.353 58.49 203.353 57.758C203.353 57.026 203.653 56.408 204.253 55.904C204.865 55.4 205.687 55.028 206.719 54.788C207.751 54.536 208.903 54.41 210.175 54.41C211.447 54.41 212.599 54.536 213.631 54.788C214.663 55.028 215.479 55.4 216.079 55.904C216.691 56.408 216.997 57.026 216.997 57.758C216.997 58.49 216.691 59.108 216.079 59.612C215.479 60.116 214.663 60.494 213.631 60.746C212.611 60.998 211.459 61.124 210.175 61.124ZM210.175 59.684C211.579 59.684 212.749 59.516 213.685 59.18C214.633 58.832 215.107 58.358 215.107 57.758C215.107 57.158 214.633 56.69 213.685 56.354C212.749 56.018 211.579 55.85 210.175 55.85C208.771 55.85 207.595 56.018 206.647 56.354C205.711 56.69 205.243 57.158 205.243 57.758C205.243 58.358 205.711 58.832 206.647 59.18C207.595 59.516 208.771 59.684 210.175 59.684ZM202.507 62.492H217.861V64.004H202.507V62.492ZM203.569 65.318H205.387V68.162H217.069V69.692H203.569V65.318ZM237.304 56.192H225.892V54.68H239.086V59.9H237.304V56.192ZM240.22 60.98V62.456H224.866V60.98H230.626V57.974H232.426V60.98H240.22ZM232.534 63.896C234.526 63.896 236.146 64.142 237.394 64.634C238.654 65.126 239.284 65.876 239.284 66.884C239.284 67.904 238.654 68.66 237.394 69.152C236.146 69.644 234.526 69.89 232.534 69.89C230.542 69.89 228.916 69.644 227.656 69.152C226.408 68.66 225.784 67.904 225.784 66.884C225.784 65.84 226.402 65.084 227.638 64.616C228.886 64.136 230.518 63.896 232.534 63.896ZM232.534 68.468C233.89 68.468 235.042 68.33 235.99 68.054C236.938 67.79 237.412 67.4 237.412 66.884C237.412 66.38 236.938 65.996 235.99 65.732C235.042 65.456 233.89 65.318 232.534 65.318C231.154 65.318 229.996 65.45 229.06 65.714C228.124 65.966 227.656 66.356 227.656 66.884C227.656 67.4 228.13 67.79 229.078 68.054C230.026 68.33 231.178 68.468 232.534 68.468ZM258.254 58.154V59.864H256.094V65.912H254.312V54.5H256.094V58.154H258.254ZM251.432 56.966C251.432 58.394 251.066 59.6 250.334 60.584C249.602 61.556 248.57 62.288 247.238 62.78C245.918 63.26 244.364 63.5 242.576 63.5V61.898C244.76 61.886 246.482 61.472 247.742 60.656C249.002 59.84 249.632 58.682 249.632 57.182V56.444H242.576V54.878H251.432V56.966ZM245.042 68.054H256.508V69.674H243.242V64.832H245.042V68.054ZM124.784 80.36H122.624V83.852H120.842V75.5H122.624V78.65H124.784V80.36ZM117.962 77.552C117.962 79.568 117.182 81.05 115.622 81.998C114.074 82.946 111.902 83.42 109.106 83.42V81.872C111.338 81.86 113.072 81.524 114.308 80.864C115.544 80.204 116.162 79.202 116.162 77.858V77.39H109.106V75.878H117.962V77.552ZM109.772 84.698H122.624V90.674H109.772V84.698ZM111.554 89.162H120.842V86.21H111.554V89.162ZM138.714 78.398V75.5H140.496V84.14H138.714V79.946H135.726V78.398H138.714ZM131.442 80.648C130.902 81.5 130.194 82.196 129.318 82.736C128.442 83.264 127.446 83.582 126.33 83.69V82.088C127.59 81.92 128.598 81.422 129.354 80.594C130.122 79.754 130.56 78.698 130.668 77.426H126.528V75.896H136.338V77.426H132.45C132.414 78.002 132.3 78.602 132.108 79.226L136.842 82.214L135.96 83.546L131.442 80.648ZM133.98 84.644C135.984 84.644 137.592 84.896 138.804 85.4C140.016 85.904 140.622 86.69 140.622 87.758C140.622 88.826 140.016 89.612 138.804 90.116C137.592 90.62 135.984 90.872 133.98 90.872C131.976 90.872 130.368 90.62 129.156 90.116C127.944 89.612 127.338 88.826 127.338 87.758C127.338 86.69 127.944 85.904 129.156 85.4C130.368 84.896 131.976 84.644 133.98 84.644ZM133.98 89.414C135.384 89.414 136.524 89.276 137.4 89C138.288 88.712 138.732 88.298 138.732 87.758C138.732 87.218 138.288 86.81 137.4 86.534C136.524 86.246 135.384 86.102 133.98 86.102C132.576 86.102 131.43 86.246 130.542 86.534C129.666 86.81 129.228 87.218 129.228 87.758C129.228 88.298 129.666 88.712 130.542 89C131.43 89.276 132.576 89.414 133.98 89.414ZM151.007 81.044C148.991 81.044 147.359 80.822 146.111 80.378C144.875 79.922 144.257 79.208 144.257 78.236C144.257 77.276 144.875 76.574 146.111 76.13C147.359 75.674 148.991 75.446 151.007 75.446C153.023 75.446 154.649 75.674 155.885 76.13C157.133 76.574 157.757 77.276 157.757 78.236C157.757 79.208 157.133 79.922 155.885 80.378C154.649 80.822 153.023 81.044 151.007 81.044ZM151.007 79.676C152.459 79.676 153.641 79.556 154.553 79.316C155.465 79.076 155.921 78.716 155.921 78.236C155.921 77.756 155.459 77.396 154.535 77.156C153.623 76.916 152.447 76.796 151.007 76.796C149.567 76.796 148.385 76.916 147.461 77.156C146.549 77.396 146.093 77.756 146.093 78.236C146.093 78.716 146.549 79.076 147.461 79.316C148.373 79.556 149.555 79.676 151.007 79.676ZM143.339 81.998H158.693V83.384H143.339V81.998ZM144.401 87.02H155.885V85.94H144.365V84.608H157.631V88.28H146.147V89.36H157.901V90.692H144.401V87.02ZM178.136 77.192H166.724V75.68H179.918V80.9H178.136V77.192ZM181.052 81.98V83.456H165.698V81.98H171.458V78.974H173.258V81.98H181.052ZM173.366 84.896C175.358 84.896 176.978 85.142 178.226 85.634C179.486 86.126 180.116 86.876 180.116 87.884C180.116 88.904 179.486 89.66 178.226 90.152C176.978 90.644 175.358 90.89 173.366 90.89C171.374 90.89 169.748 90.644 168.488 90.152C167.24 89.66 166.616 88.904 166.616 87.884C166.616 86.84 167.234 86.084 168.47 85.616C169.718 85.136 171.35 84.896 173.366 84.896ZM173.366 89.468C174.722 89.468 175.874 89.33 176.822 89.054C177.77 88.79 178.244 88.4 178.244 87.884C178.244 87.38 177.77 86.996 176.822 86.732C175.874 86.456 174.722 86.318 173.366 86.318C171.986 86.318 170.828 86.45 169.892 86.714C168.956 86.966 168.488 87.356 168.488 87.884C168.488 88.4 168.962 88.79 169.91 89.054C170.858 89.33 172.01 89.468 173.366 89.468ZM190.68 83.744C189.3 83.744 188.094 83.588 187.062 83.276C186.042 82.952 185.25 82.484 184.686 81.872C184.122 81.26 183.84 80.534 183.84 79.694C183.84 78.854 184.122 78.128 184.686 77.516C185.25 76.904 186.042 76.442 187.062 76.13C188.094 75.806 189.3 75.644 190.68 75.644C192.06 75.644 193.26 75.806 194.28 76.13C195.312 76.442 196.11 76.904 196.674 77.516C197.238 78.128 197.52 78.854 197.52 79.694C197.52 80.534 197.238 81.26 196.674 81.872C196.11 82.484 195.312 82.952 194.28 83.276C193.26 83.588 192.06 83.744 190.68 83.744ZM190.68 77.228C189.18 77.228 187.974 77.444 187.062 77.876C186.15 78.308 185.694 78.914 185.694 79.694C185.694 80.474 186.15 81.08 187.062 81.512C187.974 81.932 189.18 82.142 190.68 82.142C192.18 82.142 193.386 81.932 194.298 81.512C195.21 81.08 195.666 80.474 195.666 79.694C195.666 78.914 195.21 78.308 194.298 77.876C193.386 77.444 192.18 77.228 190.68 77.228ZM198.366 86.876H194.568V91.232H192.804V86.876H188.556V91.232H186.792V86.876H183.012V85.202H198.366V86.876ZM210.713 78.146H200.273V76.778H204.593V75.23H206.393V76.778H210.713V78.146ZM216.401 80.378H214.241V84.14H212.459V75.5H214.241V78.722H216.401V80.378ZM205.493 84.338C204.641 84.338 203.867 84.23 203.171 84.014C202.487 83.798 201.947 83.486 201.551 83.078C201.167 82.67 200.975 82.19 200.975 81.638C200.975 81.098 201.173 80.624 201.569 80.216C201.965 79.808 202.505 79.496 203.189 79.28C203.873 79.052 204.641 78.938 205.493 78.938C206.345 78.938 207.113 79.052 207.797 79.28C208.481 79.496 209.015 79.808 209.399 80.216C209.795 80.624 209.993 81.098 209.993 81.638C209.993 82.19 209.795 82.67 209.399 83.078C209.015 83.486 208.481 83.798 207.797 84.014C207.113 84.23 206.345 84.338 205.493 84.338ZM205.493 80.234C204.641 80.234 203.957 80.366 203.441 80.63C202.937 80.894 202.685 81.23 202.685 81.638C202.685 82.046 202.937 82.382 203.441 82.646C203.957 82.91 204.641 83.042 205.493 83.042C206.333 83.042 207.011 82.91 207.527 82.646C208.043 82.382 208.301 82.046 208.301 81.638C208.301 81.23 208.043 80.894 207.527 80.63C207.011 80.366 206.333 80.234 205.493 80.234ZM212.513 84.968H214.241V90.674H201.389V84.968H203.117V86.354H212.513V84.968ZM212.513 89.27V87.722H203.117V89.27H212.513ZM230.205 75.5H231.987V90.872L230.205 90.89V75.5ZM218.523 75.968H220.341V88.316H224.805C225.525 88.316 226.251 88.25 226.983 88.118C227.715 87.974 228.315 87.788 228.783 87.56V89.198C228.315 89.426 227.721 89.606 227.001 89.738C226.281 89.882 225.549 89.954 224.805 89.954H218.523V75.968ZM251.03 83.438H248.87V90.872H247.088V75.5H248.87V81.728H251.03V83.438ZM241.778 88.334C242.51 88.334 243.236 88.268 243.956 88.136C244.688 88.004 245.288 87.824 245.756 87.596V89.216C245.3 89.444 244.694 89.624 243.938 89.756C243.194 89.888 242.444 89.954 241.688 89.954H235.676V76.058H244.55V77.678H237.494V88.334H241.778Z" fill="url(#paint0_linear_391_1285)"/>
<g filter="url(#filter0_d_391_1285)">
<path d="M78.5513 172.495L78.8537 172.433L78.9332 172.134C84.8526 149.89 105.153 133.5 129.284 133.5C156.565 133.5 178.948 154.447 181.194 181.118L181.228 181.517L181.625 181.571C197.692 183.774 210.068 197.543 210.068 214.197C210.068 232.386 195.308 247.132 177.098 247.132H131.675H86.2514C65.4014 247.132 48.5 230.247 48.5 209.421C48.5 191.231 61.394 176.047 78.5513 172.495Z" fill="url(#paint1_linear_391_1285)" stroke="white"/>
<path d="M134.814 194.071L135.116 194.008L135.196 193.71C143.158 163.844 170.465 141.837 202.926 141.837C239.624 141.837 269.732 169.963 272.754 205.771L272.788 206.17L273.184 206.224C294.829 209.187 311.5 227.7 311.5 250.092C311.5 274.547 291.617 294.374 267.087 294.374H206.134H145.181C117.108 294.374 94.3525 271.683 94.3525 243.695C94.3525 219.249 111.713 198.844 134.814 194.071Z" fill="url(#paint2_linear_391_1285)" stroke="white"/>
</g>
<g filter="url(#filter1_d_391_1285)">
<path d="M132.405 185.112H166.442C168.486 185.521 169.509 186.543 169.509 188.178V188.485C169.509 190.734 167.567 191.858 163.682 191.858L161.536 191.551C160.923 191.551 160.616 191.654 160.616 191.858C158.214 191.654 156.476 191.551 155.403 191.551H146.204C143.853 191.551 140.276 191.654 135.472 191.858C135.676 192.267 135.778 192.573 135.778 192.778C135.778 193.698 135.881 196.049 136.085 199.831L136.698 200.137H139.458C141.451 200.137 142.473 200.239 142.524 200.444C144.262 200.239 145.693 200.137 146.817 200.137H166.442C168.895 200.342 170.122 201.364 170.122 203.204V203.51C170.122 205.759 167.669 206.883 162.763 206.883H135.778C131.69 206.883 129.646 204.941 129.646 201.057C129.032 193.647 128.726 189.558 128.726 188.792C129.595 186.338 130.821 185.112 132.405 185.112ZM149.347 204.2H150.88C152.311 205.018 153.027 206.244 153.027 207.88V213.093H155.48C158.546 213.093 163.555 213.297 170.505 213.706L173.572 213.399C175.411 214.012 176.331 215.035 176.331 216.466V217.079C175.871 219.123 174.849 220.145 173.265 220.145C171.272 220.145 160.642 219.941 141.375 219.532C133.198 219.736 128.496 219.839 127.269 219.839C124.203 219.481 122.67 218.357 122.67 216.466V216.159C123.079 214.115 124.101 213.093 125.736 213.093C129.467 213.093 136.417 212.99 146.587 212.786L146.281 212.173V209.72C146.281 206.04 147.303 204.2 149.347 204.2ZM150.037 224.285C159.236 224.285 165.573 227.326 169.049 233.407C169.866 235.503 170.275 237.572 170.275 239.617C170.275 247.027 164.756 251.831 153.717 254.029H150.957C139.305 254.029 132.048 250.962 129.186 244.83C128.572 243.194 128.266 241.687 128.266 240.307V239.31C128.266 232.922 131.741 228.45 138.692 225.895C141.298 224.821 145.08 224.285 150.037 224.285ZM134.705 240.307C136.034 244.651 140.634 246.823 148.504 246.823H153.103C157.907 246.823 161.383 244.651 163.529 240.307V239.003C163.529 234.659 159.236 232.155 150.65 231.491H149.73C139.714 231.491 134.705 234.429 134.705 240.307ZM189.808 191.781C190.524 191.781 191.444 191.884 192.568 192.088C196.503 191.884 199.059 191.781 200.234 191.781C201.154 191.781 203.403 191.884 206.98 192.088C208.104 191.884 209.024 191.781 209.74 191.781C211.784 192.599 212.806 193.723 212.806 195.154V195.768C212.806 201.594 207.9 208.749 198.088 217.232C191.955 220.707 188.377 222.445 187.355 222.445C185.618 222.445 184.493 221.218 183.982 218.765C183.982 217.283 186.538 215.443 191.648 213.246C197.883 209.515 202.38 204.609 205.14 198.527H187.968C185.924 198.118 184.902 197.096 184.902 195.461V195.154C184.902 193.161 186.538 192.037 189.808 191.781ZM223.922 186.338C225.199 186.338 226.221 187.258 226.988 189.098C227.192 194.107 227.295 198.093 227.295 201.057V201.364H234.041C236.034 201.364 237.158 202.59 237.414 205.043C236.698 206.883 235.676 207.803 234.347 207.803H226.988V208.11C226.988 209.336 227.09 209.95 227.295 209.95L226.988 213.016V219.455C226.988 219.915 227.09 220.324 227.295 220.682C226.733 223.135 225.506 224.362 223.615 224.362C221.571 223.799 220.549 222.675 220.549 220.988V197.377C220.549 195.333 220.446 192.88 220.242 190.018C220.804 187.565 222.031 186.338 223.922 186.338ZM192.491 225.741H196.478C203.173 225.741 212.474 225.844 224.382 226.048C226.835 226.048 228.061 230.903 228.061 240.613C228.266 240.613 228.368 241.738 228.368 243.986C228.368 248.892 227.039 251.346 224.382 251.346H218.249C213.24 251.346 208.948 251.448 205.37 251.652C203.275 251.448 199.595 251.346 194.331 251.346C190.447 251.346 188.505 250.119 188.505 247.666V244.906C188.505 243.833 188.403 242.913 188.198 242.146C188.403 241.073 188.505 238.773 188.505 235.247V229.728C189.169 227.07 190.498 225.741 192.491 225.741ZM195.251 232.487C195.047 238.416 194.944 242.249 194.944 243.986L195.251 244.6C196.682 244.6 199.442 244.702 203.53 244.906C212.781 244.702 218.811 244.6 221.622 244.6V244.293C221.622 241.687 221.417 237.854 221.009 232.794C219.067 232.794 212.627 232.59 201.69 232.181C198.624 232.385 196.478 232.487 195.251 232.487Z" fill="white"/>
</g>
<defs>
<filter id="filter0_d_391_1285" x="-84.766" y="0.234039" width="529.532" height="427.406" filterUnits="userSpaceOnUse" color-interpolation-filters="sRGB">
<feFlood flood-opacity="0" result="BackgroundImageFix"/>
<feColorMatrix in="SourceAlpha" type="matrix" values="0 0 0 0 0 0 0 0 0 0 0 0 0 0 0 0 0 0 127 0" result="hardAlpha"/>
<feOffset/>
<feGaussianBlur stdDeviation="66.383"/>
<feComposite in2="hardAlpha" operator="out"/>
<feColorMatrix type="matrix" values="0 0 0 0 0.767552 0 0 0 0 0.888425 0 0 0 0 1 0 0 0 1 0"/>
<feBlend mode="normal" in2="BackgroundImageFix" result="effect1_dropShadow_391_1285"/>
<feBlend mode="normal" in="SourceGraphic" in2="effect1_dropShadow_391_1285" result="shape"/>
</filter>
<filter id="filter1_d_391_1285" x="113.194" y="175.637" width="133.695" height="87.8673" filterUnits="userSpaceOnUse" color-interpolation-filters="sRGB">
<feFlood flood-opacity="0" result="BackgroundImageFix"/>
<feColorMatrix in="SourceAlpha" type="matrix" values="0 0 0 0 0 0 0 0 0 0 0 0 0 0 0 0 0 0 127 0" result="hardAlpha"/>
<feOffset/>
<feGaussianBlur stdDeviation="4.73783"/>
<feComposite in2="hardAlpha" operator="out"/>
<feColorMatrix type="matrix" values="0 0 0 0 0.197896 0 0 0 0 0.440738 0 0 0 0 0.805 0 0 0 0.8 0"/>
<feBlend mode="normal" in2="BackgroundImageFix" result="effect1_dropShadow_391_1285"/>
<feBlend mode="normal" in="SourceGraphic" in2="effect1_dropShadow_391_1285" result="shape"/>
</filter>
<linearGradient id="paint0_linear_391_1285" x1="179.5" y1="52" x2="179.5" y2="94" gradientUnits="userSpaceOnUse">
<stop stop-color="#86C1F7"/>
<stop offset="0.420833" stop-color="#8699F7"/>
<stop offset="0.582291" stop-color="#86C1F7"/>
<stop offset="1" stop-color="#8699F7"/>
</linearGradient>
<linearGradient id="paint1_linear_391_1285" x1="129.284" y1="133" x2="129.284" y2="247.632" gradientUnits="userSpaceOnUse">
<stop stop-color="#DCEEFF"/>
<stop offset="0.463542" stop-color="#BBDEFF"/>
<stop offset="1" stop-color="#82C1FF"/>
</linearGradient>
<linearGradient id="paint2_linear_391_1285" x1="202.926" y1="141.337" x2="202.926" y2="294.874" gradientUnits="userSpaceOnUse">
<stop stop-color="#D7EAFF"/>
<stop offset="0.520833" stop-color="#98C3FF"/>
<stop offset="1" stop-color="#A3AAFF"/>
</linearGradient>
</defs>
</svg>
