<svg width="254" height="255" viewBox="0 0 254 255" fill="none" xmlns="http://www.w3.org/2000/svg">
<path d="M138.212 49.4162C138.212 49.4162 121.221 87.5526 76.2864 78.8162C31.3522 70.0798 4.27948 131.544 46.7609 153.955C89.2423 176.366 59.8016 202.111 88.1338 215.261C120.335 230.207 132.343 180.23 156.067 184.872C208.425 195.116 240.812 177.546 226.491 153.902C201.353 112.398 183.1 113.926 190.517 87.1241C197.935 60.3219 156.045 19.1759 138.212 49.4162Z" fill="#DEE9FF"/>
<path d="M130.01 136.457C126.062 144.024 125.066 148.045 113.09 155.553C112.997 155.614 112.927 155.704 112.892 155.809C110.978 161.741 107.74 167.159 103.421 171.653C103.363 171.713 103.322 171.788 103.302 171.869C103.283 171.95 103.286 172.035 103.311 172.115C104.651 176.576 106.102 184.618 102.066 191.211C96.1324 200.917 91.738 195.056 92.6531 192.859C93.4368 190.976 100.132 186.933 98.5863 176.832C98.5733 176.751 98.5397 176.675 98.4888 176.611C98.4378 176.547 98.3713 176.497 98.2955 176.466C98.2197 176.435 98.1372 176.424 98.056 176.435C97.9748 176.445 97.8976 176.476 97.8318 176.524C92.979 180.046 87.4092 182.455 81.5192 183.579C81.4538 183.589 81.3914 183.614 81.3362 183.651C81.281 183.687 81.2341 183.735 81.1988 183.791C81.1635 183.847 81.1405 183.91 81.1313 183.976C81.1221 184.042 81.127 184.108 81.1455 184.172C82.6472 189.548 83.3577 197.951 77.0876 205.678C73.7401 209.707 69.3011 203.817 73.7401 199.804C76.4942 197.321 76.2818 190.179 74.9926 184.678C74.968 184.571 74.907 184.476 74.8202 184.409C74.7333 184.342 74.626 184.308 74.5164 184.312C74.2602 184.319 73.9963 184.319 73.7401 184.319C64.6799 184.332 55.8714 181.338 48.6961 175.806C48.6305 175.755 48.5526 175.722 48.4702 175.71C48.3878 175.698 48.3036 175.707 48.226 175.738C48.1484 175.768 48.0801 175.818 48.0276 175.883C47.9752 175.947 47.9405 176.025 47.927 176.107C46.2056 187.475 53.0401 191.409 54.014 194.324C55.0981 197.584 52.6075 200.484 49.5384 199.664C49.4719 199.644 49.4098 199.612 49.3554 199.569C39.3495 192.053 40.2211 176.305 41.3199 168.723C41.3299 168.661 41.3266 168.598 41.3102 168.537C41.2937 168.477 41.2646 168.42 41.2246 168.372C35.6291 161.171 32.5998 152.308 32.6178 143.189C32.6178 126.466 42.6017 112.072 56.9366 105.648C56.9376 105.648 56.9386 105.648 56.9395 105.648C56.9404 105.647 56.9412 105.647 56.9419 105.646C56.9426 105.645 56.9431 105.645 56.9435 105.644C56.9438 105.643 56.944 105.642 56.944 105.641C59.1487 102.85 61.8371 98.902 62.2474 96.1332C62.2609 96.0394 62.3021 95.9517 62.3657 95.8814C62.4293 95.8112 62.5124 95.7614 62.6043 95.7386C62.6963 95.7158 62.793 95.7209 62.8821 95.7534C62.9711 95.7858 63.0485 95.844 63.1043 95.9207C64.1591 97.3417 65.7927 100.052 65.4337 102.909C65.419 103.004 65.4118 103.099 65.3971 103.194C65.3677 103.356 65.3312 103.509 65.2945 103.67C65.2579 103.795 65.2286 103.919 65.1847 104.044C65.6969 103.617 66.1857 103.162 66.6489 102.682C67.7256 101.576 69.0881 99.9128 69.6741 98.1328C69.7019 98.0379 69.7583 97.9539 69.8358 97.8923C69.9132 97.8308 70.0078 97.7947 70.1066 97.7892C70.2054 97.7836 70.3034 97.8088 70.3873 97.8612C70.4712 97.9137 70.5367 97.9909 70.5749 98.0821C70.9556 99.0197 71.4027 100.331 71.5565 101.671C71.5697 101.791 71.6274 101.902 71.7182 101.982C71.8089 102.062 71.9263 102.105 72.0472 102.103C72.6113 102.081 73.1752 102.067 73.7393 102.067C96.4539 102.067 114.869 120.482 114.869 143.189C114.869 143.709 114.862 144.222 114.839 144.735C114.836 144.813 114.852 144.891 114.886 144.961C114.919 145.032 114.97 145.094 115.033 145.141C115.095 145.187 115.169 145.218 115.246 145.231C115.323 145.243 115.403 145.236 115.477 145.211C117.923 144.354 121.007 142.288 122.868 137.373C126.347 128.217 126.713 125.653 125.615 118.511C124.516 111.369 129.827 111.736 130.925 114.116C132.023 116.496 134.405 128.033 130.01 136.457Z" fill="#AECAFF"/>
<path d="M70.2202 130.889C70.2202 130.889 70.3595 132.124 70.2202 132.912" stroke="#618ADA" stroke-width="2.71875" stroke-linecap="round"/>
<path d="M80.7812 127.594C80.7812 127.594 80.9206 128.829 80.7812 129.617" stroke="#618ADA" stroke-width="2.71875" stroke-linecap="round"/>
<path d="M65.7832 144.558C68.2083 144.8 70.5828 145.829 73.0543 145.829C75.1355 145.829 77.1597 145.505 79.2161 145.203C80.7063 144.985 82.854 144.374 84.0467 143.358C85.9074 141.773 88.1717 140.722 89.7446 138.789C90.7876 137.508 91.8767 135.848 92.286 134.211" stroke="#618ADA" stroke-width="2.71875" stroke-linecap="round"/>
<path fill-rule="evenodd" clip-rule="evenodd" d="M170.39 116.554C176.321 108.992 183.792 98.0039 183.792 90.6417C183.792 78.4337 174.595 68.5371 163.25 68.5371C151.905 68.5371 142.708 78.4337 142.708 90.6417C142.708 98.0039 150.179 108.992 156.11 116.554C159.204 120.5 160.751 122.473 163.25 122.473C165.749 122.473 167.296 120.5 170.39 116.554ZM163.25 99.3496C158.996 99.3496 155.547 95.9008 155.547 91.6465C155.547 87.3922 158.996 83.9434 163.25 83.9434C167.504 83.9434 170.953 87.3922 170.953 91.6465C170.953 95.9008 167.504 99.3496 163.25 99.3496Z" fill="#618ADA"/>
</svg>
