<svg width="154" height="89" viewBox="0 0 154 89" fill="none" xmlns="http://www.w3.org/2000/svg">
<g filter="url(#filter0_b_454_1480)">
<g filter="url(#filter1_i_454_1480)">
<path d="M136.22 45.3628C136.613 43.1885 136.818 40.9518 136.818 38.669C136.818 17.3127 118.869 0 96.7273 0C80.2669 0 66.1234 9.56815 59.9491 23.2527C54.9472 19.0873 48.4566 16.5724 41.3636 16.5724C25.5482 16.5724 12.7273 29.076 12.7273 44.5C12.7273 45.3589 12.767 46.2087 12.8448 47.0478C5.23792 50.6416 0 58.1826 0 66.9035C0 79.107 10.2568 89 22.9091 89H131.091C143.743 89 154 79.107 154 66.9035C154 56.4005 146.403 47.6091 136.22 45.3628Z" fill="url(#paint0_linear_454_1480)"/>
</g>
</g>
<defs>
<filter id="filter0_b_454_1480" x="-27" y="-27" width="208" height="143" filterUnits="userSpaceOnUse" color-interpolation-filters="sRGB">
<feFlood flood-opacity="0" result="BackgroundImageFix"/>
<feGaussianBlur in="BackgroundImageFix" stdDeviation="13.5"/>
<feComposite in2="SourceAlpha" operator="in" result="effect1_backgroundBlur_454_1480"/>
<feBlend mode="normal" in="SourceGraphic" in2="effect1_backgroundBlur_454_1480" result="shape"/>
</filter>
<filter id="filter1_i_454_1480" x="0" y="0" width="154" height="99" filterUnits="userSpaceOnUse" color-interpolation-filters="sRGB">
<feFlood flood-opacity="0" result="BackgroundImageFix"/>
<feBlend mode="normal" in="SourceGraphic" in2="BackgroundImageFix" result="shape"/>
<feColorMatrix in="SourceAlpha" type="matrix" values="0 0 0 0 0 0 0 0 0 0 0 0 0 0 0 0 0 0 127 0" result="hardAlpha"/>
<feOffset dy="11"/>
<feGaussianBlur stdDeviation="5"/>
<feComposite in2="hardAlpha" operator="arithmetic" k2="-1" k3="1"/>
<feColorMatrix type="matrix" values="0 0 0 0 1 0 0 0 0 1 0 0 0 0 1 0 0 0 1 0"/>
<feBlend mode="normal" in2="shape" result="effect1_innerShadow_454_1480"/>
</filter>
<linearGradient id="paint0_linear_454_1480" x1="9.79505" y1="81.0536" x2="162.143" y2="-35.9723" gradientUnits="userSpaceOnUse">
<stop stop-color="#D4EAFF"/>
<stop offset="1" stop-color="white"/>
</linearGradient>
</defs>
</svg>
