<svg width="614" height="495" viewBox="0 0 614 495" fill="none" xmlns="http://www.w3.org/2000/svg">
<g filter="url(#filter0_d_1228_2065)">
<path d="M189.347 199.695L189.697 199.623L189.789 199.278C196.638 173.542 220.124 154.578 248.044 154.578C279.608 154.578 305.504 178.814 308.103 209.671L308.142 210.133L308.601 210.196C327.191 212.745 341.51 228.675 341.51 247.944C341.51 268.988 324.432 286.048 303.364 286.048H250.81H198.256C174.133 286.048 154.578 266.513 154.578 242.418C154.578 221.372 169.497 203.804 189.347 199.695Z" fill="url(#paint0_linear_1228_2065)" stroke="white" stroke-width="1.15698"/>
<path d="M254.442 224.657L254.792 224.584L254.884 224.239C264.096 189.685 295.689 164.223 333.246 164.223C375.705 164.223 410.54 196.764 414.036 238.194L414.075 238.655L414.534 238.718C439.576 242.146 458.864 263.565 458.864 289.472C458.864 317.766 435.86 340.705 407.479 340.705H336.958H266.437C233.956 340.705 207.629 314.452 207.629 282.071C207.629 253.788 227.714 230.179 254.442 224.657Z" fill="url(#paint1_linear_1228_2065)" stroke="white" stroke-width="1.15698"/>
</g>
<path d="M168.543 387.22V393.124H164.943V399.28H158.859V382H164.943V387.22H168.543ZM155.511 398.344H136.755V382.36H142.659V385.492H149.607V382.36H155.511V398.344ZM149.607 393.448V390.244H142.659V393.448H149.607ZM143.919 407.812H165.267V412.744H137.799V400.36H164.943V405.292H143.919V407.812ZM186.252 381.496C190.5 381.496 193.908 382.096 196.476 383.296C199.068 384.496 200.364 386.248 200.364 388.552C200.364 390.856 199.068 392.608 196.476 393.808C193.908 395.008 190.5 395.608 186.252 395.608C182.004 395.608 178.584 395.008 175.992 393.808C173.424 392.608 172.14 390.856 172.14 388.552C172.14 386.248 173.424 384.496 175.992 383.296C178.584 382.096 182.004 381.496 186.252 381.496ZM186.252 386.212C183.924 386.212 182.064 386.428 180.672 386.86C179.304 387.268 178.62 387.832 178.62 388.552C178.62 389.296 179.304 389.872 180.672 390.28C182.04 390.688 183.9 390.892 186.252 390.892C188.604 390.892 190.464 390.688 191.832 390.28C193.2 389.872 193.884 389.296 193.884 388.552C193.884 387.832 193.188 387.268 191.796 386.86C190.428 386.428 188.58 386.212 186.252 386.212ZM201.804 402.052H170.7V397.048H201.804V402.052ZM178.692 407.668H200.364V412.744H172.5V403.636H178.692V407.668ZM246.522 396.436V401.296H215.418V396.436H227.946V394.168L224.166 391.864C223.134 392.776 221.934 393.508 220.566 394.06C219.198 394.612 217.71 394.924 216.102 394.996V390.136C217.278 390.04 218.298 389.692 219.162 389.092C220.05 388.492 220.77 387.712 221.322 386.752H216.714V382H230.43V386.752H227.514C227.37 387.184 227.19 387.628 226.974 388.084L230.322 389.956C231.258 389.74 232.074 389.356 232.77 388.804C233.49 388.228 234.078 387.544 234.534 386.752H231.654V382H245.226V386.752H240.726L240.258 387.904L246.414 390.856L244.002 395.14L237.486 391.756C236.502 392.668 235.338 393.412 233.994 393.988V396.436H246.522ZM217.074 402.88H244.722V413.104H238.566V407.704H217.074V402.88ZM279.783 382V412.744H273.699V382H279.783ZM264.519 388.3C264.447 391.06 264.195 393.616 263.763 395.968L272.691 407.56L267.867 411.16L261.675 402.736C260.427 405.472 258.843 407.572 256.923 409.036C255.027 410.524 252.915 411.28 250.587 411.304V405.184C252.075 405.016 253.395 404.224 254.547 402.808C255.699 401.368 256.611 399.4 257.283 396.904C257.955 394.408 258.327 391.54 258.399 388.3H251.451V382.72H271.107V388.3H264.519ZM317.148 399.136H313.548V412.744H307.464V382H313.548V393.232H317.148V399.136ZM285.54 382.72H302.928V391.036C302.928 395.164 302.22 398.752 300.804 401.8C299.388 404.848 297.372 407.2 294.756 408.856C292.14 410.488 289.068 411.304 285.54 411.304V405.544C289.188 405.52 291.96 404.236 293.856 401.692C295.776 399.148 296.736 395.596 296.736 391.036V388.264H285.54V382.72ZM348.511 392.728C347.887 394.336 346.747 395.596 345.091 396.508C343.459 397.42 341.479 397.876 339.151 397.876C337.207 397.876 335.479 397.552 333.967 396.904C332.479 396.232 331.327 395.308 330.511 394.132C329.695 392.932 329.287 391.54 329.287 389.956C329.287 388.396 329.695 387.016 330.511 385.816C331.327 384.616 332.479 383.692 333.967 383.044C335.479 382.372 337.207 382.036 339.151 382.036C341.431 382.036 343.387 382.48 345.019 383.368C346.651 384.256 347.791 385.48 348.439 387.04H353.191V382H359.275V397.912H353.191V392.728H348.511ZM335.335 389.956C335.335 390.868 335.671 391.6 336.343 392.152C337.039 392.704 337.975 392.98 339.151 392.98C340.327 392.98 341.251 392.704 341.923 392.152C342.619 391.6 342.967 390.868 342.967 389.956C342.967 389.044 342.619 388.312 341.923 387.76C341.251 387.208 340.327 386.932 339.151 386.932C337.975 386.932 337.039 387.208 336.343 387.76C335.671 388.312 335.335 389.044 335.335 389.956ZM358.663 412.816L354.163 408.748C353.203 409.972 352.075 410.932 350.779 411.628C349.507 412.348 348.115 412.72 346.603 412.744V407.488C347.491 407.368 348.307 406.912 349.051 406.12C349.819 405.328 350.431 404.308 350.887 403.06C351.367 401.788 351.631 400.408 351.679 398.92L357.475 399.352C357.403 401.056 357.115 402.64 356.611 404.104L362.335 408.784L358.663 412.816ZM340.411 398.992H345.739V412.744H331.879V398.992H337.207V401.512H340.411V398.992ZM340.411 408.388V405.76H337.207V408.388H340.411ZM379.468 388.732C377.692 390.172 375.532 391.3 372.988 392.116C370.468 392.932 367.78 393.364 364.924 393.412V388.552C366.916 388.48 368.824 388.132 370.648 387.508C372.472 386.884 373.996 386.02 375.22 384.916C376.468 383.812 377.248 382.552 377.56 381.136L383.716 382.18C383.5 383.164 383.164 384.076 382.708 384.916L394.696 388.912L392.752 393.448L379.468 388.732ZM395.128 394.6V399.244H364.024V394.6H395.128ZM387.388 400.684H393.328V412.744H365.824V400.684H371.764V402.304H387.388V400.684ZM387.388 408.352V406.624H371.764V408.352H387.388ZM428.389 412.744H422.305V382H428.389V412.744ZM406.285 405.76H412.729C414.193 405.76 415.645 405.628 417.085 405.364C418.549 405.1 419.749 404.74 420.685 404.284V409.828C419.773 410.284 418.597 410.644 417.157 410.908C415.717 411.172 414.241 411.304 412.729 411.304H400.021V382.54H406.285V405.76ZM465.754 399.136H462.154V412.744H456.07V382H462.154V393.232H465.754V399.136ZM446.674 405.796C448.162 405.796 449.626 405.676 451.066 405.436C452.53 405.196 453.718 404.86 454.63 404.428V409.864C453.742 410.32 452.506 410.668 450.922 410.908C449.362 411.172 447.802 411.304 446.242 411.304H434.326V382.72H452.218V388.228H440.518V405.796H446.674ZM471.438 405.328C472.47 405.328 473.322 405.676 473.994 406.372C474.666 407.044 475.002 407.896 475.002 408.928C475.002 409.96 474.666 410.812 473.994 411.484C473.322 412.18 472.47 412.528 471.438 412.528C470.406 412.528 469.542 412.18 468.846 411.484C468.174 410.812 467.838 409.96 467.838 408.928C467.838 407.896 468.174 407.044 468.846 406.372C469.542 405.676 470.406 405.328 471.438 405.328Z" fill="#97C1FF"/>
<defs>
<filter id="filter0_d_1228_2065" x="0.392471" y="0.392471" width="612.657" height="494.498" filterUnits="userSpaceOnUse" color-interpolation-filters="sRGB">
<feFlood flood-opacity="0" result="BackgroundImageFix"/>
<feColorMatrix in="SourceAlpha" type="matrix" values="0 0 0 0 0 0 0 0 0 0 0 0 0 0 0 0 0 0 127 0" result="hardAlpha"/>
<feOffset/>
<feGaussianBlur stdDeviation="76.8038"/>
<feComposite in2="hardAlpha" operator="out"/>
<feColorMatrix type="matrix" values="0 0 0 0 0.767552 0 0 0 0 0.888425 0 0 0 0 1 0 0 0 1 0"/>
<feBlend mode="normal" in2="BackgroundImageFix" result="effect1_dropShadow_1228_2065"/>
<feBlend mode="normal" in="SourceGraphic" in2="effect1_dropShadow_1228_2065" result="shape"/>
</filter>
<linearGradient id="paint0_linear_1228_2065" x1="248.044" y1="154" x2="248.044" y2="286.626" gradientUnits="userSpaceOnUse">
<stop stop-color="#DCEEFF"/>
<stop offset="0.463542" stop-color="#BBDEFF"/>
<stop offset="1" stop-color="#82C1FF"/>
</linearGradient>
<linearGradient id="paint1_linear_1228_2065" x1="333.246" y1="163.645" x2="333.246" y2="341.284" gradientUnits="userSpaceOnUse">
<stop stop-color="#D7EAFF"/>
<stop offset="0.520833" stop-color="#98C3FF"/>
<stop offset="1" stop-color="#A3AAFF"/>
</linearGradient>
</defs>
</svg>
