<svg width="614" height="495" viewBox="0 0 614 495" fill="none" xmlns="http://www.w3.org/2000/svg">
<g filter="url(#filter0_d_1228_2065)">
<path d="M189.347 199.695L189.697 199.623L189.789 199.278C196.638 173.542 220.124 154.578 248.044 154.578C279.608 154.578 305.504 178.814 308.103 209.671L308.142 210.133L308.601 210.196C327.191 212.745 341.51 228.675 341.51 247.944C341.51 268.988 324.432 286.048 303.364 286.048H250.81H198.256C174.133 286.048 154.578 266.513 154.578 242.418C154.578 221.372 169.497 203.804 189.347 199.695Z" fill="url(#paint0_linear_1228_2065)" stroke="white" stroke-width="1.15698"/>
<path d="M254.442 224.657L254.792 224.584L254.884 224.239C264.096 189.685 295.689 164.223 333.246 164.223C375.705 164.223 410.54 196.764 414.036 238.194L414.075 238.655L414.534 238.718C439.576 242.146 458.864 263.565 458.864 289.472C458.864 317.766 435.86 340.705 407.479 340.705H336.958H266.437C233.956 340.705 207.629 314.452 207.629 282.071C207.629 253.788 227.714 230.179 254.442 224.657Z" fill="url(#paint1_linear_1228_2065)" stroke="white" stroke-width="1.15698"/>
</g>
<path d="M210.216 384.136H206.616V397.744H200.532V367H206.616V378.232H210.216V384.136ZM192.18 367.828C192.18 372.34 191.784 376.48 190.992 380.248L199.884 392.776L194.916 396.268L188.796 387.304C187.524 390.208 185.94 392.428 184.044 393.964C182.172 395.5 180.072 396.28 177.744 396.304V390.04C179.376 389.848 180.804 388.792 182.028 386.872C183.276 384.928 184.248 382.3 184.944 378.988C185.64 375.652 185.988 371.86 185.988 367.612L192.18 367.828ZM242.109 389.752H236.025V367H242.109V389.752ZM223.677 380.032C222.429 381.688 220.893 383.02 219.069 384.028C217.245 385.012 215.253 385.528 213.093 385.576V380.068C214.437 379.972 215.637 379.564 216.693 378.844C217.749 378.124 218.589 377.212 219.213 376.108C219.861 375.004 220.281 373.816 220.473 372.544H213.525V367.36H233.397V372.544H226.629C226.557 373.384 226.389 374.284 226.125 375.244L234.693 380.968L231.345 385.324L223.677 380.032ZM242.541 392.272V397.744H214.605V386.98H220.797V392.272H242.541ZM276.738 397.744H270.654V367H276.738V397.744ZM257.586 367.36C260.586 367.36 262.938 368.584 264.642 371.032C266.37 373.456 267.234 377.116 267.234 382.012C267.234 386.908 266.37 390.58 264.642 393.028C262.938 395.452 260.586 396.664 257.586 396.664C254.586 396.664 252.222 395.452 250.494 393.028C248.766 390.58 247.902 386.908 247.902 382.012C247.902 377.116 248.766 373.456 250.494 371.032C252.222 368.584 254.586 367.36 257.586 367.36ZM257.586 372.94C255.138 372.94 253.914 375.964 253.914 382.012C253.914 388.06 255.138 391.084 257.586 391.084C260.01 391.084 261.222 388.06 261.222 382.012C261.222 378.796 260.886 376.48 260.214 375.064C259.566 373.648 258.69 372.94 257.586 372.94ZM310.837 377.728C310.213 379.336 309.073 380.596 307.417 381.508C305.785 382.42 303.805 382.876 301.477 382.876C299.533 382.876 297.805 382.552 296.293 381.904C294.805 381.232 293.653 380.308 292.837 379.132C292.021 377.932 291.613 376.54 291.613 374.956C291.613 373.396 292.021 372.016 292.837 370.816C293.653 369.616 294.805 368.692 296.293 368.044C297.805 367.372 299.533 367.036 301.477 367.036C303.757 367.036 305.713 367.48 307.345 368.368C308.977 369.256 310.117 370.48 310.765 372.04H315.517V367H321.601V382.912H315.517V377.728H310.837ZM297.661 374.956C297.661 375.868 297.997 376.6 298.669 377.152C299.365 377.704 300.301 377.98 301.477 377.98C302.653 377.98 303.577 377.704 304.249 377.152C304.945 376.6 305.293 375.868 305.293 374.956C305.293 374.044 304.945 373.312 304.249 372.76C303.577 372.208 302.653 371.932 301.477 371.932C300.301 371.932 299.365 372.208 298.669 372.76C297.997 373.312 297.661 374.044 297.661 374.956ZM320.989 397.816L316.489 393.748C315.529 394.972 314.401 395.932 313.105 396.628C311.833 397.348 310.441 397.72 308.929 397.744V392.488C309.817 392.368 310.633 391.912 311.377 391.12C312.145 390.328 312.757 389.308 313.213 388.06C313.693 386.788 313.957 385.408 314.005 383.92L319.801 384.352C319.729 386.056 319.441 387.64 318.937 389.104L324.661 393.784L320.989 397.816ZM302.737 383.992H308.065V397.744H294.205V383.992H299.533V386.512H302.737V383.992ZM302.737 393.388V390.76H299.533V393.388H302.737ZM341.794 373.732C340.018 375.172 337.858 376.3 335.314 377.116C332.794 377.932 330.106 378.364 327.25 378.412V373.552C329.242 373.48 331.15 373.132 332.974 372.508C334.798 371.884 336.322 371.02 337.546 369.916C338.794 368.812 339.574 367.552 339.886 366.136L346.042 367.18C345.826 368.164 345.49 369.076 345.034 369.916L357.022 373.912L355.078 378.448L341.794 373.732ZM357.454 379.6V384.244H326.35V379.6H357.454ZM349.714 385.684H355.654V397.744H328.15V385.684H334.09V387.304H349.714V385.684ZM349.714 393.352V391.624H334.09V393.352H349.714ZM390.715 397.744H384.631V367H390.715V397.744ZM368.611 390.76H375.055C376.519 390.76 377.971 390.628 379.411 390.364C380.875 390.1 382.075 389.74 383.011 389.284V394.828C382.099 395.284 380.923 395.644 379.483 395.908C378.043 396.172 376.567 396.304 375.055 396.304H362.347V367.54H368.611V390.76ZM428.08 384.136H424.48V397.744H418.396V367H424.48V378.232H428.08V384.136ZM409 390.796C410.488 390.796 411.952 390.676 413.392 390.436C414.856 390.196 416.044 389.86 416.956 389.428V394.864C416.068 395.32 414.832 395.668 413.248 395.908C411.688 396.172 410.128 396.304 408.568 396.304H396.652V367.72H414.544V373.228H402.844V390.796H409ZM433.765 390.328C434.797 390.328 435.649 390.676 436.321 391.372C436.993 392.044 437.329 392.896 437.329 393.928C437.329 394.96 436.993 395.812 436.321 396.484C435.649 397.18 434.797 397.528 433.765 397.528C432.733 397.528 431.869 397.18 431.173 396.484C430.501 395.812 430.165 394.96 430.165 393.928C430.165 392.896 430.501 392.044 431.173 391.372C431.869 390.676 432.733 390.328 433.765 390.328ZM148.485 430.04C147.237 431.48 145.725 432.644 143.949 433.532C142.173 434.396 140.253 434.852 138.189 434.9V429.68C140.037 429.512 141.585 428.864 142.833 427.736C144.105 426.608 144.921 425.228 145.281 423.596H138.549V418.592H145.317V415.46H151.509V418.592H158.277V422.624H161.445V416H167.529V437.204H161.445V428.024H157.413V423.596H151.509C151.389 424.34 151.233 424.976 151.041 425.504L159.285 430.22L156.405 434.72L148.485 430.04ZM166.881 447.14L153.345 442.712C151.593 444.032 149.529 445.028 147.153 445.7C144.801 446.396 142.329 446.744 139.737 446.744V441.128C142.737 441.128 145.353 440.588 147.585 439.508C149.817 438.428 151.221 436.916 151.797 434.972L157.881 436.124C157.689 436.82 157.389 437.576 156.981 438.392L168.825 441.74L166.881 447.14ZM212.248 416V431.912H206.164V426.728H201.484C200.86 428.336 199.72 429.596 198.064 430.508C196.432 431.42 194.452 431.876 192.124 431.876C190.18 431.876 188.452 431.552 186.94 430.904C185.452 430.256 184.3 429.332 183.484 428.132C182.668 426.932 182.26 425.54 182.26 423.956C182.26 422.372 182.668 420.992 183.484 419.816C184.3 418.616 185.452 417.692 186.94 417.044C188.452 416.372 190.18 416.036 192.124 416.036C194.404 416.036 196.36 416.48 197.992 417.368C199.648 418.256 200.788 419.48 201.412 421.04H206.164V416H212.248ZM192.124 426.98C193.3 426.98 194.224 426.704 194.896 426.152C195.592 425.6 195.94 424.868 195.94 423.956C195.94 423.044 195.592 422.312 194.896 421.76C194.224 421.208 193.3 420.932 192.124 420.932C190.948 420.932 190.012 421.208 189.316 421.76C188.644 422.312 188.308 423.044 188.308 423.956C188.308 424.868 188.644 425.6 189.316 426.152C190.012 426.704 190.948 426.98 192.124 426.98ZM206.272 432.992H212.248V446.744H185.104V432.992H191.08V435.008H206.272V432.992ZM206.272 441.92V439.724H191.08V441.92H206.272ZM248.1 440.12V445.664H216.996V440.12H229.452V436.664H218.724V424.136H240.396V422.048H218.652V416.72H246.408V429.212H224.736V431.336H246.768V436.664H235.644V440.12H248.1ZM281.037 422.372H259.545V430.112H281.397V435.728H253.317V416.72H281.037V422.372ZM282.729 445.664H251.625V439.976H282.729V445.664ZM315.486 423.74H294.03V424.82H315.81V428.312H288.162V420.608H309.618V419.528H288.09V416H315.486V423.74ZM317.358 433.388H286.254V429.356H317.358V433.388ZM315.558 442.136H293.958V443.216H315.882V446.744H288.09V439.004H309.69V437.924H288.018V434.432H315.558V442.136ZM341.521 419.78H346.669V425.216H330.253V419.78H335.473V415.892H341.521V419.78ZM361.573 416V446.744H355.993V433.064H353.509V446.204H348.001V416.144H353.509V427.304H355.993V416H361.573ZM338.605 426.44C340.069 426.44 341.365 426.8 342.493 427.52C343.645 428.24 344.545 429.32 345.193 430.76C345.841 432.2 346.165 433.964 346.165 436.052C346.165 438.14 345.841 439.904 345.193 441.344C344.545 442.784 343.645 443.864 342.493 444.584C341.365 445.304 340.069 445.664 338.605 445.664C336.373 445.664 334.561 444.836 333.169 443.18C331.801 441.548 331.117 439.172 331.117 436.052C331.117 432.932 331.801 430.556 333.169 428.924C334.561 427.268 336.373 426.44 338.605 426.44ZM338.605 440.444C339.229 440.444 339.733 440.06 340.117 439.292C340.525 438.5 340.729 437.42 340.729 436.052C340.729 434.684 340.525 433.616 340.117 432.848C339.733 432.056 339.229 431.66 338.605 431.66C338.005 431.66 337.513 432.044 337.129 432.812C336.745 433.58 336.553 434.66 336.553 436.052C336.553 437.444 336.745 438.524 337.129 439.292C337.513 440.06 338.005 440.444 338.605 440.444ZM380.83 427.664C379.102 429.224 377.002 430.448 374.53 431.336C372.082 432.224 369.49 432.68 366.754 432.704V427.16C369.178 427.112 371.422 426.62 373.486 425.684C375.55 424.724 377.026 423.452 377.914 421.868H367.294V416.36H395.014V421.868H384.646C384.55 422.204 384.394 422.624 384.178 423.128L396.274 427.7L393.97 432.74L380.83 427.664ZM396.706 440.552H384.25V447.464H378.058V440.552H365.602V434.936H396.706V440.552ZM430.831 416V446.744H425.107V416H430.831ZM417.079 416.144H422.731V446.204H417.079V442.856L412.651 445.016L408.835 437.24C406.939 442.448 404.071 445.136 400.231 445.304V439.112C401.359 438.944 402.331 437.924 403.147 436.052C403.963 434.18 404.587 431.588 405.019 428.276C405.451 424.964 405.667 421.076 405.667 416.612L411.427 416.828C411.427 421.34 411.187 425.408 410.707 429.032L417.079 441.236V431.192H413.695V425.432H417.079V416.144ZM465.964 440.084V445.664H434.86V440.084H440.872V433.424C439.336 432.56 438.148 431.48 437.308 430.184C436.468 428.864 436.048 427.412 436.048 425.828C436.048 423.908 436.636 422.216 437.812 420.752C439.012 419.264 440.704 418.112 442.888 417.296C445.072 416.456 447.58 416.036 450.412 416.036C453.244 416.036 455.752 416.456 457.936 417.296C460.12 418.112 461.8 419.264 462.976 420.752C464.176 422.216 464.776 423.908 464.776 425.828C464.776 427.412 464.356 428.864 463.516 430.184C462.676 431.48 461.488 432.56 459.952 433.424V440.084H465.964ZM450.412 421.508C448.06 421.508 446.152 421.904 444.688 422.696C443.224 423.488 442.492 424.532 442.492 425.828C442.492 426.668 442.828 427.424 443.5 428.096C444.172 428.744 445.108 429.248 446.308 429.608C447.508 429.968 448.876 430.148 450.412 430.148C451.948 430.148 453.316 429.968 454.516 429.608C455.716 429.248 456.652 428.744 457.324 428.096C457.996 427.424 458.332 426.668 458.332 425.828C458.332 424.532 457.6 423.488 456.136 422.696C454.672 421.904 452.764 421.508 450.412 421.508ZM446.956 440.084H453.868V435.368C452.788 435.512 451.636 435.584 450.412 435.584C449.188 435.584 448.036 435.512 446.956 435.368V440.084ZM475.645 436.52H471.181L469.525 416.9H477.301L475.645 436.52ZM473.413 439.148C474.517 439.148 475.429 439.508 476.149 440.228C476.869 440.948 477.229 441.86 477.229 442.964C477.229 444.068 476.869 444.968 476.149 445.664C475.429 446.384 474.517 446.744 473.413 446.744C472.309 446.744 471.397 446.384 470.677 445.664C469.957 444.968 469.597 444.068 469.597 442.964C469.597 441.86 469.957 440.948 470.677 440.228C471.397 439.508 472.309 439.148 473.413 439.148Z" fill="#69A5FF"/>
<defs>
<filter id="filter0_d_1228_2065" x="0.392471" y="0.392471" width="612.657" height="494.498" filterUnits="userSpaceOnUse" color-interpolation-filters="sRGB">
<feFlood flood-opacity="0" result="BackgroundImageFix"/>
<feColorMatrix in="SourceAlpha" type="matrix" values="0 0 0 0 0 0 0 0 0 0 0 0 0 0 0 0 0 0 127 0" result="hardAlpha"/>
<feOffset/>
<feGaussianBlur stdDeviation="76.8038"/>
<feComposite in2="hardAlpha" operator="out"/>
<feColorMatrix type="matrix" values="0 0 0 0 0.767552 0 0 0 0 0.888425 0 0 0 0 1 0 0 0 1 0"/>
<feBlend mode="normal" in2="BackgroundImageFix" result="effect1_dropShadow_1228_2065"/>
<feBlend mode="normal" in="SourceGraphic" in2="effect1_dropShadow_1228_2065" result="shape"/>
</filter>
<linearGradient id="paint0_linear_1228_2065" x1="248.044" y1="154" x2="248.044" y2="286.626" gradientUnits="userSpaceOnUse">
<stop stop-color="#DCEEFF"/>
<stop offset="0.463542" stop-color="#BBDEFF"/>
<stop offset="1" stop-color="#82C1FF"/>
</linearGradient>
<linearGradient id="paint1_linear_1228_2065" x1="333.246" y1="163.645" x2="333.246" y2="341.284" gradientUnits="userSpaceOnUse">
<stop stop-color="#D7EAFF"/>
<stop offset="0.520833" stop-color="#98C3FF"/>
<stop offset="1" stop-color="#A3AAFF"/>
</linearGradient>
</defs>
</svg>
