<svg width="224" height="218" viewBox="0 0 224 218" fill="none" xmlns="http://www.w3.org/2000/svg">
<g filter="url(#filter0_f_454_1465)">
<rect x="77.4412" y="21" width="126.559" height="119.176" rx="59.5882" fill="#FFEF9A"/>
</g>
<g filter="url(#filter1_i_454_1465)">
<path d="M195.561 90.0805C195.561 120.369 171.008 144.923 140.719 144.923C110.43 144.923 85.8767 120.369 85.8767 90.0805C85.8767 59.792 110.43 35.2383 140.719 35.2383C171.008 35.2383 195.561 59.792 195.561 90.0805Z" fill="url(#paint0_linear_454_1465)"/>
</g>
<g filter="url(#filter2_b_454_1465)">
<g filter="url(#filter3_i_454_1465)">
<path d="M172.004 118.361C172.385 116.196 172.584 113.97 172.584 111.697C172.584 90.4392 155.19 73.2061 133.734 73.2061C117.783 73.2061 104.077 82.7303 98.0938 96.352C93.2467 92.2057 86.9569 89.7024 80.0835 89.7024C64.7575 89.7024 52.3333 102.149 52.3333 117.502C52.3333 118.357 52.3719 119.203 52.4473 120.038C45.0757 123.615 39.9999 131.121 39.9999 139.802C39.9999 151.95 49.9393 161.797 62.2001 161.797H167.034C179.295 161.797 189.234 151.95 189.234 139.802C189.234 129.348 181.872 120.597 172.004 118.361Z" fill="url(#paint1_linear_454_1465)"/>
</g>
</g>
<defs>
<filter id="filter0_f_454_1465" x="0.441162" y="-56" width="280.559" height="273.177" filterUnits="userSpaceOnUse" color-interpolation-filters="sRGB">
<feFlood flood-opacity="0" result="BackgroundImageFix"/>
<feBlend mode="normal" in="SourceGraphic" in2="BackgroundImageFix" result="shape"/>
<feGaussianBlur stdDeviation="38.5" result="effect1_foregroundBlur_454_1465"/>
</filter>
<filter id="filter1_i_454_1465" x="85.8767" y="35.2383" width="109.685" height="114.685" filterUnits="userSpaceOnUse" color-interpolation-filters="sRGB">
<feFlood flood-opacity="0" result="BackgroundImageFix"/>
<feBlend mode="normal" in="SourceGraphic" in2="BackgroundImageFix" result="shape"/>
<feColorMatrix in="SourceAlpha" type="matrix" values="0 0 0 0 0 0 0 0 0 0 0 0 0 0 0 0 0 0 127 0" result="hardAlpha"/>
<feOffset dy="5"/>
<feGaussianBlur stdDeviation="9"/>
<feComposite in2="hardAlpha" operator="arithmetic" k2="-1" k3="1"/>
<feColorMatrix type="matrix" values="0 0 0 0 1 0 0 0 0 1 0 0 0 0 1 0 0 0 0.81 0"/>
<feBlend mode="normal" in2="shape" result="effect1_innerShadow_454_1465"/>
</filter>
<filter id="filter2_b_454_1465" x="13" y="46.2061" width="203.234" height="142.592" filterUnits="userSpaceOnUse" color-interpolation-filters="sRGB">
<feFlood flood-opacity="0" result="BackgroundImageFix"/>
<feGaussianBlur in="BackgroundImageFix" stdDeviation="13.5"/>
<feComposite in2="SourceAlpha" operator="in" result="effect1_backgroundBlur_454_1465"/>
<feBlend mode="normal" in="SourceGraphic" in2="effect1_backgroundBlur_454_1465" result="shape"/>
</filter>
<filter id="filter3_i_454_1465" x="40" y="73.2061" width="149.234" height="98.5918" filterUnits="userSpaceOnUse" color-interpolation-filters="sRGB">
<feFlood flood-opacity="0" result="BackgroundImageFix"/>
<feBlend mode="normal" in="SourceGraphic" in2="BackgroundImageFix" result="shape"/>
<feColorMatrix in="SourceAlpha" type="matrix" values="0 0 0 0 0 0 0 0 0 0 0 0 0 0 0 0 0 0 127 0" result="hardAlpha"/>
<feOffset dy="11"/>
<feGaussianBlur stdDeviation="5"/>
<feComposite in2="hardAlpha" operator="arithmetic" k2="-1" k3="1"/>
<feColorMatrix type="matrix" values="0 0 0 0 1 0 0 0 0 1 0 0 0 0 1 0 0 0 1 0"/>
<feBlend mode="normal" in2="shape" result="effect1_innerShadow_454_1465"/>
</filter>
<linearGradient id="paint0_linear_454_1465" x1="132.388" y1="119.931" x2="177.512" y2="40.7919" gradientUnits="userSpaceOnUse">
<stop stop-color="#FF9900"/>
<stop offset="1" stop-color="#FFEE94"/>
</linearGradient>
<linearGradient id="paint1_linear_454_1465" x1="49.4919" y1="153.887" x2="200.044" y2="41.3026" gradientUnits="userSpaceOnUse">
<stop stop-color="white"/>
<stop offset="1" stop-color="white" stop-opacity="0.58"/>
</linearGradient>
</defs>
</svg>
