<svg width="180" height="168" viewBox="0 0 180 168" fill="none" xmlns="http://www.w3.org/2000/svg">
<g filter="url(#filter0_f_774_1786)">
<rect x="39.2637" y="19.3311" width="116.736" height="109.113" rx="54.5564" fill="#FFEF9A"/>
</g>
<g filter="url(#filter1_i_774_1786)">
<path d="M148.216 82.5794C148.216 110.31 125.568 132.791 97.6302 132.791C69.6924 132.791 47.0444 110.31 47.0444 82.5794C47.0444 54.8485 69.6924 32.3682 97.6302 32.3682C125.568 32.3682 148.216 54.8485 148.216 82.5794Z" fill="url(#paint0_linear_774_1786)"/>
</g>
<g filter="url(#filter2_b_774_1786)">
<g filter="url(#filter3_i_774_1786)">
<path d="M126.487 120.029C126.838 118.047 127.022 116.009 127.022 113.929C127.022 94.4655 110.978 78.6875 91.1866 78.6875C76.4737 78.6875 63.8316 87.4075 58.3128 99.8789C53.8418 96.0828 48.0403 93.7908 41.7003 93.7908C27.5638 93.7908 16.104 105.186 16.104 119.243C16.104 120.025 16.1395 120.8 16.209 121.565C9.40965 124.84 4.72779 131.712 4.72779 139.66C4.72779 150.782 13.8957 159.798 25.2049 159.798H121.902C133.211 159.798 142.379 150.782 142.379 139.66C142.379 130.088 135.589 122.076 126.487 120.029Z" fill="url(#paint1_linear_774_1786)"/>
</g>
</g>
<defs>
<filter id="filter0_f_774_1786" x="0.247784" y="-19.6848" width="194.768" height="187.145" filterUnits="userSpaceOnUse" color-interpolation-filters="sRGB">
<feFlood flood-opacity="0" result="BackgroundImageFix"/>
<feBlend mode="normal" in="SourceGraphic" in2="BackgroundImageFix" result="shape"/>
<feGaussianBlur stdDeviation="19.5079" result="effect1_foregroundBlur_774_1786"/>
</filter>
<filter id="filter1_i_774_1786" x="47.0444" y="32.3682" width="101.171" height="105.3" filterUnits="userSpaceOnUse" color-interpolation-filters="sRGB">
<feFlood flood-opacity="0" result="BackgroundImageFix"/>
<feBlend mode="normal" in="SourceGraphic" in2="BackgroundImageFix" result="shape"/>
<feColorMatrix in="SourceAlpha" type="matrix" values="0 0 0 0 0 0 0 0 0 0 0 0 0 0 0 0 0 0 127 0" result="hardAlpha"/>
<feOffset dy="4.87699"/>
<feGaussianBlur stdDeviation="4.87699"/>
<feComposite in2="hardAlpha" operator="arithmetic" k2="-1" k3="1"/>
<feColorMatrix type="matrix" values="0 0 0 0 1 0 0 0 0 1 0 0 0 0 1 0 0 0 0.81 0"/>
<feBlend mode="normal" in2="shape" result="effect1_innerShadow_774_1786"/>
</filter>
<filter id="filter2_b_774_1786" x="-21.6077" y="52.3518" width="190.323" height="133.782" filterUnits="userSpaceOnUse" color-interpolation-filters="sRGB">
<feFlood flood-opacity="0" result="BackgroundImageFix"/>
<feGaussianBlur in="BackgroundImageFix" stdDeviation="13.1679"/>
<feComposite in2="SourceAlpha" operator="in" result="effect1_backgroundBlur_774_1786"/>
<feBlend mode="normal" in="SourceGraphic" in2="effect1_backgroundBlur_774_1786" result="shape"/>
</filter>
<filter id="filter3_i_774_1786" x="4.72803" y="78.6875" width="137.651" height="90.8643" filterUnits="userSpaceOnUse" color-interpolation-filters="sRGB">
<feFlood flood-opacity="0" result="BackgroundImageFix"/>
<feBlend mode="normal" in="SourceGraphic" in2="BackgroundImageFix" result="shape"/>
<feColorMatrix in="SourceAlpha" type="matrix" values="0 0 0 0 0 0 0 0 0 0 0 0 0 0 0 0 0 0 127 0" result="hardAlpha"/>
<feOffset dy="10.7294"/>
<feGaussianBlur stdDeviation="4.87699"/>
<feComposite in2="hardAlpha" operator="arithmetic" k2="-1" k3="1"/>
<feColorMatrix type="matrix" values="0 0 0 0 1 0 0 0 0 1 0 0 0 0 1 0 0 0 1 0"/>
<feBlend mode="normal" in2="shape" result="effect1_innerShadow_774_1786"/>
</filter>
<linearGradient id="paint0_linear_774_1786" x1="89.9463" y1="109.91" x2="131.102" y2="37.1896" gradientUnits="userSpaceOnUse">
<stop stop-color="#FF9900"/>
<stop offset="1" stop-color="#FFEE94"/>
</linearGradient>
<linearGradient id="paint1_linear_774_1786" x1="13.483" y1="152.556" x2="151.609" y2="48.4934" gradientUnits="userSpaceOnUse">
<stop stop-color="white"/>
<stop offset="1" stop-color="white" stop-opacity="0.58"/>
</linearGradient>
</defs>
</svg>
