<svg width="254" height="254" viewBox="0 0 254 254" fill="none" xmlns="http://www.w3.org/2000/svg">
<path d="M59.3967 155.159C59.3967 155.159 82.0879 135.242 55.9603 92.5914C32.7559 54.7139 84.9115 38.2949 107.386 42.6915C136.501 48.3869 153.217 85.1858 175.482 73.5258C197.747 61.8657 219.804 114.702 187.417 134.145C147.13 158.331 172.986 172.385 169.368 190.119C166.771 202.846 129.815 222.523 109.889 200.077C93.1205 181.189 84.8974 187.947 77.2335 190.468C66.1799 194.105 42.0528 175.188 59.3967 155.159Z" fill="#DEE9FF"/>
<path d="M102.445 148.093L105.652 140.174C110.671 143.241 112.092 145.973 112.362 147.791L104.815 150.554C103.295 151.105 101.835 149.595 102.445 148.093Z" fill="url(#paint0_linear_1771_3339)"/>
<path d="M117.964 114.765C117.97 114.738 117.976 114.712 117.99 114.693L118.368 113.755L160.893 73.2908L160.941 73.3449C162.085 72.7871 164.245 73.4914 166.875 75.1223L164.517 77.2686L164.271 77.5014L161.699 79.86L123.835 116.156C123.837 116.157 116.845 118.642 117.964 114.765Z" fill="#749DED"/>
<path d="M135.262 127.682L172.168 92.3702L175.446 89.2737L175.476 89.2356L178.776 86.1113C183.063 91.4698 185.18 96.3115 183.629 97.7858C183.553 97.8634 183.475 97.9234 183.377 97.9688L183.465 98.0698L142.375 136.812C142.375 136.812 142.359 136.813 142.317 136.827C141.347 137.109 128.838 140.487 135.262 127.682Z" fill="#C6D7F7"/>
<path d="M105.653 140.173L117.963 114.766C116.844 118.644 123.837 116.158 123.837 116.158C124.1 133.431 135.263 127.682 135.263 127.682C128.839 140.488 141.347 137.109 142.319 136.826L112.364 147.791C112.093 145.972 110.671 143.24 105.653 140.173Z" fill="#F2F6FE"/>
<path d="M198.876 84.3741L209.72 74.3307C211.584 72.5562 208.463 64.7703 202.238 58.2215C196.013 51.6728 189.454 47.8018 187.59 49.5777L176.747 59.6212C174.883 61.3956 178.417 68.1435 184.642 74.6937C190.867 81.2425 197.011 86.1501 198.876 84.3741Z" fill="#618ADA"/>
<path d="M175.53 82.4056C172.547 79.274 169.48 76.7485 166.875 75.1234C164.244 73.4939 162.085 72.7882 160.941 73.346L160.892 73.2918L178.1 58.2441C181.232 59.0494 186.379 62.7066 191.384 67.8704C197.358 74.0473 201.122 80.3354 200.582 82.962L183.629 97.7842C185.178 96.3099 183.063 91.4682 178.776 86.1097C177.802 84.8945 176.713 83.6486 175.53 82.4056Z" fill="#D3DEE7"/>
<path d="M117.99 114.694C118.076 114.412 118.195 114.109 118.367 113.756Z" fill="url(#paint1_linear_1771_3339)"/>
<path d="M123.836 116.158L161.701 79.8608L164.273 77.5022L164.519 77.2694L166.877 75.123C169.482 76.7482 172.549 79.2737 175.532 82.4053C176.714 83.6498 177.803 84.8957 178.777 86.1109L175.476 89.2352L175.447 89.2732L172.169 92.3697L135.263 127.682C135.262 127.682 124.099 133.431 123.836 116.158Z" fill="#A1BEF2"/>
<path d="M181.084 77.0155C176.079 71.8517 170.932 68.1945 167.8 67.3892L169.734 65.7012C172.739 66.0701 178.329 69.8796 183.742 75.4753C189.164 81.0768 192.767 86.7779 192.981 89.7441L190.282 92.1085C190.822 89.4791 187.057 83.1924 181.084 77.0155Z" fill="#E4EBF0"/>
<path fill-rule="evenodd" clip-rule="evenodd" d="M80.1245 166.155C84.6129 160.679 90.2667 152.724 90.2667 147.393C90.2667 138.554 83.3065 131.389 74.7208 131.389C66.135 131.389 59.1748 138.554 59.1748 147.393C59.1748 152.724 64.8286 160.679 69.317 166.155C71.6587 169.012 72.8295 170.44 74.7208 170.44C76.612 170.44 77.7828 169.012 80.1245 166.155ZM74.7208 153.698C71.5011 153.698 68.891 151.201 68.891 148.121C68.891 145.04 71.5011 142.543 74.7208 142.543C77.9404 142.543 80.5505 145.04 80.5505 148.121C80.5505 151.201 77.9404 153.698 74.7208 153.698Z" fill="#618ADA"/>
<defs>
<linearGradient id="paint0_linear_1771_3339" x1="109.694" y1="143.116" x2="103.633" y2="150.753" gradientUnits="userSpaceOnUse">
<stop stop-color="#475B80"/>
<stop offset="0.6559" stop-color="#2C3D51"/>
<stop offset="1" stop-color="#21313E"/>
</linearGradient>
<linearGradient id="paint1_linear_1771_3339" x1="118.477" y1="113.846" x2="117.875" y2="114.606" gradientUnits="userSpaceOnUse">
<stop stop-color="#FFD184"/>
<stop offset="1" stop-color="#FFAC57"/>
</linearGradient>
</defs>
</svg>
