<svg width="254" height="255" viewBox="0 0 254 255" fill="none" xmlns="http://www.w3.org/2000/svg">
<path d="M47.8509 115.841C47.8509 115.841 82.987 114.434 90.58 56.6774C97.3228 5.38428 156.571 28.7311 173.698 49.1777C195.884 75.6647 184.057 121.228 212.758 126.984C241.458 132.74 222.716 196.736 179.151 190.61C124.957 182.99 138.069 214.658 121.8 228.062C110.124 237.682 62.2497 228.421 60.6541 193.5C59.3114 164.115 46.916 164.208 38.13 160.876C25.4586 156.07 17.4742 121.267 47.8509 115.841Z" fill="#DEE9FF"/>
<path d="M167.294 179.986L132.774 145.875L125.938 152.793L160.459 186.903L167.294 179.986Z" fill="#AECAFF"/>
<path d="M180.481 189.149L153.624 162.611C153.474 162.464 153.233 162.465 153.085 162.614L142.92 172.902C142.773 173.051 142.774 173.292 142.924 173.44L169.78 199.978C169.93 200.126 170.171 200.124 170.319 199.975L180.484 189.688C180.632 189.538 180.63 189.297 180.481 189.149Z" fill="#618ADA"/>
<path d="M102.178 163.03C125.927 163.03 145.179 143.777 145.179 120.028C145.179 96.2796 125.927 77.0273 102.178 77.0273C78.4295 77.0273 59.1772 96.2796 59.1772 120.028C59.1772 143.777 78.4295 163.03 102.178 163.03Z" fill="#618ADA"/>
<path d="M102.178 156.012C122.052 156.012 138.163 139.901 138.163 120.028C138.163 100.154 122.052 84.043 102.178 84.043C82.3042 84.043 66.1934 100.154 66.1934 120.028C66.1934 139.901 82.3042 156.012 102.178 156.012Z" fill="#DEE9FF"/>
<path fill-rule="evenodd" clip-rule="evenodd" d="M175.982 112.31C179.82 107.417 184.654 100.307 184.654 95.5432C184.654 87.6439 178.703 81.2402 171.362 81.2402C164.021 81.2402 158.07 87.6439 158.07 95.5432C158.07 100.307 162.904 107.417 166.742 112.31C168.744 114.863 169.745 116.14 171.362 116.14C172.979 116.14 173.98 114.863 175.982 112.31ZM171.362 101.178C168.609 101.178 166.378 98.9462 166.378 96.1934C166.378 93.4406 168.609 91.209 171.362 91.209C174.115 91.209 176.346 93.4406 176.346 96.1934C176.346 98.9462 174.115 101.178 171.362 101.178Z" fill="#618ADA"/>
<path fill-rule="evenodd" clip-rule="evenodd" d="M86.0004 194.681C88.5297 191.456 91.7157 186.77 91.7157 183.63C91.7157 178.424 87.7935 174.203 82.9552 174.203C78.117 174.203 74.1948 178.424 74.1948 183.63C74.1948 186.77 77.3808 191.456 79.9101 194.681C81.2297 196.364 81.8895 197.205 82.9552 197.205C84.021 197.205 84.6808 196.364 86.0004 194.681ZM82.9552 187.344C81.1409 187.344 79.6701 185.873 79.6701 184.059C79.6701 182.244 81.1409 180.773 82.9552 180.773C84.7696 180.773 86.2404 182.244 86.2404 184.059C86.2404 185.873 84.7696 187.344 82.9552 187.344Z" fill="#618ADA"/>
</svg>
