<svg width="31" height="28" viewBox="0 0 31 28" fill="none" xmlns="http://www.w3.org/2000/svg">
<path d="M13.2857 28C16.8093 28 20.1886 26.525 22.6801 23.8995C25.1717 21.274 26.5714 17.713 26.5714 14H31L25.2576 7.94889L25.1543 7.73111L19.1905 14H23.619C23.619 16.8879 22.5304 19.6575 20.5925 21.6996C18.6546 23.7417 16.0263 24.8889 13.2857 24.8889C10.5451 24.8889 7.91682 23.7417 5.97894 21.6996C4.04107 19.6575 2.95238 16.8879 2.95238 14C2.95238 11.1121 4.04107 8.34245 5.97894 6.30039C7.91682 4.25833 10.5451 3.11111 13.2857 3.11111C16.1348 3.11111 18.7181 4.34 20.5781 6.31555L22.6743 4.10666C20.2681 1.55555 16.9762 0 13.2857 0C9.76213 0 6.38285 1.475 3.8913 4.10051C1.39974 6.72602 0 10.287 0 14C0 17.713 1.39974 21.274 3.8913 23.8995C6.38285 26.525 9.76213 28 13.2857 28Z" fill="black"/>
</svg>
