<svg width="20" height="20" viewBox="0 0 20 20" fill="none" xmlns="http://www.w3.org/2000/svg">
<path d="M12.2573 2.54631C12.7695 2.29169 13.3715 2.21594 13.9673 2.37559C15.2639 2.72302 16.0334 4.05578 15.686 5.3524L13.7089 12.731C13.3615 14.0276 12.0287 14.7971 10.7321 14.4497C9.43546 14.1022 8.66599 12.7695 9.01342 11.4729L9.80425 8.52141C9.89359 8.188 9.69573 7.84528 9.36231 7.75595C9.0289 7.66661 8.68619 7.86447 8.59685 8.19789L7.80601 11.1493C7.27991 13.1128 8.44511 15.131 10.4086 15.6571C12.372 16.1832 14.3902 15.018 14.9163 13.0545L16.8934 5.67592C17.4195 3.71247 16.2543 1.69429 14.2908 1.16818C13.3896 0.926702 12.4754 1.04198 11.7009 1.42698C11.226 1.66305 10.8027 2.00091 10.4656 2.42119C10.2496 2.69045 10.2928 3.08381 10.562 3.29979C10.8313 3.51577 11.2247 3.47257 11.4406 3.20331C11.6628 2.92636 11.9426 2.70276 12.2573 2.54631Z" fill="#9B9B9B"/>
<path d="M6.85281 7.73057C7.20024 6.43396 8.53301 5.66448 9.82962 6.01191C11.1262 6.35934 11.8957 7.6921 11.5483 8.98872L10.7575 11.9402C10.6681 12.2736 10.866 12.6163 11.1994 12.7056C11.5328 12.795 11.8755 12.5971 11.9649 12.2637L12.7557 9.31225C13.2818 7.3488 12.1166 5.33061 10.1531 4.80451C8.1897 4.2784 6.17151 5.4436 5.64541 7.40705L3.66832 14.7857C3.14221 16.7491 4.30741 18.7673 6.27086 19.2934C7.17208 19.5349 8.08632 19.4196 8.86079 19.0346C9.33569 18.7985 9.75904 18.4607 10.0961 18.0404C10.3121 17.7711 10.2689 17.3778 9.99967 17.1618C9.73041 16.9458 9.33704 16.989 9.12106 17.2583C8.89892 17.5352 8.6191 17.7588 8.30437 17.9153C7.79217 18.1699 7.19021 18.2456 6.59439 18.086C5.29777 17.7386 4.5283 16.4058 4.87572 15.1092L6.85281 7.73057Z" fill="#9B9B9B"/>
</svg>
