<svg width="28" height="28" viewBox="0 0 28 28" fill="none" xmlns="http://www.w3.org/2000/svg">
<path d="M25.6668 14.0007C25.6668 20.444 20.4435 25.6673 14.0002 25.6673C7.55684 25.6673 2.3335 20.444 2.3335 14.0007C2.3335 7.55733 7.55684 2.33398 14.0002 2.33398C20.4435 2.33398 25.6668 7.55733 25.6668 14.0007Z" fill="#ABCEF2"/>
<path d="M18.6668 14.7507C19.081 14.7507 19.4168 14.4149 19.4168 14.0007C19.4168 13.5864 19.081 13.2507 18.6668 13.2507V14.7507ZM12.5389 19.2C12.8331 19.4916 13.3079 19.4895 13.5995 19.1953C13.8911 18.9011 13.889 18.4262 13.5948 18.1346L12.5389 19.2ZM11.4214 17.0365L11.9494 16.5038L11.4214 17.0365ZM11.4214 10.9648L10.8934 10.4321L11.4214 10.9648ZM13.5948 9.86668C13.889 9.57509 13.8911 9.10022 13.5995 8.80603C13.3079 8.51183 12.8331 8.50971 12.5389 8.80129L13.5948 9.86668ZM9.35206 14.2931L8.60808 14.3879L8.60808 14.3879L9.35206 14.2931ZM9.35206 13.7082L8.60808 13.6134L8.60808 13.6134L9.35206 13.7082ZM24.9168 14.0007C24.9168 20.0298 20.0293 24.9173 14.0002 24.9173V26.4173C20.8577 26.4173 26.4168 20.8582 26.4168 14.0007H24.9168ZM14.0002 24.9173C7.97105 24.9173 3.0835 20.0298 3.0835 14.0007H1.5835C1.5835 20.8582 7.14263 26.4173 14.0002 26.4173V24.9173ZM3.0835 14.0007C3.0835 7.97154 7.97105 3.08398 14.0002 3.08398V1.58398C7.14263 1.58398 1.5835 7.14312 1.5835 14.0007H3.0835ZM14.0002 3.08398C20.0293 3.08398 24.9168 7.97154 24.9168 14.0007H26.4168C26.4168 7.14312 20.8577 1.58398 14.0002 1.58398V3.08398ZM18.6668 13.2507H10.2668V14.7507H18.6668V13.2507ZM13.5948 18.1346L11.9494 16.5038L10.8934 17.5692L12.5389 19.2L13.5948 18.1346ZM11.9494 11.4975L13.5948 9.86668L12.5389 8.80129L10.8934 10.4321L11.9494 11.4975ZM11.9494 16.5038C11.2807 15.8411 10.8251 15.3879 10.5173 15.0047C10.219 14.6333 10.1219 14.401 10.096 14.1983L8.60808 14.3879C8.68326 14.9777 8.96467 15.4669 9.34776 15.9439C9.72136 16.4091 10.2499 16.9313 10.8934 17.5692L11.9494 16.5038ZM10.8934 10.4321C10.2499 11.07 9.72136 11.5922 9.34777 12.0574C8.96467 12.5344 8.68326 13.0236 8.60808 13.6134L10.096 13.803C10.1219 13.6003 10.219 13.368 10.5173 12.9966C10.8251 12.6134 11.2807 12.1602 11.9494 11.4975L10.8934 10.4321ZM10.096 14.1983C10.0877 14.1327 10.0835 14.0666 10.0835 14.0007L8.5835 14.0007C8.5835 14.13 8.59169 14.2594 8.60808 14.3879L10.096 14.1983ZM10.0835 14.0007C10.0835 13.9347 10.0877 13.8687 10.096 13.803L8.60808 13.6134C8.59169 13.742 8.5835 13.8713 8.5835 14.0007L10.0835 14.0007ZM10.2668 13.2507H9.3335V14.7507H10.2668V13.2507Z" fill="white"/>
</svg>
