<svg width="110" height="110" viewBox="0 0 110 110" fill="none" xmlns="http://www.w3.org/2000/svg">
<g filter="url(#filter0_dd_461_1599)">
<circle cx="54.6931" cy="54.6931" r="24.6931" fill="white"/>
<circle cx="54.6931" cy="54.6931" r="24.6931" stroke="white" stroke-opacity="0.2" stroke-width="2.29703"/>
</g>
<circle cx="54.6931" cy="54.6931" r="24.6931" stroke="white" stroke-opacity="0.2" stroke-width="5.74257"/>
<path d="M45.3505 47.5595C46.2109 47.4847 47.299 47.4847 48.7609 47.4847H50.8027C53.6615 47.4847 55.0909 47.4847 56.1828 48.0439C57.1433 48.5359 57.9242 49.3208 58.4136 50.2863C58.9699 51.3838 58.9699 52.8206 58.9699 55.6943V58.4638C58.9699 58.7508 58.9699 58.8942 58.9642 59.0155C58.8749 60.9107 57.7681 62.5341 56.1795 63.3472L57.7542 64.4705C58.7821 65.2037 60.1329 64.1448 59.6637 62.9736C59.3314 62.1439 59.9433 61.2414 60.8381 61.2414H61.5292C63.9216 61.2414 65.861 59.3047 65.861 56.9156V52.066C65.861 48.8543 65.861 47.2485 65.2351 46.0218C64.6845 44.9427 63.806 44.0655 62.7255 43.5157C61.4971 42.8906 59.889 42.8906 56.6729 42.8906H54.3758C51.1597 42.8906 49.5516 42.8906 48.3232 43.5157C47.2427 44.0655 46.3642 44.9427 45.8136 46.0218C45.5873 46.4654 45.4428 46.9586 45.3505 47.5595Z" fill="#ABCEF2"/>
<path fill-rule="evenodd" clip-rule="evenodd" d="M57.3346 51.1052C57.8214 52.0736 57.8214 53.3414 57.8214 55.8769V58.3207C57.8214 58.5739 57.8214 58.7005 57.8164 58.8074C57.7075 61.1395 55.8669 63.0052 53.5662 63.1156C53.4606 63.1207 53.3213 63.1207 53.0426 63.1207L52.9711 63.1208C52.0597 63.1267 51.172 63.4151 50.427 63.9472L50.3796 63.9814L48.0475 65.6699C47.248 66.2488 46.1974 65.4128 46.5623 64.4882C46.8208 63.8332 46.3449 63.1207 45.6489 63.1207H45.1114C43.2506 63.1207 41.7422 61.5917 41.7422 59.7056V55.8769C41.7422 53.3414 41.7422 52.0736 42.229 51.1052C42.6572 50.2533 43.3405 49.5607 44.1809 49.1266C45.1363 48.6332 46.3871 48.6332 48.8885 48.6332H50.6751C53.1765 48.6332 54.4272 48.6332 55.3827 49.1266C56.2231 49.5607 56.9064 50.2533 57.3346 51.1052ZM46.3362 57.8213C46.9706 57.8213 47.4848 57.3071 47.4848 56.6728C47.4848 56.0385 46.9706 55.5243 46.3362 55.5243C45.7019 55.5243 45.1877 56.0385 45.1877 56.6728C45.1877 57.3071 45.7019 57.8213 46.3362 57.8213ZM50.9303 56.6728C50.9303 57.3071 50.4161 57.8213 49.7818 57.8213C49.1475 57.8213 48.6333 57.3071 48.6333 56.6728C48.6333 56.0385 49.1475 55.5243 49.7818 55.5243C50.4161 55.5243 50.9303 56.0385 50.9303 56.6728ZM53.2273 57.8213C53.8616 57.8213 54.3759 57.3071 54.3759 56.6728C54.3759 56.0385 53.8616 55.5243 53.2273 55.5243C52.593 55.5243 52.0788 56.0385 52.0788 56.6728C52.0788 57.3071 52.593 57.8213 53.2273 57.8213Z" fill="#ABCEF2"/>
<defs>
<filter id="filter0_dd_461_1599" x="0.138691" y="0.138691" width="109.109" height="109.108" filterUnits="userSpaceOnUse" color-interpolation-filters="sRGB">
<feFlood flood-opacity="0" result="BackgroundImageFix"/>
<feColorMatrix in="SourceAlpha" type="matrix" values="0 0 0 0 0 0 0 0 0 0 0 0 0 0 0 0 0 0 127 0" result="hardAlpha"/>
<feOffset dx="-10.3366" dy="-10.3366"/>
<feGaussianBlur stdDeviation="9.18812"/>
<feColorMatrix type="matrix" values="0 0 0 0 1 0 0 0 0 1 0 0 0 0 1 0 0 0 0.6 0"/>
<feBlend mode="normal" in2="BackgroundImageFix" result="effect1_dropShadow_461_1599"/>
<feColorMatrix in="SourceAlpha" type="matrix" values="0 0 0 0 0 0 0 0 0 0 0 0 0 0 0 0 0 0 127 0" result="hardAlpha"/>
<feOffset dx="10.3366" dy="10.3366"/>
<feGaussianBlur stdDeviation="9.18812"/>
<feColorMatrix type="matrix" values="0 0 0 0 0.639216 0 0 0 0 0.694118 0 0 0 0 0.776471 0 0 0 0.6 0"/>
<feBlend mode="normal" in2="effect1_dropShadow_461_1599" result="effect2_dropShadow_461_1599"/>
<feBlend mode="normal" in="SourceGraphic" in2="effect2_dropShadow_461_1599" result="shape"/>
</filter>
</defs>
</svg>
