<svg width="56" height="56" viewBox="0 0 56 56" fill="none" xmlns="http://www.w3.org/2000/svg">
<circle cx="27.6931" cy="27.6931" r="24.6931" fill="#E7EEF5" stroke="white" stroke-opacity="0.2" stroke-width="2.29703"/>
<circle cx="27.6931" cy="27.6931" r="24.6931" stroke="white" stroke-opacity="0.2" stroke-width="5.74257"/>
<path d="M18.3505 20.5595C19.2109 20.4847 20.299 20.4847 21.7609 20.4847H23.8027C26.6615 20.4847 28.0909 20.4847 29.1828 21.0439C30.1433 21.5359 30.9242 22.3208 31.4136 23.2863C31.9699 24.3838 31.9699 25.8206 31.9699 28.6943V31.4638C31.9699 31.7508 31.9699 31.8942 31.9642 32.0155C31.8749 33.9107 30.7681 35.5341 29.1795 36.3472L30.7542 37.4705C31.7821 38.2037 33.1329 37.1448 32.6637 35.9736C32.3314 35.1439 32.9433 34.2414 33.8381 34.2414H34.5292C36.9216 34.2414 38.861 32.3047 38.861 29.9156V25.066C38.861 21.8543 38.861 20.2485 38.2351 19.0218C37.6845 17.9427 36.806 17.0655 35.7255 16.5157C34.4971 15.8906 32.889 15.8906 29.6729 15.8906H27.3758C24.1597 15.8906 22.5516 15.8906 21.3232 16.5157C20.2427 17.0655 19.3642 17.9427 18.8136 19.0218C18.5873 19.4654 18.4428 19.9586 18.3505 20.5595Z" fill="#ABCEF2"/>
<path fill-rule="evenodd" clip-rule="evenodd" d="M30.3346 24.1052C30.8214 25.0736 30.8214 26.3414 30.8214 28.8769V31.3207C30.8214 31.5739 30.8214 31.7005 30.8164 31.8074C30.7075 34.1395 28.8669 36.0052 26.5662 36.1156C26.4606 36.1207 26.3213 36.1207 26.0426 36.1207L25.9711 36.1208C25.0597 36.1267 24.172 36.4151 23.427 36.9472L23.3796 36.9814L21.0475 38.6699C20.248 39.2488 19.1974 38.4128 19.5623 37.4882C19.8208 36.8332 19.3449 36.1207 18.6489 36.1207H18.1114C16.2506 36.1207 14.7422 34.5917 14.7422 32.7056V28.8769C14.7422 26.3414 14.7422 25.0736 15.229 24.1052C15.6572 23.2533 16.3405 22.5607 17.1809 22.1266C18.1363 21.6332 19.3871 21.6332 21.8885 21.6332H23.6751C26.1765 21.6332 27.4272 21.6332 28.3827 22.1266C29.2231 22.5607 29.9064 23.2533 30.3346 24.1052ZM19.3362 30.8213C19.9706 30.8213 20.4848 30.3071 20.4848 29.6728C20.4848 29.0385 19.9706 28.5243 19.3362 28.5243C18.7019 28.5243 18.1877 29.0385 18.1877 29.6728C18.1877 30.3071 18.7019 30.8213 19.3362 30.8213ZM23.9303 29.6728C23.9303 30.3071 23.4161 30.8213 22.7818 30.8213C22.1475 30.8213 21.6333 30.3071 21.6333 29.6728C21.6333 29.0385 22.1475 28.5243 22.7818 28.5243C23.4161 28.5243 23.9303 29.0385 23.9303 29.6728ZM26.2273 30.8213C26.8616 30.8213 27.3759 30.3071 27.3759 29.6728C27.3759 29.0385 26.8616 28.5243 26.2273 28.5243C25.593 28.5243 25.0788 29.0385 25.0788 29.6728C25.0788 30.3071 25.593 30.8213 26.2273 30.8213Z" fill="#ABCEF2"/>
</svg>
