<svg width="50" height="42" viewBox="0 0 50 42" fill="none" xmlns="http://www.w3.org/2000/svg">
<path d="M18.0611 18.0451L18.5019 17.4383L18.0611 18.0451ZM16.9549 16.9389L17.5617 16.4981L16.9549 16.9389ZM33.0451 16.9389L32.4383 16.4981L33.0451 16.9389ZM31.9389 18.0451L31.4981 17.4383L31.9389 18.0451ZM31.9389 1.95491L31.4981 2.56168L31.9389 1.95491ZM33.0451 3.06107L32.4383 3.50191L33.0451 3.06107ZM18.0611 1.95491L18.5019 2.56168L18.0611 1.95491ZM16.9549 3.06107L17.5617 3.50191L16.9549 3.06107ZM20.7197 13.2197C20.4268 13.5126 20.4268 13.9874 20.7197 14.2803C21.0126 14.5732 21.4874 14.5732 21.7803 14.2803L20.7197 13.2197ZM28.8514 7.20926C29.1443 6.91637 29.1443 6.4415 28.8514 6.1486C28.5585 5.85571 28.0836 5.85571 27.7907 6.1486L28.8514 7.20926ZM27.7906 14.2803C28.0835 14.5732 28.5584 14.5732 28.8513 14.2803C29.1441 13.9874 29.1441 13.5126 28.8513 13.2197L27.7906 14.2803ZM21.7802 6.1486C21.4873 5.85571 21.0124 5.85571 20.7195 6.1486C20.4266 6.4415 20.4266 6.91637 20.7195 7.20926L21.7802 6.1486ZM30 10.75C30.4142 10.75 30.75 10.4142 30.75 10C30.75 9.58579 30.4142 9.25 30 9.25V10.75ZM20 9.25C19.5858 9.25 19.25 9.58579 19.25 10C19.25 10.4142 19.5858 10.75 20 10.75V9.25ZM24.25 15C24.25 15.4142 24.5858 15.75 25 15.75C25.4142 15.75 25.75 15.4142 25.75 15H24.25ZM25.75 5C25.75 4.58579 25.4142 4.25 25 4.25C24.5858 4.25 24.25 4.58579 24.25 5H25.75ZM25 18.25C23.1084 18.25 21.75 18.249 20.698 18.135C19.6601 18.0225 19.0099 17.8074 18.5019 17.4383L17.6202 18.6518C18.4266 19.2377 19.3709 19.5 20.5365 19.6263C21.688 19.751 23.1418 19.75 25 19.75V18.25ZM15.25 10C15.25 11.8582 15.249 13.312 15.3737 14.4635C15.5 15.6291 15.7623 16.5734 16.3482 17.3798L17.5617 16.4981C17.1926 15.9901 16.9775 15.3399 16.865 14.302C16.751 13.25 16.75 11.8916 16.75 10H15.25ZM18.5019 17.4383C18.1411 17.1762 17.8238 16.8589 17.5617 16.4981L16.3482 17.3798C16.7028 17.8679 17.1321 18.2972 17.6202 18.6518L18.5019 17.4383ZM33.25 10C33.25 11.8916 33.249 13.25 33.135 14.302C33.0225 15.3399 32.8074 15.9901 32.4383 16.4981L33.6518 17.3798C34.2377 16.5734 34.5 15.6291 34.6263 14.4635C34.751 13.312 34.75 11.8582 34.75 10H33.25ZM25 19.75C26.8582 19.75 28.312 19.751 29.4635 19.6263C30.6291 19.5 31.5734 19.2377 32.3798 18.6518L31.4981 17.4383C30.9901 17.8074 30.3399 18.0225 29.302 18.135C28.25 18.249 26.8916 18.25 25 18.25V19.75ZM32.4383 16.4981C32.1762 16.8589 31.8589 17.1762 31.4981 17.4383L32.3798 18.6518C32.8679 18.2972 33.2972 17.8679 33.6518 17.3798L32.4383 16.4981ZM25 1.75C26.8916 1.75 28.25 1.75103 29.302 1.865C30.3399 1.97745 30.9901 2.19259 31.4981 2.56168L32.3798 1.34815C31.5734 0.762324 30.6291 0.500006 29.4635 0.373728C28.312 0.248971 26.8582 0.25 25 0.25V1.75ZM34.75 10C34.75 8.14184 34.751 6.68798 34.6263 5.53648C34.5 4.37094 34.2377 3.42656 33.6518 2.62023L32.4383 3.50191C32.8074 4.00992 33.0225 4.66013 33.135 5.69804C33.249 6.74999 33.25 8.10843 33.25 10H34.75ZM31.4981 2.56168C31.8589 2.82382 32.1762 3.14111 32.4383 3.50191L33.6518 2.62023C33.2972 2.13209 32.8679 1.70281 32.3798 1.34815L31.4981 2.56168ZM25 0.25C23.1418 0.25 21.688 0.248971 20.5365 0.373728C19.3709 0.500006 18.4266 0.762324 17.6202 1.34815L18.5019 2.56168C19.0099 2.19259 19.6601 1.97745 20.698 1.865C21.75 1.75103 23.1084 1.75 25 1.75V0.25ZM16.75 10C16.75 8.10843 16.751 6.74999 16.865 5.69804C16.9775 4.66013 17.1926 4.00992 17.5617 3.50191L16.3482 2.62023C15.7623 3.42656 15.5 4.37094 15.3737 5.53648C15.249 6.68798 15.25 8.14184 15.25 10H16.75ZM17.6202 1.34815C17.1321 1.70281 16.7028 2.13209 16.3482 2.62023L17.5617 3.50191C17.8238 3.14111 18.1411 2.82382 18.5019 2.56168L17.6202 1.34815ZM21.7803 14.2803L25.3158 10.7449L24.2551 9.68421L20.7197 13.2197L21.7803 14.2803ZM25.3158 10.7449L25.5303 10.5303L24.4697 9.46967L24.2551 9.68421L25.3158 10.7449ZM25.5303 10.5303L28.8514 7.20926L27.7907 6.1486L24.4697 9.46967L25.5303 10.5303ZM28.8513 13.2197L25.5303 9.89875L24.4697 10.9594L27.7906 14.2803L28.8513 13.2197ZM25.5303 9.89875L25.3158 9.68421L24.2551 10.7449L24.4697 10.9594L25.5303 9.89875ZM25.3158 9.68421L25.1013 9.46967L24.0406 10.5303L24.2551 10.7449L25.3158 9.68421ZM25.1013 9.46967L21.7802 6.1486L20.7195 7.20926L24.0406 10.5303L25.1013 9.46967ZM30 9.25H25V10.75H30V9.25ZM25 9.25H24.5709V10.75H25V9.25ZM24.5709 9.25H20V10.75H24.5709V9.25ZM25.75 15V10.4291H24.25V15H25.75ZM25.75 10.4291V10H24.25V10.4291H25.75ZM25.75 10V5H24.25V10H25.75Z" fill="#ABCEF2"/>
<path d="M6.62363 39.664C5.41829 39.664 4.52229 39.2693 3.93563 38.48V39.44H1.08763V26H3.93563V31.024C4.52229 30.2347 5.41829 29.84 6.62363 29.84C7.50896 29.84 8.29829 30.0533 8.99163 30.48C9.68496 30.896 10.2236 31.4773 10.6076 32.224C10.9916 32.9707 11.1836 33.8133 11.1836 34.752C11.1836 35.6907 10.9916 36.5333 10.6076 37.28C10.2236 38.0267 9.68496 38.608 8.99163 39.024C8.29829 39.4507 7.50896 39.664 6.62363 39.664ZM6.17563 37.232C6.84763 37.232 7.38629 37.0027 7.79163 36.544C8.19696 36.0747 8.39963 35.4773 8.39963 34.752C8.39963 34.0267 8.19696 33.4347 7.79163 32.976C7.38629 32.5067 6.84763 32.272 6.17563 32.272C5.48229 32.272 4.92763 32.5067 4.51163 32.976C4.09563 33.4347 3.88763 34.0267 3.88763 34.752C3.88763 35.4773 4.09563 36.0747 4.51163 36.544C4.92763 37.0027 5.48229 37.232 6.17563 37.232ZM16.9333 39.664C16.0479 39.664 15.2586 39.4507 14.5653 39.024C13.8719 38.608 13.3333 38.0267 12.9493 37.28C12.5653 36.5333 12.3733 35.6907 12.3733 34.752C12.3733 33.8133 12.5653 32.9707 12.9493 32.224C13.3333 31.4773 13.8719 30.896 14.5653 30.48C15.2586 30.0533 16.0479 29.84 16.9333 29.84C18.1386 29.84 19.0346 30.2347 19.6213 31.024V30.064H22.4693V39.44H19.6213V38.48C19.0346 39.2693 18.1386 39.664 16.9333 39.664ZM17.3813 37.232C18.0746 37.232 18.6293 37.0027 19.0453 36.544C19.4613 36.0747 19.6693 35.4773 19.6693 34.752C19.6693 34.0267 19.4613 33.4347 19.0453 32.976C18.6293 32.5067 18.0746 32.272 17.3813 32.272C16.7093 32.272 16.1706 32.5067 15.7653 32.976C15.3599 33.4347 15.1573 34.0267 15.1573 34.752C15.1573 35.4773 15.3599 36.0747 15.7653 36.544C16.1706 37.0027 16.7093 37.232 17.3813 37.232ZM33.7869 36.064C33.5415 37.152 32.9975 38.0213 32.1549 38.672C31.3122 39.3333 30.2989 39.664 29.1149 39.664C28.1655 39.664 27.3122 39.4507 26.5549 39.024C25.7975 38.608 25.2055 38.0267 24.7789 37.28C24.3522 36.5333 24.1389 35.6907 24.1389 34.752C24.1389 33.8133 24.3522 32.9707 24.7789 32.224C25.2055 31.4773 25.7975 30.896 26.5549 30.48C27.3122 30.0533 28.1655 29.84 29.1149 29.84C29.9149 29.84 30.6455 30 31.3069 30.32C31.9682 30.6293 32.5122 31.056 32.9389 31.6C33.3655 32.144 33.6322 32.7467 33.7389 33.408H30.8589C30.7415 33.0773 30.5282 32.816 30.2189 32.624C29.9202 32.4213 29.5522 32.32 29.1149 32.32C28.4535 32.32 27.9202 32.5493 27.5149 33.008C27.1202 33.456 26.9229 34.0373 26.9229 34.752C26.9229 35.4667 27.1202 36.0533 27.5149 36.512C27.9202 36.96 28.4535 37.184 29.1149 37.184C29.5522 37.184 29.9255 37.0827 30.2349 36.88C30.5549 36.6773 30.7789 36.4053 30.9069 36.064H33.7869ZM39.306 36L38.17 37.28V39.44H35.322V26H38.17V33.888L41.482 30.064H44.65L41.05 34.064L44.842 39.44H41.594L39.306 36ZM48.4419 35.12H46.4579L45.7219 26.4H49.1779L48.4419 35.12ZM47.4499 36.288C47.9405 36.288 48.3459 36.448 48.6659 36.768C48.9859 37.088 49.1459 37.4933 49.1459 37.984C49.1459 38.4747 48.9859 38.8747 48.6659 39.184C48.3459 39.504 47.9405 39.664 47.4499 39.664C46.9592 39.664 46.5539 39.504 46.2339 39.184C45.9139 38.8747 45.7539 38.4747 45.7539 37.984C45.7539 37.4933 45.9139 37.088 46.2339 36.768C46.5539 36.448 46.9592 36.288 47.4499 36.288Z" fill="#ABCEF2"/>
</svg>
