<svg width="172" height="165" viewBox="0 0 172 165" fill="none" xmlns="http://www.w3.org/2000/svg">
<path d="M84.8391 160.411L86.0699 161.915L87.2131 160.343C87.8234 159.504 88.5416 158.524 89.3524 157.418C95.1989 149.441 105.858 134.898 115.544 119.261C121.06 110.357 126.281 101.066 130.128 92.4005C133.958 83.7733 136.5 75.606 136.5 69C136.5 50.9938 129.727 38.3108 119.941 30.1554C110.198 22.0367 97.5876 18.5 86 18.5C74.4124 18.5 61.8016 22.0367 52.0591 30.1554C42.2725 38.3108 35.5 50.9938 35.5 69C35.5 75.29 37.9627 83.2997 41.6909 91.8605C45.4377 100.464 50.5392 109.793 55.9764 118.776C66.849 136.739 79.1397 153.445 84.8391 160.411Z" fill="url(#paint0_radial_1794_2341)" stroke="#97C1FF" stroke-width="3"/>
<g filter="url(#filter0_d_1794_2341)">
<path d="M56.1993 59.5037L56.8041 59.3785L56.9629 58.7816C58.6149 52.5739 64.2814 48 71.0158 48C78.6301 48 84.8769 53.8466 85.5036 61.2881L85.5709 62.0861L86.3643 62.1949C90.6959 62.7889 94.0316 66.5019 94.0316 70.9901C94.0316 75.8925 90.0529 79.8684 85.1427 79.8684H71.7221H58.3015C52.6112 79.8684 48 75.2607 48 69.5789C48 64.6173 51.5172 60.4729 56.1993 59.5037Z" fill="url(#paint1_linear_1794_2341)" stroke="white" stroke-width="2"/>
<path d="M72.822 65.878L73.4269 65.753L73.5859 65.1563C75.8411 56.6975 83.577 50.4629 92.7737 50.4629C103.172 50.4629 111.7 58.4318 112.555 68.5719L112.623 69.37L113.416 69.4786C119.397 70.2972 124 75.4129 124 81.5951C124 88.3473 118.509 93.8261 111.73 93.8261H93.7215H75.7127C67.8866 93.8261 61.5474 87.5011 61.5474 79.705C61.5474 72.8964 66.3829 67.2084 72.822 65.878Z" fill="url(#paint2_linear_1794_2341)" stroke="white" stroke-width="2"/>
</g>
<defs>
<filter id="filter0_d_1794_2341" x="0.297871" y="0.297871" width="171.404" height="141.23" filterUnits="userSpaceOnUse" color-interpolation-filters="sRGB">
<feFlood flood-opacity="0" result="BackgroundImageFix"/>
<feColorMatrix in="SourceAlpha" type="matrix" values="0 0 0 0 0 0 0 0 0 0 0 0 0 0 0 0 0 0 127 0" result="hardAlpha"/>
<feOffset/>
<feGaussianBlur stdDeviation="23.3511"/>
<feComposite in2="hardAlpha" operator="out"/>
<feColorMatrix type="matrix" values="0 0 0 0 0.767552 0 0 0 0 0.888425 0 0 0 0 1 0 0 0 1 0"/>
<feBlend mode="normal" in2="BackgroundImageFix" result="effect1_dropShadow_1794_2341"/>
<feBlend mode="normal" in="SourceGraphic" in2="effect1_dropShadow_1794_2341" result="shape"/>
</filter>
<radialGradient id="paint0_radial_1794_2341" cx="0" cy="0" r="1" gradientUnits="userSpaceOnUse" gradientTransform="translate(86 89.8929) rotate(90) scale(111.179 94.4414)">
<stop offset="0.389583" stop-color="white"/>
<stop offset="1" stop-color="#E1F0FF"/>
</radialGradient>
<linearGradient id="paint1_linear_1794_2341" x1="71.0158" y1="47" x2="71.0158" y2="80.8684" gradientUnits="userSpaceOnUse">
<stop stop-color="#E8F4FF"/>
<stop offset="0.463542" stop-color="#BEDFFF"/>
<stop offset="1" stop-color="#9CCFFF"/>
</linearGradient>
<linearGradient id="paint2_linear_1794_2341" x1="92.7737" y1="49.4629" x2="92.7737" y2="94.826" gradientUnits="userSpaceOnUse">
<stop stop-color="#D7EAFF"/>
<stop offset="0.520833" stop-color="#A7CBFD"/>
<stop offset="1" stop-color="#A5ACFB"/>
</linearGradient>
</defs>
</svg>
