<svg width="56" height="56" viewBox="0 0 56 56" fill="none" xmlns="http://www.w3.org/2000/svg">
<circle cx="27.6931" cy="27.6931" r="24.6931" fill="#E7EEF5" stroke="white" stroke-opacity="0.2" stroke-width="2.29703"/>
<circle cx="27.6931" cy="27.6931" r="24.6931" stroke="white" stroke-opacity="0.2" stroke-width="5.74257"/>
<path d="M16.2726 20.9549C15.8899 22.379 15.8899 24.3437 15.8899 27.3757C15.8899 31.6823 15.8899 33.8356 16.9866 35.3452C17.3408 35.8327 17.7696 36.2614 18.2571 36.6156C19.7666 37.7123 21.9199 37.7123 26.2265 37.7123H28.5236C32.8302 37.7123 34.9835 37.7123 36.493 36.6156C36.9805 36.2614 37.4093 35.8327 37.7635 35.3452C38.8602 33.8356 38.8602 31.6823 38.8602 27.3757C38.8602 24.3336 38.8602 22.3659 38.4736 20.9407L36.0586 23.3557C34.1839 25.2304 32.7148 26.6996 31.4143 27.6918C30.0833 28.7073 28.8283 29.304 27.3749 29.304C25.9215 29.304 24.6665 28.7073 23.3354 27.6918C22.035 26.6996 20.5659 25.2304 18.6912 23.3557L16.4456 21.1102L16.2726 20.9549Z" fill="#ABCEF2"/>
<path d="M17.0384 19.3361L17.1634 19.4395L17.6309 19.8591L19.8628 22.0909C21.7942 24.0223 23.1827 25.4083 24.3804 26.3221C25.5582 27.2208 26.4496 27.5812 27.3749 27.5812C28.3001 27.5812 29.1915 27.2208 30.3693 26.3221C31.567 25.4083 32.9556 24.0223 34.887 22.0909L37.5377 19.4403L37.6819 19.2968C37.3277 18.8093 36.9805 18.49 36.493 18.1358C34.9835 17.0391 32.8302 17.0391 28.5236 17.0391H26.2265C21.9199 17.0391 19.7666 17.0391 18.2571 18.1358C17.7696 18.49 17.3926 18.8486 17.0384 19.3361Z" fill="#ABCEF2"/>
</svg>
