<svg width="52" height="42" viewBox="0 0 52 42" fill="none" xmlns="http://www.w3.org/2000/svg">
<path d="M19.0611 18.0451L19.5019 17.4383L19.0611 18.0451ZM17.9549 16.9389L18.5617 16.4981L17.9549 16.9389ZM34.0451 16.9389L33.4383 16.4981L34.0451 16.9389ZM32.9389 18.0451L32.4981 17.4383L32.9389 18.0451ZM32.9389 1.95491L32.4981 2.56168L32.9389 1.95491ZM34.0451 3.06107L33.4383 3.50191L34.0451 3.06107ZM19.0611 1.95491L19.5019 2.56168L19.0611 1.95491ZM17.9549 3.06107L18.5617 3.50191L17.9549 3.06107ZM21.7197 13.2197C21.4268 13.5126 21.4268 13.9874 21.7197 14.2803C22.0126 14.5732 22.4874 14.5732 22.7803 14.2803L21.7197 13.2197ZM29.8514 7.20926C30.1443 6.91637 30.1443 6.4415 29.8514 6.1486C29.5585 5.85571 29.0836 5.85571 28.7907 6.1486L29.8514 7.20926ZM28.7906 14.2803C29.0835 14.5732 29.5584 14.5732 29.8513 14.2803C30.1441 13.9874 30.1441 13.5126 29.8513 13.2197L28.7906 14.2803ZM22.7802 6.1486C22.4873 5.85571 22.0124 5.85571 21.7195 6.1486C21.4266 6.4415 21.4266 6.91637 21.7195 7.20926L22.7802 6.1486ZM31 10.75C31.4142 10.75 31.75 10.4142 31.75 10C31.75 9.58579 31.4142 9.25 31 9.25V10.75ZM21 9.25C20.5858 9.25 20.25 9.58579 20.25 10C20.25 10.4142 20.5858 10.75 21 10.75V9.25ZM25.25 15C25.25 15.4142 25.5858 15.75 26 15.75C26.4142 15.75 26.75 15.4142 26.75 15H25.25ZM26.75 5C26.75 4.58579 26.4142 4.25 26 4.25C25.5858 4.25 25.25 4.58579 25.25 5H26.75ZM26 18.25C24.1084 18.25 22.75 18.249 21.698 18.135C20.6601 18.0225 20.0099 17.8074 19.5019 17.4383L18.6202 18.6518C19.4266 19.2377 20.3709 19.5 21.5365 19.6263C22.688 19.751 24.1418 19.75 26 19.75V18.25ZM16.25 10C16.25 11.8582 16.249 13.312 16.3737 14.4635C16.5 15.6291 16.7623 16.5734 17.3482 17.3798L18.5617 16.4981C18.1926 15.9901 17.9775 15.3399 17.865 14.302C17.751 13.25 17.75 11.8916 17.75 10H16.25ZM19.5019 17.4383C19.1411 17.1762 18.8238 16.8589 18.5617 16.4981L17.3482 17.3798C17.7028 17.8679 18.1321 18.2972 18.6202 18.6518L19.5019 17.4383ZM34.25 10C34.25 11.8916 34.249 13.25 34.135 14.302C34.0225 15.3399 33.8074 15.9901 33.4383 16.4981L34.6518 17.3798C35.2377 16.5734 35.5 15.6291 35.6263 14.4635C35.751 13.312 35.75 11.8582 35.75 10H34.25ZM26 19.75C27.8582 19.75 29.312 19.751 30.4635 19.6263C31.6291 19.5 32.5734 19.2377 33.3798 18.6518L32.4981 17.4383C31.9901 17.8074 31.3399 18.0225 30.302 18.135C29.25 18.249 27.8916 18.25 26 18.25V19.75ZM33.4383 16.4981C33.1762 16.8589 32.8589 17.1762 32.4981 17.4383L33.3798 18.6518C33.8679 18.2972 34.2972 17.8679 34.6518 17.3798L33.4383 16.4981ZM26 1.75C27.8916 1.75 29.25 1.75103 30.302 1.865C31.3399 1.97745 31.9901 2.19259 32.4981 2.56168L33.3798 1.34815C32.5734 0.762324 31.6291 0.500006 30.4635 0.373728C29.312 0.248971 27.8582 0.25 26 0.25V1.75ZM35.75 10C35.75 8.14184 35.751 6.68798 35.6263 5.53648C35.5 4.37094 35.2377 3.42656 34.6518 2.62023L33.4383 3.50191C33.8074 4.00992 34.0225 4.66013 34.135 5.69804C34.249 6.74999 34.25 8.10843 34.25 10H35.75ZM32.4981 2.56168C32.8589 2.82382 33.1762 3.14111 33.4383 3.50191L34.6518 2.62023C34.2972 2.13209 33.8679 1.70281 33.3798 1.34815L32.4981 2.56168ZM26 0.25C24.1418 0.25 22.688 0.248971 21.5365 0.373728C20.3709 0.500006 19.4266 0.762324 18.6202 1.34815L19.5019 2.56168C20.0099 2.19259 20.6601 1.97745 21.698 1.865C22.75 1.75103 24.1084 1.75 26 1.75V0.25ZM17.75 10C17.75 8.10843 17.751 6.74999 17.865 5.69804C17.9775 4.66013 18.1926 4.00992 18.5617 3.50191L17.3482 2.62023C16.7623 3.42656 16.5 4.37094 16.3737 5.53648C16.249 6.68798 16.25 8.14184 16.25 10H17.75ZM18.6202 1.34815C18.1321 1.70281 17.7028 2.13209 17.3482 2.62023L18.5617 3.50191C18.8238 3.14111 19.1411 2.82382 19.5019 2.56168L18.6202 1.34815ZM22.7803 14.2803L26.3158 10.7449L25.2551 9.68421L21.7197 13.2197L22.7803 14.2803ZM26.3158 10.7449L26.5303 10.5303L25.4697 9.46967L25.2551 9.68421L26.3158 10.7449ZM26.5303 10.5303L29.8514 7.20926L28.7907 6.1486L25.4697 9.46967L26.5303 10.5303ZM29.8513 13.2197L26.5303 9.89875L25.4697 10.9594L28.7906 14.2803L29.8513 13.2197ZM26.5303 9.89875L26.3158 9.68421L25.2551 10.7449L25.4697 10.9594L26.5303 9.89875ZM26.3158 9.68421L26.1013 9.46967L25.0406 10.5303L25.2551 10.7449L26.3158 9.68421ZM26.1013 9.46967L22.7802 6.1486L21.7195 7.20926L25.0406 10.5303L26.1013 9.46967ZM31 9.25H26V10.75H31V9.25ZM26 9.25H25.5709V10.75H26V9.25ZM25.5709 9.25H21V10.75H25.5709V9.25ZM26.75 15V10.4291H25.25V15H26.75ZM26.75 10.4291V10H25.25V10.4291H26.75ZM26.75 10V5H25.25V10H26.75Z" fill="#ABCEF2"/>
<path d="M1.32981 30.064H4.17781V30.96C4.46581 30.576 4.79115 30.2933 5.15381 30.112C5.52715 29.9307 5.96981 29.84 6.48181 29.84C7.06848 29.84 7.60181 29.9573 8.08181 30.192C8.56181 30.416 8.95648 30.7467 9.26581 31.184C9.61781 30.736 10.0498 30.4 10.5618 30.176C11.0738 29.952 11.6818 29.84 12.3858 29.84C13.1005 29.84 13.7298 30.0107 14.2738 30.352C14.8178 30.6827 15.2391 31.1627 15.5378 31.792C15.8365 32.4213 15.9858 33.1627 15.9858 34.016V39.44H13.1378V34.496C13.1378 33.7813 13.0045 33.2373 12.7378 32.864C12.4711 32.48 12.0765 32.288 11.5538 32.288C11.0951 32.288 10.7378 32.464 10.4818 32.816C10.2365 33.168 10.1031 33.68 10.0818 34.352V39.44H7.23381V34.496C7.23381 33.7813 7.10048 33.2373 6.83381 32.864C6.56715 32.48 6.17248 32.288 5.64981 32.288C5.19115 32.288 4.83381 32.464 4.57781 32.816C4.33248 33.168 4.19915 33.68 4.17781 34.352V39.44H1.32981V30.064ZM22.4039 29.84C23.3533 29.84 24.2066 30.0533 24.9639 30.48C25.7213 30.896 26.3133 31.4773 26.7399 32.224C27.1666 32.9707 27.3799 33.8133 27.3799 34.752C27.3799 35.6907 27.1666 36.5333 26.7399 37.28C26.3133 38.0267 25.7213 38.608 24.9639 39.024C24.2066 39.4507 23.3533 39.664 22.4039 39.664C21.4546 39.664 20.6013 39.4507 19.8439 39.024C19.0866 38.608 18.4946 38.0267 18.0679 37.28C17.6413 36.5333 17.4279 35.6907 17.4279 34.752C17.4279 33.8133 17.6413 32.9707 18.0679 32.224C18.4946 31.4773 19.0866 30.896 19.8439 30.48C20.6013 30.0533 21.4546 29.84 22.4039 29.84ZM22.4039 32.272C21.7426 32.272 21.2039 32.5067 20.7879 32.976C20.3826 33.4347 20.1799 34.0267 20.1799 34.752C20.1799 35.4773 20.3826 36.0747 20.7879 36.544C21.2039 37.0027 21.7426 37.232 22.4039 37.232C23.0653 37.232 23.5986 37.0027 24.0039 36.544C24.4199 36.0747 24.6279 35.4773 24.6279 34.752C24.6279 34.0267 24.4199 33.4347 24.0039 32.976C23.5986 32.5067 23.0653 32.272 22.4039 32.272ZM29.0486 30.064H31.8966V31.024C32.4832 30.2347 33.3579 29.84 34.5206 29.84C35.0326 29.84 35.4432 29.8933 35.7526 30L35.7846 32.672C35.3792 32.4587 34.8939 32.352 34.3286 32.352C33.5712 32.352 32.9739 32.5547 32.5366 32.96C32.1099 33.3653 31.8966 33.9253 31.8966 34.64V39.44H29.0486V30.064ZM41.1986 39.664C40.2599 39.664 39.4172 39.4507 38.6706 39.024C37.9346 38.608 37.3586 38.0267 36.9426 37.28C36.5266 36.5333 36.3186 35.6907 36.3186 34.752C36.3186 33.8133 36.5266 32.9707 36.9426 32.224C37.3586 31.4773 37.9346 30.896 38.6706 30.48C39.4172 30.0533 40.2599 29.84 41.1986 29.84C42.1372 29.84 42.9746 30.0533 43.7106 30.48C44.4572 30.896 45.0386 31.4773 45.4546 32.224C45.8706 32.9707 46.0786 33.8133 46.0786 34.752C46.0786 35.0613 46.0572 35.3653 46.0146 35.664H39.1506C39.2572 36.208 39.4919 36.6293 39.8546 36.928C40.2172 37.2267 40.6652 37.376 41.1986 37.376C41.6039 37.376 41.9612 37.312 42.2706 37.184C42.5906 37.0453 42.8092 36.864 42.9266 36.64H45.7906C45.6306 37.2373 45.3319 37.76 44.8946 38.208C44.4572 38.6667 43.9186 39.024 43.2786 39.28C42.6386 39.536 41.9452 39.664 41.1986 39.664ZM43.2946 33.824C43.1772 33.2587 42.9372 32.832 42.5746 32.544C42.2119 32.2453 41.7532 32.096 41.1986 32.096C40.6439 32.096 40.1906 32.2453 39.8386 32.544C39.4866 32.832 39.2519 33.2587 39.1346 33.824H43.2946ZM50.1997 35.12H48.2157L47.4797 26.4H50.9357L50.1997 35.12ZM49.2077 36.288C49.6984 36.288 50.1037 36.448 50.4237 36.768C50.7437 37.088 50.9037 37.4933 50.9037 37.984C50.9037 38.4747 50.7437 38.8747 50.4237 39.184C50.1037 39.504 49.6984 39.664 49.2077 39.664C48.717 39.664 48.3117 39.504 47.9917 39.184C47.6717 38.8747 47.5117 38.4747 47.5117 37.984C47.5117 37.4933 47.6717 37.088 47.9917 36.768C48.3117 36.448 48.717 36.288 49.2077 36.288Z" fill="#ABCEF2"/>
</svg>
