<svg width="25" height="25" viewBox="0 0 25 25" fill="none" xmlns="http://www.w3.org/2000/svg">
<path d="M20.2395 13.5205C20.2812 13.1872 20.3125 12.8538 20.3125 12.4997C20.3125 12.1455 20.2812 11.8122 20.2395 11.4788L22.4375 9.76009C22.6354 9.60384 22.6875 9.32259 22.5625 9.09342L20.4791 5.48926C20.3541 5.26009 20.0729 5.17676 19.8437 5.26009L17.25 6.30176C16.7083 5.88509 16.125 5.54134 15.4895 5.28092L15.0937 2.52051C15.0625 2.27051 14.8437 2.08301 14.5833 2.08301H10.4166C10.1562 2.08301 9.93745 2.27051 9.9062 2.52051L9.51037 5.28092C8.87495 5.54134 8.29162 5.89551 7.74995 6.30176L5.1562 5.26009C4.91662 5.16634 4.64579 5.26009 4.52079 5.48926L2.43745 9.09342C2.30204 9.32259 2.36454 9.60384 2.56245 9.76009L4.76037 11.4788C4.71871 11.8122 4.68745 12.1559 4.68745 12.4997C4.68745 12.8434 4.71871 13.1872 4.76037 13.5205L2.56245 15.2393C2.36454 15.3955 2.31245 15.6768 2.43745 15.9059L4.52079 19.5101C4.64579 19.7393 4.92704 19.8226 5.1562 19.7393L7.74995 18.6976C8.29162 19.1143 8.87495 19.458 9.51037 19.7184L9.9062 22.4788C9.93745 22.7288 10.1562 22.9163 10.4166 22.9163H14.5833C14.8437 22.9163 15.0625 22.7288 15.0937 22.4788L15.4895 19.7184C16.125 19.458 16.7083 19.1038 17.25 18.6976L19.8437 19.7393C20.0833 19.833 20.3541 19.7393 20.4791 19.5101L22.5625 15.9059C22.6875 15.6768 22.6354 15.3955 22.4375 15.2393L20.2395 13.5205ZM12.5 16.1455C10.4895 16.1455 8.85412 14.5101 8.85412 12.4997C8.85412 10.4893 10.4895 8.85384 12.5 8.85384C14.5104 8.85384 16.1458 10.4893 16.1458 12.4997C16.1458 14.5101 14.5104 16.1455 12.5 16.1455Z" fill="#2B2B2B"/>
</svg>
