<svg width="328" height="438" viewBox="0 0 328 438" fill="none" xmlns="http://www.w3.org/2000/svg">
<g filter="url(#filter0_d_861_1806)">
<g clip-path="url(#clip0_861_1806)">
<rect x="4" width="320" height="430" rx="16" fill="url(#paint0_linear_861_1806)"/>
<g filter="url(#filter1_f_861_1806)">
<ellipse cx="87.5" cy="361.5" rx="100.5" ry="37" fill="white"/>
</g>
<path d="M33.3564 352.673C32.955 353.336 32.4184 353.877 31.7464 354.297C31.0837 354.717 30.3184 354.974 29.4504 355.067V353.807C30.393 353.667 31.149 353.266 31.7184 352.603C32.297 351.931 32.6284 351.124 32.7124 350.181H29.6884V348.921H32.7124V347.339H34.1264V348.921H37.1224V350.181H34.1264C34.0797 350.685 33.991 351.142 33.8604 351.553L37.5704 354.003L36.8004 355.053L33.3564 352.673ZM40.3984 347.493V359.449H39.0124V347.493H40.3984ZM34.0984 357.461C35.9277 357.461 37.2344 357.288 38.0184 356.943V358.231C37.197 358.567 35.895 358.735 34.1124 358.735H29.2124V357.461H32.6144V354.899H33.9864V357.461H34.0984ZM52.3812 349.215H43.4072V347.913H53.8232V355.809H52.3812V349.215ZM54.6212 357.573V358.875H42.6792V357.573H47.1312V352.239H48.5592V357.573H54.6212ZM68.088 357.601V358.875H56.146V357.601H61.382V355.347H56.944V351.035H65.932V349.159H56.944V347.927H67.304V352.225H58.33V354.115H67.486V355.347H62.796V357.601H68.088ZM81.8526 349.579H73.6206V348.501H77.0366V347.283H78.4366V348.501H81.8526V349.579ZM84.6946 347.493V354.619H83.3086V347.493H84.6946ZM77.7366 354.521C77.0739 354.521 76.4719 354.437 75.9306 354.269C75.3986 354.092 74.9739 353.844 74.6566 353.527C74.3486 353.2 74.1946 352.818 74.1946 352.379C74.1946 351.931 74.3486 351.548 74.6566 351.231C74.9739 350.904 75.3986 350.657 75.9306 350.489C76.4719 350.321 77.0739 350.237 77.7366 350.237C78.3993 350.237 78.9966 350.321 79.5286 350.489C80.0606 350.657 80.4806 350.904 80.7886 351.231C81.1059 351.548 81.2646 351.931 81.2646 352.379C81.2646 352.818 81.1059 353.2 80.7886 353.527C80.4806 353.844 80.0606 354.092 79.5286 354.269C78.9966 354.437 78.3993 354.521 77.7366 354.521ZM77.7366 351.273C77.0739 351.273 76.5373 351.38 76.1266 351.595C75.7253 351.8 75.5246 352.062 75.5246 352.379C75.5246 352.696 75.7253 352.962 76.1266 353.177C76.5373 353.382 77.0739 353.485 77.7366 353.485C78.3993 353.485 78.9313 353.382 79.3326 353.177C79.7433 352.962 79.9486 352.696 79.9486 352.379C79.9486 352.062 79.7433 351.8 79.3326 351.595C78.9313 351.38 78.3993 351.273 77.7366 351.273ZM74.5586 355.277H84.6946V359.295H74.5586V355.277ZM75.9306 358.189H83.3226V356.383H75.9306V358.189ZM87.8574 347.633H98.0914V348.795H89.2574V351.245H98.2314V352.393H87.8574V347.633ZM87.0034 353.681H98.9454V354.857H87.0034V353.681ZM87.8294 355.809H89.2434V358.119H98.3294V359.309H87.8294V355.809ZM109.238 349.383H112.416V350.615H104.66V349.383H107.824V347.465H109.238V349.383ZM116.896 353.667H115.216V359.449H113.83V347.493H115.216V352.337H116.896V353.667ZM108.538 351.567C109.182 351.567 109.756 351.721 110.26 352.029C110.764 352.328 111.156 352.757 111.436 353.317C111.716 353.868 111.856 354.502 111.856 355.221C111.856 355.94 111.716 356.579 111.436 357.139C111.156 357.69 110.764 358.114 110.26 358.413C109.756 358.721 109.182 358.875 108.538 358.875C107.894 358.875 107.32 358.721 106.816 358.413C106.312 358.114 105.915 357.69 105.626 357.139C105.346 356.579 105.206 355.94 105.206 355.221C105.206 354.502 105.346 353.868 105.626 353.317C105.915 352.757 106.312 352.328 106.816 352.029C107.32 351.721 107.894 351.567 108.538 351.567ZM108.538 357.671C108.911 357.671 109.247 357.573 109.546 357.377C109.845 357.181 110.078 356.896 110.246 356.523C110.423 356.15 110.512 355.716 110.512 355.221C110.512 354.726 110.423 354.292 110.246 353.919C110.078 353.546 109.845 353.261 109.546 353.065C109.247 352.869 108.911 352.771 108.538 352.771C107.959 352.771 107.483 352.995 107.11 353.443C106.737 353.882 106.55 354.474 106.55 355.221C106.55 355.968 106.737 356.565 107.11 357.013C107.483 357.452 107.959 357.671 108.538 357.671ZM129.159 354.255H118.701V350.461H127.605V349.061H118.701V347.843H128.977V351.637H120.073V353.037H129.159V354.255ZM129.803 356.929H124.539V359.729H123.111V356.929H117.861V355.669H129.803V356.929ZM45.47 363.493V375.449H44.084V363.493H45.47ZM39.422 365.201C39.4127 366.526 39.2867 367.786 39.044 368.981L42.95 373.811L41.858 374.637L38.638 370.535C38.2273 371.786 37.672 372.775 36.972 373.503C36.2813 374.222 35.4833 374.632 34.578 374.735V373.363C35.278 373.232 35.88 372.803 36.384 372.075C36.8973 371.347 37.294 370.39 37.574 369.205C37.854 368.02 38.0033 366.685 38.022 365.201H34.858V363.927H42.488V365.201H39.422ZM52.9028 366.629C52.8655 367.6 52.7535 368.5 52.5668 369.331L56.4168 373.825L55.4088 374.721L52.1468 370.829C51.7268 371.986 51.1621 372.901 50.4528 373.573C49.7435 374.245 48.9361 374.632 48.0308 374.735V373.377C48.6935 373.256 49.2768 372.892 49.7808 372.285C50.2848 371.678 50.6815 370.89 50.9708 369.919C51.2695 368.939 51.4468 367.842 51.5028 366.629H48.2408V365.341H51.5028V363.381H52.9168V365.341H56.0248V366.629H52.9028ZM58.9368 363.493V375.449H57.5508V363.493H58.9368ZM70.9476 365.215H61.9736V363.913H72.3896V371.809H70.9476V365.215ZM73.1876 373.573V374.875H61.2456V373.573H65.6976V368.239H67.1256V373.573H73.1876ZM84.6002 369.989C83.5362 369.989 82.6029 369.863 81.8002 369.611C80.9975 369.35 80.3769 368.981 79.9382 368.505C79.4995 368.02 79.2802 367.45 79.2802 366.797C79.2802 366.144 79.4995 365.579 79.9382 365.103C80.3769 364.618 80.9975 364.249 81.8002 363.997C82.6029 363.736 83.5362 363.605 84.6002 363.605C85.6642 363.605 86.5975 363.736 87.4002 363.997C88.2029 364.249 88.8235 364.618 89.2622 365.103C89.7009 365.579 89.9202 366.144 89.9202 366.797C89.9202 367.45 89.7009 368.02 89.2622 368.505C88.8235 368.981 88.2029 369.35 87.4002 369.611C86.5975 369.863 85.6642 369.989 84.6002 369.989ZM84.6002 364.851C83.4429 364.851 82.5049 365.024 81.7862 365.369C81.0769 365.714 80.7222 366.19 80.7222 366.797C80.7222 367.404 81.0769 367.88 81.7862 368.225C82.5049 368.57 83.4429 368.743 84.6002 368.743C85.7575 368.743 86.6909 368.57 87.4002 368.225C88.1189 367.88 88.4782 367.404 88.4782 366.797C88.4782 366.19 88.1189 365.714 87.4002 365.369C86.6909 365.024 85.7575 364.851 84.6002 364.851ZM90.5782 372.383H85.3002V375.729H83.8862V372.383H78.6362V371.095H90.5782V372.383ZM98.067 367.805C96.499 367.805 95.2297 367.632 94.259 367.287C93.2977 366.932 92.817 366.377 92.817 365.621C92.817 364.874 93.2977 364.328 94.259 363.983C95.2297 363.628 96.499 363.451 98.067 363.451C99.635 363.451 100.9 363.628 101.861 363.983C102.832 364.328 103.317 364.874 103.317 365.621C103.317 366.377 102.832 366.932 101.861 367.287C100.9 367.632 99.635 367.805 98.067 367.805ZM98.067 364.501C96.947 364.501 96.0277 364.594 95.309 364.781C94.5997 364.968 94.245 365.248 94.245 365.621C94.245 365.994 94.5997 366.274 95.309 366.461C96.0183 366.648 96.9377 366.741 98.067 366.741C99.1963 366.741 100.116 366.648 100.825 366.461C101.534 366.274 101.889 365.994 101.889 365.621C101.889 365.248 101.53 364.968 100.811 364.781C100.102 364.594 99.187 364.501 98.067 364.501ZM98.753 369.499V370.577H103.219V373.433H94.287V374.273H103.429V375.309H92.929V372.453H101.861V371.613H92.901V370.577H97.381V369.499H92.103V368.421H104.045V369.499H98.753ZM109.182 365.355H111.688V366.601H105.304V365.355H107.81V363.465H109.182V365.355ZM117.064 363.493V375.449H115.776V369.611H113.858V375.239H112.57V363.563H113.858V368.309H115.776V363.493H117.064ZM108.552 367.539C109.093 367.539 109.574 367.684 109.994 367.973C110.414 368.253 110.74 368.668 110.974 369.219C111.216 369.77 111.338 370.432 111.338 371.207C111.338 371.982 111.216 372.644 110.974 373.195C110.74 373.746 110.414 374.161 109.994 374.441C109.574 374.73 109.093 374.875 108.552 374.875C108.01 374.875 107.53 374.73 107.11 374.441C106.699 374.161 106.372 373.746 106.13 373.195C105.896 372.644 105.78 371.982 105.78 371.207C105.78 370.432 105.896 369.77 106.13 369.219C106.372 368.668 106.699 368.253 107.11 367.973C107.53 367.684 108.01 367.539 108.552 367.539ZM108.552 373.657C109 373.657 109.364 373.442 109.644 373.013C109.924 372.574 110.064 371.972 110.064 371.207C110.064 370.442 109.924 369.844 109.644 369.415C109.364 368.976 109 368.757 108.552 368.757C108.113 368.757 107.754 368.976 107.474 369.415C107.203 369.844 107.068 370.442 107.068 371.207C107.068 371.972 107.203 372.574 107.474 373.013C107.754 373.442 108.113 373.657 108.552 373.657ZM120.073 375.337C119.793 375.337 119.555 375.239 119.359 375.043C119.172 374.856 119.079 374.623 119.079 374.343C119.079 374.063 119.172 373.83 119.359 373.643C119.555 373.447 119.793 373.349 120.073 373.349C120.353 373.349 120.586 373.447 120.773 373.643C120.959 373.83 121.053 374.063 121.053 374.343C121.053 374.623 120.959 374.856 120.773 375.043C120.586 375.239 120.353 375.337 120.073 375.337ZM123.668 375.337C123.388 375.337 123.15 375.239 122.954 375.043C122.768 374.856 122.674 374.623 122.674 374.343C122.674 374.063 122.768 373.83 122.954 373.643C123.15 373.447 123.388 373.349 123.668 373.349C123.948 373.349 124.182 373.447 124.368 373.643C124.555 373.83 124.648 374.063 124.648 374.343C124.648 374.623 124.555 374.856 124.368 375.043C124.182 375.239 123.948 375.337 123.668 375.337Z" fill="black"/>
<g filter="url(#filter2_b_861_1806)">
<g filter="url(#filter3_i_861_1806)">
<path d="M311.817 387.537C312.287 384.923 312.533 382.234 312.533 379.49C312.533 353.814 291.079 333 264.614 333C244.939 333 228.034 344.503 220.654 360.955C214.676 355.948 206.918 352.924 198.44 352.924C179.536 352.924 164.212 367.957 164.212 386.5C164.212 387.533 164.259 388.554 164.352 389.563C155.26 393.884 149 402.95 149 413.435C149 428.106 161.259 440 176.382 440H305.687C320.81 440 333.069 428.106 333.069 413.435C333.069 400.807 323.989 390.238 311.817 387.537Z" fill="url(#paint1_linear_861_1806)"/>
</g>
</g>
<g filter="url(#filter4_b_861_1806)">
<g filter="url(#filter5_i_861_1806)">
<path d="M147.449 233.544C147.903 230.93 148.14 228.24 148.14 225.496C148.14 199.817 127.394 179 101.802 179C82.776 179 66.4283 190.505 59.2918 206.959C53.5103 201.951 46.0082 198.927 37.8099 198.927C19.5298 198.927 4.71074 213.961 4.71074 232.507C4.71074 233.539 4.7567 234.561 4.84663 235.57C-3.9458 239.891 -10 248.959 -10 259.445C-10 274.118 1.85521 286.014 16.4793 286.014H141.521C156.145 286.014 168 274.118 168 259.445C168 246.816 159.219 236.245 147.449 233.544Z" fill="url(#paint2_linear_861_1806)"/>
</g>
</g>
<g filter="url(#filter6_f_861_1806)">
<ellipse cx="236.5" cy="210" rx="100.5" ry="37" fill="white"/>
</g>
<path d="M189.921 206.073V207.375H177.979V206.073H183.229V203.525C182.286 203.46 181.46 203.268 180.751 202.951C180.051 202.634 179.51 202.214 179.127 201.691C178.744 201.159 178.553 200.557 178.553 199.885C178.553 199.157 178.777 198.518 179.225 197.967C179.673 197.407 180.303 196.973 181.115 196.665C181.927 196.357 182.87 196.203 183.943 196.203C185.016 196.203 185.959 196.357 186.771 196.665C187.583 196.973 188.213 197.407 188.661 197.967C189.109 198.518 189.333 199.157 189.333 199.885C189.333 200.557 189.142 201.159 188.759 201.691C188.376 202.214 187.83 202.634 187.121 202.951C186.412 203.268 185.586 203.46 184.643 203.525V206.073H189.921ZM180.023 199.885C180.023 200.361 180.186 200.781 180.513 201.145C180.84 201.509 181.297 201.794 181.885 201.999C182.482 202.195 183.168 202.293 183.943 202.293C184.727 202.293 185.413 202.195 186.001 201.999C186.598 201.794 187.06 201.509 187.387 201.145C187.714 200.781 187.877 200.361 187.877 199.885C187.877 199.409 187.714 198.989 187.387 198.625C187.06 198.252 186.598 197.967 186.001 197.771C185.413 197.566 184.727 197.463 183.943 197.463C183.168 197.463 182.482 197.566 181.885 197.771C181.297 197.967 180.84 198.252 180.513 198.625C180.186 198.989 180.023 199.409 180.023 199.885ZM192.3 195.993H193.686V198.835H202.674V199.927H192.3V195.993ZM191.446 200.907H203.388V201.999H191.446V200.907ZM192.272 204.897H201.204V204.029H192.244V202.979H202.562V205.891H193.63V206.759H202.772V207.809H192.272V204.897ZM213.68 197.883H216.858V199.115H209.102V197.883H212.266V195.965H213.68V197.883ZM221.338 202.167H219.658V207.949H218.272V195.993H219.658V200.837H221.338V202.167ZM212.98 200.067C213.624 200.067 214.198 200.221 214.702 200.529C215.206 200.828 215.598 201.257 215.878 201.817C216.158 202.368 216.298 203.002 216.298 203.721C216.298 204.44 216.158 205.079 215.878 205.639C215.598 206.19 215.206 206.614 214.702 206.913C214.198 207.221 213.624 207.375 212.98 207.375C212.336 207.375 211.762 207.221 211.258 206.913C210.754 206.614 210.358 206.19 210.068 205.639C209.788 205.079 209.648 204.44 209.648 203.721C209.648 203.002 209.788 202.368 210.068 201.817C210.358 201.257 210.754 200.828 211.258 200.529C211.762 200.221 212.336 200.067 212.98 200.067ZM212.98 206.171C213.354 206.171 213.69 206.073 213.988 205.877C214.287 205.681 214.52 205.396 214.688 205.023C214.866 204.65 214.954 204.216 214.954 203.721C214.954 203.226 214.866 202.792 214.688 202.419C214.52 202.046 214.287 201.761 213.988 201.565C213.69 201.369 213.354 201.271 212.98 201.271C212.402 201.271 211.926 201.495 211.552 201.943C211.179 202.382 210.992 202.974 210.992 203.721C210.992 204.468 211.179 205.065 211.552 205.513C211.926 205.952 212.402 206.171 212.98 206.171ZM233.601 202.755H223.143V198.961H232.047V197.561H223.143V196.343H233.419V200.137H224.515V201.537H233.601V202.755ZM234.245 205.429H228.981V208.229H227.553V205.429H222.303V204.169H234.245V205.429ZM247.712 206.087V207.375H235.77V206.087H241.02V203.189H236.554V196.427H246.928V197.715H237.968V201.901H247.068V203.189H242.434V206.087H247.712ZM264.263 202.139H253.987V196.343H264.263V202.139ZM262.877 197.631H255.373V200.865H262.877V197.631ZM265.103 204.897H259.839V208.229H258.411V204.897H253.161V203.581H265.103V204.897ZM279.129 202.167H277.449V207.949H276.063V195.993H277.449V200.837H279.129V202.167ZM271.793 196.343C271.775 198.238 271.616 199.894 271.317 201.313L275.083 206.409L273.963 207.207L270.883 202.937C270.454 204.253 269.885 205.284 269.175 206.031C268.466 206.768 267.649 207.17 266.725 207.235V205.835C267.5 205.714 268.158 205.219 268.699 204.351C269.25 203.483 269.665 202.349 269.945 200.949C270.225 199.549 270.37 197.995 270.379 196.287L271.793 196.343ZM285.12 197.855H288.354V199.115H280.486V197.855H283.706V195.951H285.12V197.855ZM291.252 195.993V207.949H289.866V195.993H291.252ZM284.42 200.067C285.064 200.067 285.643 200.221 286.156 200.529C286.67 200.837 287.066 201.271 287.346 201.831C287.636 202.382 287.78 203.012 287.78 203.721C287.78 204.43 287.636 205.065 287.346 205.625C287.066 206.176 286.67 206.605 286.156 206.913C285.643 207.221 285.064 207.375 284.42 207.375C283.767 207.375 283.184 207.221 282.67 206.913C282.166 206.605 281.77 206.176 281.48 205.625C281.191 205.065 281.046 204.43 281.046 203.721C281.046 203.012 281.191 202.382 281.48 201.831C281.77 201.271 282.166 200.837 282.67 200.529C283.184 200.221 283.767 200.067 284.42 200.067ZM284.42 206.157C284.794 206.157 285.134 206.059 285.442 205.863C285.75 205.658 285.993 205.373 286.17 205.009C286.348 204.636 286.436 204.206 286.436 203.721C286.436 203.236 286.348 202.811 286.17 202.447C285.993 202.074 285.75 201.789 285.442 201.593C285.144 201.388 284.803 201.285 284.42 201.285C284.038 201.285 283.692 201.388 283.384 201.593C283.076 201.789 282.834 202.074 282.656 202.447C282.479 202.811 282.39 203.236 282.39 203.721C282.39 204.206 282.479 204.636 282.656 205.009C282.834 205.373 283.076 205.658 283.384 205.863C283.692 206.059 284.038 206.157 284.42 206.157ZM192.512 215.381C191.84 216.296 191.014 217.014 190.034 217.537C189.064 218.06 188.037 218.326 186.954 218.335V217.019C187.794 217.019 188.606 216.795 189.39 216.347C190.184 215.89 190.856 215.269 191.406 214.485C191.957 213.701 192.316 212.842 192.484 211.909L193.912 212.133C193.772 212.898 193.53 213.626 193.184 214.317L198.308 217.159L197.664 218.321L192.512 215.381ZM198.616 220.883H193.338V224.229H191.924V220.883H186.674V219.595H198.616V220.883ZM209.843 213.715H200.869V212.413H211.285V220.309H209.843V213.715ZM212.083 222.073V223.375H200.141V222.073H204.593V216.739H206.021V222.073H212.083ZM219.754 214.233H213.398V213.141H215.932V211.825H217.318V213.141H219.754V214.233ZM221.924 219.329H220.636V212.063H221.924V214.821H223.814V211.993H225.102V219.483H223.814V216.095H221.924V219.329ZM216.646 219.273C215.834 219.273 215.162 219.072 214.63 218.671C214.098 218.27 213.832 217.728 213.832 217.047C213.832 216.366 214.098 215.824 214.63 215.423C215.162 215.022 215.834 214.821 216.646 214.821C217.458 214.821 218.13 215.022 218.662 215.423C219.194 215.824 219.46 216.366 219.46 217.047C219.46 217.728 219.194 218.27 218.662 218.671C218.13 219.072 217.458 219.273 216.646 219.273ZM216.646 215.843C216.179 215.843 215.801 215.96 215.512 216.193C215.223 216.417 215.078 216.702 215.078 217.047C215.078 217.392 215.223 217.682 215.512 217.915C215.801 218.139 216.179 218.251 216.646 218.251C217.113 218.251 217.491 218.139 217.78 217.915C218.069 217.682 218.214 217.392 218.214 217.047C218.214 216.702 218.069 216.417 217.78 216.193C217.491 215.96 217.113 215.843 216.646 215.843ZM225.214 223.865L222.638 222.241C222.255 222.689 221.793 223.048 221.252 223.319C220.72 223.599 220.165 223.758 219.586 223.795L217.388 222.297C216.996 222.726 216.534 223.072 216.002 223.333C215.47 223.604 214.919 223.758 214.35 223.795V222.577C214.779 222.54 215.204 222.386 215.624 222.115C216.053 221.844 216.408 221.499 216.688 221.079C216.977 220.659 217.145 220.22 217.192 219.763L218.508 219.945C218.433 220.468 218.279 220.944 218.046 221.373L219.866 222.535C220.267 222.451 220.65 222.274 221.014 222.003C221.387 221.723 221.695 221.387 221.938 220.995C222.181 220.603 222.325 220.192 222.372 219.763L223.702 219.945C223.637 220.421 223.497 220.869 223.282 221.289L225.886 222.815L225.214 223.865ZM238.331 211.993V223.949H236.945V218.251H234.649C234.593 219.95 234.243 221.233 233.599 222.101C232.964 222.96 232.129 223.389 231.093 223.389C230.001 223.389 229.133 222.922 228.489 221.989C227.845 221.056 227.523 219.67 227.523 217.831C227.523 215.992 227.845 214.606 228.489 213.673C229.133 212.74 230.001 212.273 231.093 212.273C232.091 212.273 232.903 212.665 233.529 213.449C234.154 214.233 234.518 215.4 234.621 216.949H236.945V211.993H238.331ZM231.093 222.115C231.746 222.115 232.269 221.765 232.661 221.065C233.062 220.356 233.263 219.278 233.263 217.831C233.263 216.384 233.062 215.311 232.661 214.611C232.269 213.902 231.746 213.547 231.093 213.547C230.43 213.547 229.898 213.902 229.497 214.611C229.105 215.311 228.909 216.384 228.909 217.831C228.909 219.278 229.105 220.356 229.497 221.065C229.898 221.765 230.43 222.115 231.093 222.115ZM256.407 222.073V223.375H244.465V222.073H249.715V219.525C248.773 219.46 247.947 219.268 247.237 218.951C246.537 218.634 245.996 218.214 245.613 217.691C245.231 217.159 245.039 216.557 245.039 215.885C245.039 215.157 245.263 214.518 245.711 213.967C246.159 213.407 246.789 212.973 247.601 212.665C248.413 212.357 249.356 212.203 250.429 212.203C251.503 212.203 252.445 212.357 253.257 212.665C254.069 212.973 254.699 213.407 255.147 213.967C255.595 214.518 255.819 215.157 255.819 215.885C255.819 216.557 255.628 217.159 255.245 217.691C254.863 218.214 254.317 218.634 253.607 218.951C252.898 219.268 252.072 219.46 251.129 219.525V222.073H256.407ZM246.509 215.885C246.509 216.361 246.673 216.781 246.999 217.145C247.326 217.509 247.783 217.794 248.371 217.999C248.969 218.195 249.655 218.293 250.429 218.293C251.213 218.293 251.899 218.195 252.487 217.999C253.085 217.794 253.547 217.509 253.873 217.145C254.2 216.781 254.363 216.361 254.363 215.885C254.363 215.409 254.2 214.989 253.873 214.625C253.547 214.252 253.085 213.967 252.487 213.771C251.899 213.566 251.213 213.463 250.429 213.463C249.655 213.463 248.969 213.566 248.371 213.771C247.783 213.967 247.326 214.252 246.999 214.625C246.673 214.989 246.509 215.409 246.509 215.885ZM258.786 211.993H260.172V214.835H269.16V215.927H258.786V211.993ZM257.932 216.907H269.874V217.999H257.932V216.907ZM258.758 220.897H267.69V220.029H258.73V218.979H269.048V221.891H260.116V222.759H269.258V223.809H258.758V220.897ZM283.341 222.087V223.375H271.399V222.087H276.649V219.189H272.183V212.427H282.557V213.715H273.597V217.901H282.697V219.189H278.063V222.087H283.341Z" fill="black"/>
<g filter="url(#filter7_f_861_1806)">
<ellipse cx="104.5" cy="79" rx="100.5" ry="37" fill="white"/>
</g>
<path d="M50.5968 80.2187V81.5207H38.6548V80.2187H43.9048V77.6707C42.9621 77.6053 42.1361 77.414 41.4268 77.0967C40.7268 76.7793 40.1854 76.3593 39.8028 75.8367C39.4201 75.3047 39.2288 74.7027 39.2288 74.0307C39.2288 73.3027 39.4528 72.6633 39.9008 72.1127C40.3488 71.5527 40.9788 71.1187 41.7908 70.8107C42.6028 70.5027 43.5454 70.3487 44.6188 70.3487C45.6921 70.3487 46.6348 70.5027 47.4468 70.8107C48.2588 71.1187 48.8888 71.5527 49.3368 72.1127C49.7848 72.6633 50.0088 73.3027 50.0088 74.0307C50.0088 74.7027 49.8174 75.3047 49.4348 75.8367C49.0521 76.3593 48.5061 76.7793 47.7968 77.0967C47.0874 77.414 46.2614 77.6053 45.3188 77.6707V80.2187H50.5968ZM40.6988 74.0307C40.6988 74.5067 40.8621 74.9267 41.1888 75.2907C41.5154 75.6547 41.9728 75.9393 42.5608 76.1447C43.1581 76.3407 43.8441 76.4387 44.6188 76.4387C45.4028 76.4387 46.0888 76.3407 46.6768 76.1447C47.2741 75.9393 47.7361 75.6547 48.0628 75.2907C48.3894 74.9267 48.5528 74.5067 48.5528 74.0307C48.5528 73.5547 48.3894 73.1347 48.0628 72.7707C47.7361 72.3973 47.2741 72.1127 46.6768 71.9167C46.0888 71.7113 45.4028 71.6087 44.6188 71.6087C43.8441 71.6087 43.1581 71.7113 42.5608 71.9167C41.9728 72.1127 41.5154 72.3973 41.1888 72.7707C40.8621 73.1347 40.6988 73.5547 40.6988 74.0307ZM52.9756 70.1387H54.3616V72.9807H63.3496V74.0727H52.9756V70.1387ZM52.1216 75.0527H64.0636V76.1447H52.1216V75.0527ZM52.9476 79.0427H61.8796V78.1747H52.9196V77.1247H63.2376V80.0367H54.3056V80.9047H63.4476V81.9547H52.9476V79.0427ZM79.2842 70.1387H80.6702V82.0947H79.2842V70.1387ZM70.0722 80.0367C71.1455 80.0367 72.0742 79.7707 72.8582 79.2387C73.6515 78.6973 74.2535 77.9367 74.6642 76.9567C75.0842 75.9673 75.2942 74.81 75.2942 73.4847V71.8467H70.0722V70.5727H76.7082V73.4567C76.7082 75.0433 76.4375 76.434 75.8962 77.6287C75.3642 78.814 74.5942 79.7333 73.5862 80.3867C72.5875 81.0307 71.4162 81.3527 70.0722 81.3527V80.0367ZM94.053 75.3047H83.833V70.2087H85.205V71.6507H92.695V70.2087H94.053V75.3047ZM92.695 74.1987V72.7147H85.205V74.1987H92.695ZM94.921 76.4807V77.6567H89.643V79.5187H88.243V77.6567H82.979V76.4807H94.921ZM85.219 80.7787H94.305V81.9547H83.805V78.7347H85.219V80.7787ZM112.872 72.6027V73.9327H111.262V76.7467H109.904V70.1387H111.262V72.6027H112.872ZM102.582 74.5487C102.087 75.5473 101.275 76.182 100.146 76.4527V75.2627C100.752 75.0573 101.186 74.6513 101.448 74.0447C101.718 73.438 101.868 72.626 101.896 71.6087H100.468V70.4327H104.332V71.6087H103.212C103.202 72.2433 103.132 72.822 103.002 73.3447L104.486 75.1087C104.962 74.8473 105.312 74.4273 105.536 73.8487C105.769 73.27 105.9 72.5233 105.928 71.6087H104.878V70.4327H108.77V71.6087H107.258C107.23 72.2153 107.16 72.7707 107.048 73.2747L109.19 75.5147L108.308 76.2847L106.642 74.4647C106.128 75.5193 105.284 76.182 104.108 76.4527L102.582 74.5487ZM106.278 77.1387C107.827 77.1387 109.073 77.3393 110.016 77.7407C110.958 78.142 111.43 78.7673 111.43 79.6167C111.43 80.466 110.958 81.0913 110.016 81.4927C109.073 81.894 107.827 82.0947 106.278 82.0947C104.738 82.0947 103.492 81.894 102.54 81.4927C101.597 81.0913 101.126 80.466 101.126 79.6167C101.126 78.7673 101.597 78.142 102.54 77.7407C103.492 77.3393 104.738 77.1387 106.278 77.1387ZM106.278 80.9467C107.36 80.9467 108.242 80.8347 108.924 80.6107C109.605 80.3867 109.946 80.0553 109.946 79.6167C109.946 79.178 109.605 78.8467 108.924 78.6227C108.242 78.3987 107.36 78.2867 106.278 78.2867C105.204 78.2867 104.322 78.3987 103.632 78.6227C102.95 78.8467 102.61 79.178 102.61 79.6167C102.61 80.0553 102.95 80.3867 103.632 80.6107C104.313 80.8347 105.195 80.9467 106.278 80.9467ZM123.472 72.8267C122.875 73.256 122.119 73.592 121.204 73.8347C120.299 74.0773 119.356 74.208 118.376 74.2267V73.1487C119.459 73.1207 120.462 72.948 121.386 72.6307C122.32 72.3133 122.917 71.884 123.178 71.3427H118.572V70.2787H128.876V71.3427H124.606C124.541 71.5667 124.443 71.7767 124.312 71.9727L129.212 73.2467L128.876 74.2827L123.472 72.8267ZM129.702 75.0527V76.1167H117.76V75.0527H123.038V73.9047H124.41V75.0527H129.702ZM124.424 77.3487H129.058V78.3987H118.376V77.3487H123.024V76.5927H124.424V77.3487ZM123.71 78.9727C125.325 78.9727 126.529 79.1033 127.322 79.3647C128.116 79.626 128.512 80.0273 128.512 80.5687C128.512 81.11 128.116 81.5113 127.322 81.7727C126.529 82.034 125.325 82.1647 123.71 82.1647C122.096 82.1647 120.892 82.034 120.098 81.7727C119.314 81.5113 118.922 81.11 118.922 80.5687C118.922 80.0273 119.314 79.626 120.098 79.3647C120.892 79.1033 122.096 78.9727 123.71 78.9727ZM123.71 81.1847C124.793 81.1847 125.628 81.1287 126.216 81.0167C126.814 80.914 127.112 80.7647 127.112 80.5687C127.112 80.3727 126.814 80.2233 126.216 80.1207C125.628 80.0087 124.793 79.9527 123.71 79.9527C122.637 79.9527 121.802 80.0087 121.204 80.1207C120.616 80.2233 120.322 80.3727 120.322 80.5687C120.322 80.7647 120.616 80.914 121.204 81.0167C121.802 81.1287 122.637 81.1847 123.71 81.1847ZM143.729 76.3127H142.049V82.0947H140.663V70.1387H142.049V74.9827H143.729V76.3127ZM136.533 80.1207C137.102 80.1207 137.667 80.0693 138.227 79.9667C138.796 79.864 139.263 79.724 139.627 79.5467V80.8067C139.272 80.984 138.801 81.124 138.213 81.2267C137.634 81.3293 137.051 81.3807 136.463 81.3807H131.787V70.5727H138.689V71.8327H133.201V80.1207H136.533ZM145.73 81.9827C145.45 81.9827 145.212 81.8847 145.016 81.6887C144.829 81.502 144.736 81.2687 144.736 80.9887C144.736 80.7087 144.829 80.4753 145.016 80.2887C145.212 80.0927 145.45 79.9947 145.73 79.9947C146.01 79.9947 146.243 80.0927 146.43 80.2887C146.616 80.4753 146.71 80.7087 146.71 80.9887C146.71 81.2687 146.616 81.502 146.43 81.6887C146.243 81.8847 146.01 81.9827 145.73 81.9827ZM149.326 81.9827C149.046 81.9827 148.808 81.8847 148.612 81.6887C148.425 81.502 148.332 81.2687 148.332 80.9887C148.332 80.7087 148.425 80.4753 148.612 80.2887C148.808 80.0927 149.046 79.9947 149.326 79.9947C149.606 79.9947 149.839 80.0927 150.026 80.2887C150.212 80.4753 150.306 80.7087 150.306 80.9887C150.306 81.2687 150.212 81.502 150.026 81.6887C149.839 81.8847 149.606 81.9827 149.326 81.9827ZM152.053 70.5867H153.831L153.467 78.6927H152.403L152.053 70.5867ZM152.935 82.0247C152.646 82.0247 152.399 81.9267 152.193 81.7307C151.997 81.5347 151.899 81.2873 151.899 80.9887C151.899 80.6993 151.997 80.4567 152.193 80.2607C152.399 80.0647 152.646 79.9667 152.935 79.9667C153.225 79.9667 153.467 80.0647 153.663 80.2607C153.869 80.4567 153.971 80.6993 153.971 80.9887C153.971 81.2873 153.873 81.5347 153.677 81.7307C153.481 81.9267 153.234 82.0247 152.935 82.0247Z" fill="black"/>
<g filter="url(#filter8_f_861_1806)">
<rect x="213.154" width="128.66" height="104.09" rx="52.0448" fill="#FFEF9A"/>
</g>
<g filter="url(#filter9_i_861_1806)">
<path d="M333.236 60.3372C333.236 86.7914 308.274 108.237 277.483 108.237C246.692 108.237 221.73 86.7914 221.73 60.3372C221.73 33.8829 246.692 12.4375 277.483 12.4375C308.274 12.4375 333.236 33.8829 333.236 60.3372Z" fill="url(#paint3_linear_861_1806)"/>
</g>
<g filter="url(#filter10_b_861_1806)">
<g filter="url(#filter11_i_861_1806)">
<path d="M309.287 90.1463C309.674 88.256 309.876 86.3114 309.876 84.3267C309.876 65.7596 292.194 50.708 270.381 50.708C254.165 50.708 240.232 59.0265 234.149 70.9238C229.222 67.3025 222.828 65.116 215.84 65.116C200.26 65.116 187.629 75.9866 187.629 89.3962C187.629 90.1429 187.669 90.8817 187.745 91.6113C180.251 94.7357 175.091 101.292 175.091 108.874C175.091 119.483 185.196 128.084 197.66 128.084H304.234C316.698 128.084 326.803 119.483 326.803 108.874C326.803 99.7425 319.318 92.0992 309.287 90.1463Z" fill="url(#paint4_linear_861_1806)"/>
</g>
</g>
</g>
</g>
<defs>
<filter id="filter0_d_861_1806" x="0" y="0" width="328" height="438" filterUnits="userSpaceOnUse" color-interpolation-filters="sRGB">
<feFlood flood-opacity="0" result="BackgroundImageFix"/>
<feColorMatrix in="SourceAlpha" type="matrix" values="0 0 0 0 0 0 0 0 0 0 0 0 0 0 0 0 0 0 127 0" result="hardAlpha"/>
<feOffset dy="4"/>
<feGaussianBlur stdDeviation="2"/>
<feComposite in2="hardAlpha" operator="out"/>
<feColorMatrix type="matrix" values="0 0 0 0 0 0 0 0 0 0 0 0 0 0 0 0 0 0 0.25 0"/>
<feBlend mode="normal" in2="BackgroundImageFix" result="effect1_dropShadow_861_1806"/>
<feBlend mode="normal" in="SourceGraphic" in2="effect1_dropShadow_861_1806" result="shape"/>
</filter>
<filter id="filter1_f_861_1806" x="-53" y="284.5" width="281" height="154" filterUnits="userSpaceOnUse" color-interpolation-filters="sRGB">
<feFlood flood-opacity="0" result="BackgroundImageFix"/>
<feBlend mode="normal" in="SourceGraphic" in2="BackgroundImageFix" result="shape"/>
<feGaussianBlur stdDeviation="20" result="effect1_foregroundBlur_861_1806"/>
</filter>
<filter id="filter2_b_861_1806" x="111.953" y="295.953" width="258.162" height="181.093" filterUnits="userSpaceOnUse" color-interpolation-filters="sRGB">
<feFlood flood-opacity="0" result="BackgroundImageFix"/>
<feGaussianBlur in="BackgroundImageFix" stdDeviation="18.5233"/>
<feComposite in2="SourceAlpha" operator="in" result="effect1_backgroundBlur_861_1806"/>
<feBlend mode="normal" in="SourceGraphic" in2="effect1_backgroundBlur_861_1806" result="shape"/>
</filter>
<filter id="filter3_i_861_1806" x="149" y="333" width="184.069" height="120.721" filterUnits="userSpaceOnUse" color-interpolation-filters="sRGB">
<feFlood flood-opacity="0" result="BackgroundImageFix"/>
<feBlend mode="normal" in="SourceGraphic" in2="BackgroundImageFix" result="shape"/>
<feColorMatrix in="SourceAlpha" type="matrix" values="0 0 0 0 0 0 0 0 0 0 0 0 0 0 0 0 0 0 127 0" result="hardAlpha"/>
<feOffset dy="15.093"/>
<feGaussianBlur stdDeviation="6.86047"/>
<feComposite in2="hardAlpha" operator="arithmetic" k2="-1" k3="1"/>
<feColorMatrix type="matrix" values="0 0 0 0 1 0 0 0 0 1 0 0 0 0 1 0 0 0 1 0"/>
<feBlend mode="normal" in2="shape" result="effect1_innerShadow_861_1806"/>
</filter>
<filter id="filter4_b_861_1806" x="-42.6554" y="146.345" width="243.311" height="172.324" filterUnits="userSpaceOnUse" color-interpolation-filters="sRGB">
<feFlood flood-opacity="0" result="BackgroundImageFix"/>
<feGaussianBlur in="BackgroundImageFix" stdDeviation="16.3277"/>
<feComposite in2="SourceAlpha" operator="in" result="effect1_backgroundBlur_861_1806"/>
<feBlend mode="normal" in="SourceGraphic" in2="effect1_backgroundBlur_861_1806" result="shape"/>
</filter>
<filter id="filter5_i_861_1806" x="-10" y="179" width="178" height="119.108" filterUnits="userSpaceOnUse" color-interpolation-filters="sRGB">
<feFlood flood-opacity="0" result="BackgroundImageFix"/>
<feBlend mode="normal" in="SourceGraphic" in2="BackgroundImageFix" result="shape"/>
<feColorMatrix in="SourceAlpha" type="matrix" values="0 0 0 0 0 0 0 0 0 0 0 0 0 0 0 0 0 0 127 0" result="hardAlpha"/>
<feOffset dy="13.3041"/>
<feGaussianBlur stdDeviation="6.0473"/>
<feComposite in2="hardAlpha" operator="arithmetic" k2="-1" k3="1"/>
<feColorMatrix type="matrix" values="0 0 0 0 1 0 0 0 0 1 0 0 0 0 1 0 0 0 1 0"/>
<feBlend mode="normal" in2="shape" result="effect1_innerShadow_861_1806"/>
</filter>
<filter id="filter6_f_861_1806" x="96" y="133" width="281" height="154" filterUnits="userSpaceOnUse" color-interpolation-filters="sRGB">
<feFlood flood-opacity="0" result="BackgroundImageFix"/>
<feBlend mode="normal" in="SourceGraphic" in2="BackgroundImageFix" result="shape"/>
<feGaussianBlur stdDeviation="20" result="effect1_foregroundBlur_861_1806"/>
</filter>
<filter id="filter7_f_861_1806" x="-36" y="2" width="281" height="154" filterUnits="userSpaceOnUse" color-interpolation-filters="sRGB">
<feFlood flood-opacity="0" result="BackgroundImageFix"/>
<feBlend mode="normal" in="SourceGraphic" in2="BackgroundImageFix" result="shape"/>
<feGaussianBlur stdDeviation="20" result="effect1_foregroundBlur_861_1806"/>
</filter>
<filter id="filter8_f_861_1806" x="167.877" y="-45.277" width="219.214" height="194.644" filterUnits="userSpaceOnUse" color-interpolation-filters="sRGB">
<feFlood flood-opacity="0" result="BackgroundImageFix"/>
<feBlend mode="normal" in="SourceGraphic" in2="BackgroundImageFix" result="shape"/>
<feGaussianBlur stdDeviation="22.6385" result="effect1_foregroundBlur_861_1806"/>
</filter>
<filter id="filter9_i_861_1806" x="221.73" y="12.4375" width="111.505" height="101.459" filterUnits="userSpaceOnUse" color-interpolation-filters="sRGB">
<feFlood flood-opacity="0" result="BackgroundImageFix"/>
<feBlend mode="normal" in="SourceGraphic" in2="BackgroundImageFix" result="shape"/>
<feColorMatrix in="SourceAlpha" type="matrix" values="0 0 0 0 0 0 0 0 0 0 0 0 0 0 0 0 0 0 127 0" result="hardAlpha"/>
<feOffset dy="5.65963"/>
<feGaussianBlur stdDeviation="5.65963"/>
<feComposite in2="hardAlpha" operator="arithmetic" k2="-1" k3="1"/>
<feColorMatrix type="matrix" values="0 0 0 0 1 0 0 0 0 1 0 0 0 0 1 0 0 0 0.81 0"/>
<feBlend mode="normal" in2="shape" result="effect1_innerShadow_861_1806"/>
</filter>
<filter id="filter10_b_861_1806" x="144.529" y="20.146" width="212.837" height="138.5" filterUnits="userSpaceOnUse" color-interpolation-filters="sRGB">
<feFlood flood-opacity="0" result="BackgroundImageFix"/>
<feGaussianBlur in="BackgroundImageFix" stdDeviation="15.281"/>
<feComposite in2="SourceAlpha" operator="in" result="effect1_backgroundBlur_861_1806"/>
<feBlend mode="normal" in="SourceGraphic" in2="effect1_backgroundBlur_861_1806" result="shape"/>
</filter>
<filter id="filter11_i_861_1806" x="175.091" y="50.708" width="151.712" height="88.6952" filterUnits="userSpaceOnUse" color-interpolation-filters="sRGB">
<feFlood flood-opacity="0" result="BackgroundImageFix"/>
<feBlend mode="normal" in="SourceGraphic" in2="BackgroundImageFix" result="shape"/>
<feColorMatrix in="SourceAlpha" type="matrix" values="0 0 0 0 0 0 0 0 0 0 0 0 0 0 0 0 0 0 127 0" result="hardAlpha"/>
<feOffset dy="12.4512"/>
<feGaussianBlur stdDeviation="5.65963"/>
<feComposite in2="hardAlpha" operator="arithmetic" k2="-1" k3="1"/>
<feColorMatrix type="matrix" values="0 0 0 0 1 0 0 0 0 1 0 0 0 0 1 0 0 0 1 0"/>
<feBlend mode="normal" in2="shape" result="effect1_innerShadow_861_1806"/>
</filter>
<linearGradient id="paint0_linear_861_1806" x1="164" y1="0" x2="164" y2="430" gradientUnits="userSpaceOnUse">
<stop stop-color="#FFC188"/>
<stop offset="0.316186" stop-color="white" stop-opacity="0.8"/>
<stop offset="0.49375" stop-color="#6CB8FF"/>
<stop offset="0.679596" stop-color="white" stop-opacity="0.8"/>
<stop offset="1" stop-color="#999C9F"/>
</linearGradient>
<linearGradient id="paint1_linear_861_1806" x1="160.707" y1="430.446" x2="343.589" y2="290.783" gradientUnits="userSpaceOnUse">
<stop stop-color="#969AB0"/>
<stop offset="1" stop-color="white" stop-opacity="0.58"/>
</linearGradient>
<linearGradient id="paint2_linear_861_1806" x1="1.32156" y1="276.459" x2="182.518" y2="142.662" gradientUnits="userSpaceOnUse">
<stop stop-color="#D4EAFF"/>
<stop offset="1" stop-color="white"/>
</linearGradient>
<linearGradient id="paint3_linear_861_1806" x1="269.014" y1="86.4091" x2="305.199" y2="12.5424" gradientUnits="userSpaceOnUse">
<stop stop-color="#FF9900"/>
<stop offset="1" stop-color="#FFEE94"/>
</linearGradient>
<linearGradient id="paint4_linear_861_1806" x1="184.741" y1="121.176" x2="320.516" y2="2.99514" gradientUnits="userSpaceOnUse">
<stop stop-color="white"/>
<stop offset="1" stop-color="white" stop-opacity="0.58"/>
</linearGradient>
<clipPath id="clip0_861_1806">
<rect x="4" width="320" height="430" rx="16" fill="white"/>
</clipPath>
</defs>
</svg>
