<svg width="328" height="438" viewBox="0 0 328 438" fill="none" xmlns="http://www.w3.org/2000/svg">
<g filter="url(#filter0_d_861_1895)">
<g clip-path="url(#clip0_861_1895)">
<rect x="4" width="320" height="430" rx="16" fill="url(#paint0_linear_861_1895)"/>
<g filter="url(#filter1_f_861_1895)">
<ellipse cx="217.5" cy="147" rx="125" ry="37" fill="white"/>
</g>
<path d="M143.378 140.5V152.456H142.006V149.124H139.99L140.088 147.822H142.006V144.798H140.088L139.99 143.496H142.006V140.5H143.378ZM136.112 140.78C137.194 140.78 138.053 141.247 138.688 142.18C139.322 143.113 139.64 144.499 139.64 146.338C139.64 148.177 139.322 149.563 138.688 150.496C138.053 151.429 137.194 151.896 136.112 151.896C135.02 151.896 134.156 151.429 133.522 150.496C132.887 149.563 132.57 148.177 132.57 146.338C132.57 144.499 132.887 143.113 133.522 142.18C134.156 141.247 135.02 140.78 136.112 140.78ZM136.112 150.622C136.765 150.622 137.283 150.272 137.666 149.572C138.058 148.872 138.254 147.794 138.254 146.338C138.254 144.891 138.058 143.818 137.666 143.118C137.283 142.409 136.765 142.054 136.112 142.054C135.449 142.054 134.922 142.409 134.53 143.118C134.138 143.818 133.942 144.891 133.942 146.338C133.942 147.794 134.138 148.872 134.53 149.572C134.922 150.272 135.449 150.622 136.112 150.622ZM155.36 140.5H156.746V152.456H155.36V140.5ZM146.148 150.398C147.222 150.398 148.15 150.132 148.934 149.6C149.728 149.059 150.33 148.298 150.74 147.318C151.16 146.329 151.37 145.171 151.37 143.846V142.208H146.148V140.934H152.784V143.818C152.784 145.405 152.514 146.795 151.972 147.99C151.44 149.175 150.67 150.095 149.662 150.748C148.664 151.392 147.492 151.714 146.148 151.714V150.398ZM170.311 140.5V152.456H168.925V146.128H165.845V144.826H168.925V140.5H170.311ZM164.053 140.85C164.053 142.437 163.936 143.921 163.703 145.302L167.441 151.014L166.279 151.77L163.297 147.066C162.886 148.494 162.326 149.614 161.617 150.426C160.908 151.229 160.086 151.667 159.153 151.742V150.328C159.9 150.207 160.53 149.712 161.043 148.844C161.566 147.976 161.958 146.847 162.219 145.456C162.49 144.056 162.63 142.502 162.639 140.794L164.053 140.85ZM187.52 144.756H177.3V140.57H178.658V141.606H186.162V140.57H187.52V144.756ZM186.162 143.706V142.642H178.658V143.706H186.162ZM183.096 146.716V147.724H187.562V150.51H178.63V151.294H187.772V152.316H177.272V149.53H186.204V148.746H177.244V147.724H181.724V146.716H176.446V145.638H188.388V146.716H183.096ZM193.469 141.746H190.613V140.64H194.827V144.35H193.469V141.746ZM199.671 141.746H195.527V140.64H201.043V144.49H199.671V141.746ZM201.855 145.358V146.464H189.913V145.358H195.961V143.132H197.333V145.358H201.855ZM196.647 149.152C196.6 149.339 196.511 149.544 196.381 149.768L201.435 151.364L201.029 152.442L195.681 150.65C195.102 151.173 194.351 151.574 193.427 151.854C192.503 152.143 191.537 152.293 190.529 152.302V151.196C191.621 151.187 192.61 151 193.497 150.636C194.393 150.272 194.981 149.773 195.261 149.138H190.571V148.088H195.191V146.996H196.577V148.088H201.169V149.152H196.647ZM209.063 144.098C208.457 144.593 207.687 144.98 206.753 145.26C205.82 145.54 204.854 145.689 203.855 145.708V144.588C204.546 144.569 205.232 144.471 205.913 144.294C206.604 144.117 207.206 143.869 207.719 143.552C208.233 143.225 208.578 142.838 208.755 142.39H204.079V141.284H208.643V140.024H210.057V141.284H214.607V142.39H210.211C210.137 142.689 210.02 142.959 209.861 143.202L214.887 144.644L214.523 145.722L209.063 144.098ZM210.029 147.71V148.984H214.481V152.47H213.081V150.118H204.107V148.984H208.657V147.71H203.379V146.562H215.321V147.71H210.029ZM228.34 140.5V152.456H227.024V140.5H228.34ZM223.93 140.57H225.246V152.246H223.93V146.352H222.04V145.05H223.93V140.57ZM220.668 142.194C220.659 143.538 220.589 144.742 220.458 145.806L223.37 150.93L222.236 151.574L220.108 147.71C219.52 150.137 218.466 151.481 216.944 151.742V150.384C217.719 150.169 218.307 149.343 218.708 147.906C219.11 146.459 219.32 144.555 219.338 142.194H217.14V140.934H222.768V142.194H220.668ZM246.739 143.342V144.672H245.059V149.376H243.673V140.5H245.059V143.342H246.739ZM241.685 144.098C241.685 144.77 241.531 145.367 241.223 145.89C240.924 146.413 240.495 146.823 239.935 147.122C239.375 147.421 238.717 147.57 237.961 147.57C237.205 147.57 236.542 147.421 235.973 147.122C235.413 146.823 234.979 146.413 234.671 145.89C234.372 145.358 234.223 144.761 234.223 144.098C234.223 143.435 234.372 142.843 234.671 142.32C234.979 141.788 235.413 141.373 235.973 141.074C236.542 140.775 237.205 140.626 237.961 140.626C238.717 140.626 239.375 140.775 239.935 141.074C240.495 141.373 240.924 141.783 241.223 142.306C241.531 142.829 241.685 143.426 241.685 144.098ZM235.609 144.098C235.609 144.798 235.823 145.358 236.253 145.778C236.682 146.189 237.251 146.394 237.961 146.394C238.67 146.394 239.235 146.189 239.655 145.778C240.084 145.358 240.299 144.798 240.299 144.098C240.299 143.398 240.084 142.838 239.655 142.418C239.225 141.998 238.661 141.788 237.961 141.788C237.251 141.788 236.682 141.998 236.253 142.418C235.823 142.838 235.609 143.398 235.609 144.098ZM236.617 151.042H245.381V152.302H235.203V148.396H236.617V151.042ZM263.569 150.58V151.882H251.627V150.58H256.877V147.892H252.411V140.85H253.783V142.992H261.399V140.85H262.771V147.892H258.291V150.58H263.569ZM253.783 146.646H261.399V144.238H253.783V146.646ZM274.978 145.974H273.018V144.742H274.978V143.062H273.018V141.83H274.978V140.5H276.35V149.39H274.978V145.974ZM272.318 147.262H265.598V140.794H272.318V147.262ZM270.946 141.998H266.956V146.058H270.946V141.998ZM276.602 151.056V152.302H266.172V148.424H267.586V151.056H276.602ZM294.987 146.674H293.307V152.456H291.921V140.5H293.307V145.344H294.987V146.674ZM288.323 140.85H289.695V151.742H283.045V140.85H284.417V144.966H288.323V140.85ZM288.323 150.468V146.24H284.417V150.468H288.323ZM307.894 150.58V151.882H295.952V150.58H301.202V147.892H296.736V140.85H298.108V142.992H305.724V140.85H307.096V147.892H302.616V150.58H307.894ZM298.108 146.646H305.724V144.238H298.108V146.646Z" fill="black"/>
<g filter="url(#filter2_f_861_1895)">
<ellipse cx="92.5" cy="407" rx="125" ry="37" fill="white"/>
</g>
<path d="M53.473 400.5V412.456H52.157V406.632H50.211V412.246H48.895V400.57H50.211V405.316H52.157V400.5H53.473ZM42.343 400.934H47.467V411.742H42.343V400.934ZM43.659 410.482H46.165V402.194H43.659V410.482ZM65.2178 400.5H66.6038V406.352H65.2178V400.5ZM59.3798 406.198C58.6518 406.198 58.0078 406.081 57.4478 405.848C56.8878 405.605 56.4491 405.274 56.1318 404.854C55.8238 404.434 55.6698 403.953 55.6698 403.412C55.6698 402.871 55.8238 402.39 56.1318 401.97C56.4491 401.55 56.8878 401.223 57.4478 400.99C58.0078 400.747 58.6518 400.626 59.3798 400.626C60.1078 400.626 60.7518 400.747 61.3118 400.99C61.8718 401.223 62.3058 401.55 62.6138 401.97C62.9218 402.39 63.0758 402.871 63.0758 403.412C63.0758 403.953 62.9218 404.434 62.6138 404.854C62.3058 405.274 61.8718 405.605 61.3118 405.848C60.7518 406.081 60.1078 406.198 59.3798 406.198ZM59.3798 405.078C60.0704 405.078 60.6304 404.929 61.0598 404.63C61.4891 404.322 61.7038 403.916 61.7038 403.412C61.7038 402.908 61.4891 402.507 61.0598 402.208C60.6304 401.9 60.0704 401.746 59.3798 401.746C58.6891 401.746 58.1244 401.9 57.6858 402.208C57.2564 402.507 57.0418 402.908 57.0418 403.412C57.0418 403.916 57.2564 404.322 57.6858 404.63C58.1244 404.929 58.6891 405.078 59.3798 405.078ZM56.6218 409.138H65.2318V408.102H56.5938V407.01H66.6038V410.174H57.9938V411.21H66.8978V412.302H56.6218V409.138ZM85.3384 403.216V404.546H83.6584V409.376H82.2724V400.5H83.6584V403.216H85.3384ZM76.8404 404.756C76.3924 405.531 75.8277 406.165 75.1464 406.66C74.4744 407.155 73.7137 407.458 72.8644 407.57V406.268C73.6017 406.137 74.2411 405.806 74.7824 405.274C75.3237 404.733 75.7391 404.056 76.0284 403.244C76.3271 402.423 76.4811 401.545 76.4904 400.612L77.8764 400.696C77.8764 401.723 77.7131 402.689 77.3864 403.594L81.1664 406.45L80.3264 407.444L76.8404 404.756ZM75.0624 411.042H83.9804V412.302H73.6624V408.494H75.0624V411.042ZM89.4952 405.456C89.1779 406.081 88.7532 406.585 88.2212 406.968C87.6985 407.351 87.0919 407.584 86.4012 407.668V406.45C87.1292 406.31 87.6985 405.937 88.1092 405.33C88.5199 404.714 88.7485 403.902 88.7952 402.894H86.5412V401.718H88.7952V400.304H90.1392V401.718H92.3232V402.894H90.1252C90.1159 403.333 90.0552 403.785 89.9432 404.252L92.6592 406.702L91.8192 407.612L89.4952 405.456ZM97.7972 400.5V408.004H96.4812V404.602H94.5352V407.878H93.2192V400.57H94.5352V403.3H96.4812V400.5H97.7972ZM87.2412 408.662H97.7972V412.456H96.4252V409.852H87.2412V408.662ZM104.614 402.39H107.792V403.622H100.036V402.39H103.2V400.472H104.614V402.39ZM112.272 406.674H110.592V412.456H109.206V400.5H110.592V405.344H112.272V406.674ZM103.914 404.574C104.558 404.574 105.132 404.728 105.636 405.036C106.14 405.335 106.532 405.764 106.812 406.324C107.092 406.875 107.232 407.509 107.232 408.228C107.232 408.947 107.092 409.586 106.812 410.146C106.532 410.697 106.14 411.121 105.636 411.42C105.132 411.728 104.558 411.882 103.914 411.882C103.27 411.882 102.696 411.728 102.192 411.42C101.688 411.121 101.291 410.697 101.002 410.146C100.722 409.586 100.582 408.947 100.582 408.228C100.582 407.509 100.722 406.875 101.002 406.324C101.291 405.764 101.688 405.335 102.192 405.036C102.696 404.728 103.27 404.574 103.914 404.574ZM103.914 410.678C104.287 410.678 104.623 410.58 104.922 410.384C105.221 410.188 105.454 409.903 105.622 409.53C105.799 409.157 105.888 408.723 105.888 408.228C105.888 407.733 105.799 407.299 105.622 406.926C105.454 406.553 105.221 406.268 104.922 406.072C104.623 405.876 104.287 405.778 103.914 405.778C103.335 405.778 102.859 406.002 102.486 406.45C102.113 406.889 101.926 407.481 101.926 408.228C101.926 408.975 102.113 409.572 102.486 410.02C102.859 410.459 103.335 410.678 103.914 410.678ZM123.107 403.552V400.5H124.493V409.418H123.107V404.742H119.103V403.552H123.107ZM121.707 407.178C121.333 407.327 120.806 407.444 120.125 407.528C119.453 407.603 118.697 407.64 117.857 407.64H113.727V400.794H120.853V401.97H115.127V406.45H117.941C119.686 406.45 120.941 406.296 121.707 405.988V407.178ZM124.745 411.07V412.302H114.315V408.676H115.729V411.07H124.745ZM140.301 401.816H131.425V400.64H141.687V404.7H140.301V401.816ZM142.569 405.54V406.688H130.627V405.54H135.107V403.202H136.507V405.54H142.569ZM136.591 407.808C138.141 407.808 139.401 407.999 140.371 408.382C141.351 408.765 141.841 409.348 141.841 410.132C141.841 410.925 141.351 411.513 140.371 411.896C139.401 412.279 138.141 412.47 136.591 412.47C135.042 412.47 133.777 412.279 132.797 411.896C131.827 411.513 131.341 410.925 131.341 410.132C131.341 409.32 131.822 408.732 132.783 408.368C133.754 407.995 135.023 407.808 136.591 407.808ZM136.591 411.364C137.646 411.364 138.542 411.257 139.279 411.042C140.017 410.837 140.385 410.533 140.385 410.132C140.385 409.74 140.017 409.441 139.279 409.236C138.542 409.021 137.646 408.914 136.591 408.914C135.518 408.914 134.617 409.017 133.889 409.222C133.161 409.418 132.797 409.721 132.797 410.132C132.797 410.533 133.166 410.837 133.903 411.042C134.641 411.257 135.537 411.364 136.591 411.364ZM153.964 408.004V400.5H155.35V409.866H153.964V409.124H150.338V408.004H153.964ZM148.35 405.19C147.286 405.19 146.428 404.985 145.774 404.574C145.13 404.163 144.808 403.589 144.808 402.852C144.808 402.115 145.13 401.545 145.774 401.144C146.428 400.733 147.286 400.528 148.35 400.528C149.414 400.528 150.268 400.733 150.912 401.144C151.566 401.545 151.892 402.115 151.892 402.852C151.892 403.589 151.566 404.163 150.912 404.574C150.268 404.985 149.414 405.19 148.35 405.19ZM148.35 401.62C147.697 401.62 147.17 401.727 146.768 401.942C146.367 402.147 146.166 402.451 146.166 402.852C146.166 403.253 146.367 403.561 146.768 403.776C147.17 403.991 147.697 404.098 148.35 404.098C149.004 404.098 149.531 403.991 149.932 403.776C150.334 403.561 150.534 403.253 150.534 402.852C150.534 402.451 150.334 402.147 149.932 401.942C149.531 401.727 149.004 401.62 148.35 401.62ZM147.398 407.178H144.094V406.03H149.036C150.903 406.03 152.21 405.871 152.956 405.554V406.702C152.247 407.019 150.926 407.178 148.994 407.178H148.784V409.32H147.398V407.178ZM155.658 411.126V412.302H145.2V408.676H146.586V411.126H155.658Z" fill="black"/>
<g filter="url(#filter3_f_861_1895)">
<ellipse cx="116.5" cy="234" rx="125" ry="37" fill="white"/>
</g>
<path d="M42.1539 227.5V239.456H40.7819V236.124H38.7659L38.8639 234.822H40.7819V231.798H38.8639L38.7659 230.496H40.7819V227.5H42.1539ZM34.8879 227.78C35.9706 227.78 36.8293 228.247 37.4639 229.18C38.0986 230.113 38.4159 231.499 38.4159 233.338C38.4159 235.177 38.0986 236.563 37.4639 237.496C36.8293 238.429 35.9706 238.896 34.8879 238.896C33.7959 238.896 32.9326 238.429 32.2979 237.496C31.6633 236.563 31.3459 235.177 31.3459 233.338C31.3459 231.499 31.6633 230.113 32.2979 229.18C32.9326 228.247 33.7959 227.78 34.8879 227.78ZM34.8879 237.622C35.5413 237.622 36.0593 237.272 36.4419 236.572C36.8339 235.872 37.0299 234.794 37.0299 233.338C37.0299 231.891 36.8339 230.818 36.4419 230.118C36.0593 229.409 35.5413 229.054 34.8879 229.054C34.2253 229.054 33.6979 229.409 33.3059 230.118C32.9139 230.818 32.7179 231.891 32.7179 233.338C32.7179 234.794 32.9139 235.872 33.3059 236.572C33.6979 237.272 34.2253 237.622 34.8879 237.622ZM54.1367 227.5H55.5227V239.456H54.1367V227.5ZM44.9247 237.398C45.9981 237.398 46.9267 237.132 47.7107 236.6C48.5041 236.059 49.1061 235.298 49.5167 234.318C49.9367 233.329 50.1467 232.171 50.1467 230.846V229.208H44.9247V227.934H51.5607V230.818C51.5607 232.405 51.2901 233.795 50.7487 234.99C50.2167 236.175 49.4467 237.095 48.4387 237.748C47.4401 238.392 46.2687 238.714 44.9247 238.714V237.398ZM72.9554 227.5V239.456H71.5694V227.5H72.9554ZM67.8454 229.194H62.5394V227.934H69.2314V232.988H67.8454V229.194ZM66.6414 233.786C67.5467 233.786 68.326 233.753 68.9794 233.688C69.6327 233.613 70.16 233.483 70.5614 233.296V234.584C69.8707 234.892 68.5687 235.046 66.6554 235.046H66.4874V239.456H65.1014V235.046H61.7554V233.786H66.6414ZM86.4781 227.5V239.456H85.1061V236.124H83.0901L83.1881 234.822H85.1061V231.798H83.1881L83.0901 230.496H85.1061V227.5H86.4781ZM79.2121 227.78C80.2948 227.78 81.1535 228.247 81.7881 229.18C82.4228 230.113 82.7401 231.499 82.7401 233.338C82.7401 235.177 82.4228 236.563 81.7881 237.496C81.1535 238.429 80.2948 238.896 79.2121 238.896C78.1201 238.896 77.2568 238.429 76.6221 237.496C75.9875 236.563 75.6701 235.177 75.6701 233.338C75.6701 231.499 75.9875 230.113 76.6221 229.18C77.2568 228.247 78.1201 227.78 79.2121 227.78ZM79.2121 237.622C79.8655 237.622 80.3835 237.272 80.7661 236.572C81.1581 235.872 81.3541 234.794 81.3541 233.338C81.3541 231.891 81.1581 230.818 80.7661 230.118C80.3835 229.409 79.8655 229.054 79.2121 229.054C78.5495 229.054 78.0221 229.409 77.6301 230.118C77.2381 230.818 77.0421 231.891 77.0421 233.338C77.0421 234.794 77.2381 235.872 77.6301 236.572C78.0221 237.272 78.5495 237.622 79.2121 237.622ZM94.6529 232.596C93.1129 232.596 91.8436 232.377 90.8449 231.938C89.8463 231.499 89.3469 230.855 89.3469 230.006C89.3469 229.166 89.8463 228.527 90.8449 228.088C91.8436 227.649 93.1129 227.43 94.6529 227.43C96.1929 227.43 97.4623 227.649 98.4609 228.088C99.4596 228.527 99.9589 229.166 99.9589 230.006C99.9589 230.855 99.4596 231.499 98.4609 231.938C97.4623 232.377 96.1929 232.596 94.6529 232.596ZM94.6529 228.55C93.5516 228.55 92.6369 228.676 91.9089 228.928C91.1809 229.18 90.8169 229.539 90.8169 230.006C90.8169 230.473 91.1809 230.837 91.9089 231.098C92.6369 231.35 93.5516 231.476 94.6529 231.476C95.7543 231.476 96.6689 231.35 97.3969 231.098C98.1249 230.837 98.4889 230.473 98.4889 230.006C98.4889 229.539 98.1249 229.18 97.3969 228.928C96.6689 228.676 95.7543 228.55 94.6529 228.55ZM100.631 233.632V234.808H95.3529V236.866H93.9529V234.808H88.6889V233.632H100.631ZM90.9289 238.126H100.015V239.316H89.5149V235.914H90.9289V238.126ZM115.782 229.222H106.808V227.92H117.224V235.816H115.782V229.222ZM118.022 237.58V238.882H106.08V237.58H110.532V232.246H111.96V237.58H118.022ZM130.368 229.838V231.518H132.048V232.694H130.368V234.108H128.982V227.5H130.368V228.648H132.048V229.838H130.368ZM126.966 230.664C126.966 231.261 126.817 231.793 126.518 232.26C126.22 232.717 125.79 233.072 125.23 233.324C124.67 233.576 124.022 233.702 123.284 233.702C122.538 233.702 121.884 233.576 121.324 233.324C120.774 233.072 120.344 232.717 120.036 232.26C119.738 231.793 119.588 231.261 119.588 230.664C119.588 230.067 119.738 229.539 120.036 229.082C120.344 228.625 120.774 228.27 121.324 228.018C121.884 227.757 122.538 227.626 123.284 227.626C124.022 227.626 124.666 227.757 125.216 228.018C125.776 228.27 126.206 228.625 126.504 229.082C126.812 229.539 126.966 230.067 126.966 230.664ZM120.974 230.664C120.974 231.252 121.184 231.714 121.604 232.05C122.024 232.386 122.584 232.554 123.284 232.554C123.975 232.554 124.53 232.386 124.95 232.05C125.37 231.714 125.58 231.252 125.58 230.664C125.58 230.076 125.37 229.614 124.95 229.278C124.53 228.942 123.975 228.774 123.284 228.774C122.584 228.774 122.024 228.942 121.604 229.278C121.184 229.614 120.974 230.076 120.974 230.664ZM125.496 234.5C127.018 234.5 128.24 234.701 129.164 235.102C130.088 235.503 130.55 236.129 130.55 236.978C130.55 237.827 130.088 238.453 129.164 238.854C128.24 239.255 127.018 239.456 125.496 239.456C123.975 239.456 122.752 239.255 121.828 238.854C120.904 238.453 120.442 237.827 120.442 236.978C120.442 236.129 120.904 235.503 121.828 235.102C122.752 234.701 123.975 234.5 125.496 234.5ZM125.496 238.308C126.56 238.308 127.419 238.196 128.072 237.972C128.735 237.748 129.066 237.417 129.066 236.978C129.066 236.539 128.735 236.208 128.072 235.984C127.41 235.76 126.551 235.648 125.496 235.648C124.442 235.648 123.583 235.76 122.92 235.984C122.258 236.208 121.926 236.539 121.926 236.978C121.926 237.417 122.258 237.748 122.92 237.972C123.583 238.196 124.442 238.308 125.496 238.308ZM142.785 227.5H144.185V239.456H142.785V227.5ZM137.143 238.896C136.415 238.896 135.78 238.691 135.239 238.28C134.698 237.879 134.273 237.263 133.965 236.432C133.666 235.601 133.517 234.57 133.517 233.338C133.517 232.106 133.666 231.075 133.965 230.244C134.273 229.413 134.698 228.797 135.239 228.396C135.78 227.985 136.415 227.78 137.143 227.78C137.862 227.78 138.492 227.985 139.033 228.396C139.574 228.797 139.994 229.413 140.293 230.244C140.601 231.075 140.755 232.106 140.755 233.338C140.755 234.57 140.601 235.601 140.293 236.432C139.994 237.263 139.574 237.879 139.033 238.28C138.492 238.691 137.862 238.896 137.143 238.896ZM137.143 237.622C137.806 237.622 138.342 237.272 138.753 236.572C139.164 235.863 139.369 234.785 139.369 233.338C139.369 231.901 139.164 230.827 138.753 230.118C138.342 229.409 137.806 229.054 137.143 229.054C136.471 229.054 135.93 229.409 135.519 230.118C135.108 230.818 134.903 231.891 134.903 233.338C134.903 234.785 135.104 235.863 135.505 236.572C135.916 237.272 136.462 237.622 137.143 237.622ZM161.562 234.15H160.176V227.5H161.562V234.15ZM158.062 230.734C158.062 231.35 157.908 231.891 157.6 232.358C157.292 232.825 156.853 233.189 156.284 233.45C155.724 233.711 155.07 233.842 154.324 233.842C153.568 233.842 152.905 233.711 152.336 233.45C151.776 233.189 151.342 232.825 151.034 232.358C150.726 231.891 150.572 231.35 150.572 230.734C150.572 230.127 150.726 229.591 151.034 229.124C151.342 228.648 151.776 228.279 152.336 228.018C152.905 227.757 153.568 227.626 154.324 227.626C155.07 227.626 155.724 227.757 156.284 228.018C156.853 228.279 157.292 228.648 157.6 229.124C157.908 229.591 158.062 230.127 158.062 230.734ZM151.958 230.734C151.958 231.341 152.172 231.821 152.602 232.176C153.04 232.521 153.614 232.694 154.324 232.694C155.024 232.694 155.588 232.521 156.018 232.176C156.456 231.821 156.676 231.341 156.676 230.734C156.676 230.127 156.456 229.651 156.018 229.306C155.588 228.951 155.024 228.774 154.324 228.774C153.614 228.774 153.04 228.951 152.602 229.306C152.172 229.651 151.958 230.127 151.958 230.734ZM161.702 239.358L159.406 237.44C159.042 238 158.598 238.439 158.076 238.756C157.562 239.083 157.012 239.265 156.424 239.302L154.394 237.51C154.02 238.042 153.577 238.462 153.064 238.77C152.55 239.087 152.009 239.265 151.44 239.302V238.042C151.869 238.005 152.275 237.823 152.658 237.496C153.05 237.16 153.372 236.731 153.624 236.208C153.876 235.685 154.025 235.121 154.072 234.514L155.416 234.696C155.35 235.321 155.201 235.909 154.968 236.46L156.802 237.972C157.175 237.86 157.52 237.636 157.838 237.3C158.155 236.964 158.416 236.553 158.622 236.068C158.827 235.583 158.948 235.065 158.986 234.514L160.33 234.71C160.274 235.298 160.148 235.853 159.952 236.376L162.528 238.378L161.702 239.358ZM169.835 232.036C168.276 232.036 167.007 231.845 166.027 231.462C165.047 231.079 164.557 230.501 164.557 229.726C164.557 228.951 165.047 228.377 166.027 228.004C167.007 227.621 168.276 227.43 169.835 227.43C171.393 227.43 172.663 227.621 173.643 228.004C174.623 228.377 175.113 228.951 175.113 229.726C175.113 230.501 174.623 231.079 173.643 231.462C172.663 231.845 171.393 232.036 169.835 232.036ZM169.835 230.93C170.955 230.93 171.869 230.832 172.579 230.636C173.288 230.431 173.643 230.127 173.643 229.726C173.643 229.334 173.283 229.035 172.565 228.83C171.855 228.625 170.945 228.522 169.835 228.522C168.724 228.522 167.809 228.625 167.091 228.83C166.381 229.035 166.027 229.334 166.027 229.726C166.027 230.127 166.381 230.431 167.091 230.636C167.8 230.832 168.715 230.93 169.835 230.93ZM163.871 232.974H175.813V234.094H163.871V232.974ZM164.697 235.256H174.973V239.316H164.697V235.256ZM173.601 238.21V236.362H166.083V238.21H173.601ZM178.373 239.344C178.093 239.344 177.855 239.246 177.659 239.05C177.473 238.863 177.379 238.63 177.379 238.35C177.379 238.07 177.473 237.837 177.659 237.65C177.855 237.454 178.093 237.356 178.373 237.356C178.653 237.356 178.887 237.454 179.073 237.65C179.26 237.837 179.353 238.07 179.353 238.35C179.353 238.63 179.26 238.863 179.073 239.05C178.887 239.246 178.653 239.344 178.373 239.344ZM181.969 239.344C181.689 239.344 181.451 239.246 181.255 239.05C181.068 238.863 180.975 238.63 180.975 238.35C180.975 238.07 181.068 237.837 181.255 237.65C181.451 237.454 181.689 237.356 181.969 237.356C182.249 237.356 182.482 237.454 182.669 237.65C182.856 237.837 182.949 238.07 182.949 238.35C182.949 238.63 182.856 238.863 182.669 239.05C182.482 239.246 182.249 239.344 181.969 239.344ZM191.757 235.494L190.175 237.16V239.162H188.733V227.598H190.175V235.438L194.165 231.154H195.859L192.667 234.528L196.195 239.162H194.487L191.757 235.494ZM198.144 227.458C198.424 227.458 198.653 227.551 198.83 227.738C199.017 227.915 199.11 228.139 199.11 228.41C199.11 228.681 199.017 228.909 198.83 229.096C198.653 229.273 198.424 229.362 198.144 229.362C197.873 229.362 197.645 229.273 197.458 229.096C197.281 228.909 197.192 228.681 197.192 228.41C197.192 228.139 197.281 227.915 197.458 227.738C197.645 227.551 197.873 227.458 198.144 227.458ZM197.43 239.176V231.154H198.872V239.176H197.43ZM201.849 229.362C201.578 229.362 201.35 229.273 201.163 229.096C200.986 228.909 200.897 228.681 200.897 228.41C200.897 228.139 200.986 227.915 201.163 227.738C201.35 227.551 201.578 227.458 201.849 227.458C202.129 227.458 202.358 227.551 202.535 227.738C202.722 227.915 202.815 228.139 202.815 228.41C202.815 228.681 202.722 228.909 202.535 229.096C202.358 229.273 202.129 229.362 201.849 229.362ZM200.519 242.648C200.155 242.648 199.81 242.611 199.483 242.536V241.29C199.716 241.355 199.978 241.388 200.267 241.388C200.538 241.388 200.748 241.304 200.897 241.136C201.056 240.968 201.135 240.725 201.135 240.408V231.154H202.577V240.478C202.577 241.131 202.39 241.654 202.017 242.046C201.653 242.447 201.154 242.648 200.519 242.648ZM210.594 239.162V237.944C210.389 238.308 210.048 238.635 209.572 238.924C209.105 239.213 208.541 239.358 207.878 239.358C207.253 239.358 206.693 239.213 206.198 238.924C205.713 238.635 205.335 238.229 205.064 237.706C204.793 237.174 204.658 236.553 204.658 235.844V231.154H206.1V235.592C206.1 236.395 206.282 237.015 206.646 237.454C207.019 237.883 207.533 238.098 208.186 238.098C208.643 238.098 209.054 237.972 209.418 237.72C209.782 237.459 210.067 237.113 210.272 236.684C210.487 236.255 210.594 235.793 210.594 235.298V231.154H212.036V239.162H210.594ZM214.301 239.162V227.598H215.743V239.162H214.301Z" fill="black"/>
<g filter="url(#filter4_f_861_1895)">
<ellipse cx="104.5" cy="73" rx="100.5" ry="37" fill="white"/>
</g>
<path d="M63.9844 66.5H65.3704V75.376H63.9844V66.5ZM58.1184 73.57C57.353 73.57 56.681 73.4207 56.1024 73.122C55.533 72.8233 55.0944 72.4127 54.7864 71.89C54.4784 71.358 54.3244 70.7607 54.3244 70.098C54.3244 69.4353 54.4784 68.8427 54.7864 68.32C55.0944 67.788 55.533 67.3727 56.1024 67.074C56.681 66.7753 57.353 66.626 58.1184 66.626C58.8837 66.626 59.551 66.7753 60.1204 67.074C60.6897 67.3727 61.1284 67.7833 61.4364 68.306C61.7444 68.8287 61.8984 69.426 61.8984 70.098C61.8984 70.77 61.7444 71.3673 61.4364 71.89C61.1284 72.4127 60.6897 72.8233 60.1204 73.122C59.551 73.4207 58.8837 73.57 58.1184 73.57ZM58.1184 72.394C58.837 72.394 59.4157 72.1887 59.8544 71.778C60.293 71.358 60.5124 70.798 60.5124 70.098C60.5124 69.398 60.2884 68.838 59.8404 68.418C59.4017 67.998 58.8277 67.788 58.1184 67.788C57.3997 67.788 56.8164 67.998 56.3684 68.418C55.9297 68.838 55.7104 69.398 55.7104 70.098C55.7104 70.798 55.9297 71.358 56.3684 71.778C56.8164 72.1887 57.3997 72.394 58.1184 72.394ZM55.3744 74.396H56.7884V77.042H65.6924V78.302H55.3744V74.396ZM75.8272 73.094H74.5112V66.57H75.8272V68.754H77.8572V66.5H79.1732V73.486H77.8572V70.028H75.8272V73.094ZM70.8992 70.518C70.2458 71.9927 69.1725 72.8653 67.6792 73.136V71.876C68.5845 71.624 69.2425 71.0407 69.6532 70.126C70.0638 69.2113 70.2692 68.0493 70.2692 66.64L71.5992 66.682C71.5992 67.634 71.5105 68.4833 71.3332 69.23L74.1752 71.876L73.2652 72.786L70.8992 70.518ZM74.0492 73.724C75.6265 73.724 76.9052 73.9107 77.8852 74.284C78.8652 74.6573 79.3552 75.2593 79.3552 76.09C79.3552 76.9207 78.8652 77.5227 77.8852 77.896C76.9052 78.2693 75.6265 78.456 74.0492 78.456C72.4718 78.456 71.1932 78.2693 70.2132 77.896C69.2332 77.5227 68.7432 76.9207 68.7432 76.09C68.7432 75.2593 69.2332 74.6573 70.2132 74.284C71.1932 73.9107 72.4718 73.724 74.0492 73.724ZM74.0492 77.322C75.1412 77.322 76.0512 77.2193 76.7792 77.014C77.5165 76.818 77.8852 76.51 77.8852 76.09C77.8852 75.67 77.5165 75.362 76.7792 75.166C76.0512 74.9607 75.1412 74.858 74.0492 74.858C72.9572 74.858 72.0425 74.9607 71.3052 75.166C70.5772 75.362 70.2132 75.67 70.2132 76.09C70.2132 76.51 70.5772 76.818 71.3052 77.014C72.0425 77.2193 72.9572 77.322 74.0492 77.322ZM89.2138 71.68C88.8125 72.3427 88.2758 72.884 87.6038 73.304C86.9411 73.724 86.1758 73.9807 85.3078 74.074V72.814C86.2505 72.674 87.0065 72.2727 87.5758 71.61C88.1545 70.938 88.4858 70.1307 88.5698 69.188H85.5458V67.928H88.5698V66.346H89.9838V67.928H92.9798V69.188H89.9838C89.9371 69.692 89.8485 70.1493 89.7178 70.56L93.4278 73.01L92.6578 74.06L89.2138 71.68ZM96.2558 66.5V78.456H94.8698V66.5H96.2558ZM89.9558 76.468C91.7851 76.468 93.0918 76.2953 93.8758 75.95V77.238C93.0545 77.574 91.7525 77.742 89.9698 77.742H85.0698V76.468H88.4718V73.906H89.8438V76.468H89.9558ZM108.239 68.222H99.2646V66.92H109.681V74.816H108.239V68.222ZM110.479 76.58V77.882H98.5366V76.58H102.989V71.246H104.417V76.58H110.479ZM121.817 66.5H123.203V78.456H121.817V66.5ZM116.105 74.284C115.396 74.284 114.761 74.1253 114.201 73.808C113.641 73.4907 113.203 73.0473 112.885 72.478C112.568 71.8993 112.409 71.246 112.409 70.518C112.409 69.79 112.568 69.1413 112.885 68.572C113.203 67.9933 113.641 67.5453 114.201 67.228C114.761 66.9107 115.396 66.752 116.105 66.752C116.815 66.752 117.449 66.9107 118.009 67.228C118.569 67.5453 119.008 67.9933 119.325 68.572C119.643 69.1413 119.801 69.79 119.801 70.518C119.801 71.246 119.643 71.8993 119.325 72.478C119.008 73.0473 118.569 73.4907 118.009 73.808C117.449 74.1253 116.815 74.284 116.105 74.284ZM116.105 73.024C116.572 73.024 116.978 72.9167 117.323 72.702C117.678 72.478 117.953 72.1793 118.149 71.806C118.345 71.4233 118.443 70.994 118.443 70.518C118.443 70.042 118.345 69.6127 118.149 69.23C117.953 68.8473 117.678 68.5487 117.323 68.334C116.969 68.11 116.563 67.998 116.105 67.998C115.639 67.998 115.228 68.11 114.873 68.334C114.519 68.5487 114.243 68.8473 114.047 69.23C113.861 69.6127 113.767 70.042 113.767 70.518C113.767 71.246 113.982 71.848 114.411 72.324C114.841 72.7907 115.405 73.024 116.105 73.024ZM112.003 76.44H116.889C117.729 76.44 118.495 76.3933 119.185 76.3C119.876 76.2067 120.417 76.0667 120.809 75.88V77.168C120.408 77.3453 119.857 77.4853 119.157 77.588C118.457 77.6907 117.673 77.742 116.805 77.742H112.003V76.44ZM140.496 72.646H130.22V66.85H140.496V72.646ZM139.11 68.138H131.606V71.372H139.11V68.138ZM141.336 75.404H136.072V78.736H134.644V75.404H129.394V74.088H141.336V75.404ZM154.355 66.5V78.456H153.039V72.618H151.093V78.246H149.777V66.57H151.093V71.316H153.039V66.5H154.355ZM146.123 76.51C146.636 76.51 147.135 76.4727 147.621 76.398C148.115 76.314 148.545 76.1973 148.909 76.048V77.266C148.563 77.4153 148.125 77.532 147.593 77.616C147.061 77.7 146.519 77.742 145.969 77.742H143.225V66.934H148.391V68.166H144.583V76.51H146.123Z" fill="black"/>
<g filter="url(#filter5_f_861_1895)">
<ellipse cx="231.5" cy="315" rx="100.5" ry="37" fill="white"/>
</g>
<path d="M182.049 314.996C180.985 314.996 180.052 314.87 179.249 314.618C178.447 314.357 177.826 313.988 177.387 313.512C176.949 313.027 176.729 312.457 176.729 311.804C176.729 311.151 176.949 310.586 177.387 310.11C177.826 309.625 178.447 309.256 179.249 309.004C180.052 308.743 180.985 308.612 182.049 308.612C183.113 308.612 184.047 308.743 184.849 309.004C185.652 309.256 186.273 309.625 186.711 310.11C187.15 310.586 187.369 311.151 187.369 311.804C187.369 312.457 187.15 313.027 186.711 313.512C186.273 313.988 185.652 314.357 184.849 314.618C184.047 314.87 183.113 314.996 182.049 314.996ZM182.049 309.858C180.892 309.858 179.954 310.031 179.235 310.376C178.526 310.721 178.171 311.197 178.171 311.804C178.171 312.411 178.526 312.887 179.235 313.232C179.954 313.577 180.892 313.75 182.049 313.75C183.207 313.75 184.14 313.577 184.849 313.232C185.568 312.887 185.927 312.411 185.927 311.804C185.927 311.197 185.568 310.721 184.849 310.376C184.14 310.031 183.207 309.858 182.049 309.858ZM188.027 317.39H182.749V320.736H181.335V317.39H176.085V316.102H188.027V317.39ZM199.324 308.5H200.71V320.456H199.324V308.5ZM190.238 313.61H195.586V310.208H190.21V308.934H196.972V314.884H191.624V318.468H195.124C195.694 318.468 196.258 318.417 196.818 318.314C197.388 318.211 197.854 318.071 198.218 317.894V319.168C197.864 319.345 197.402 319.485 196.832 319.588C196.263 319.691 195.68 319.742 195.082 319.742H190.238V313.61ZM218.885 314.002V315.122H206.943V314.002H212.221V312.77H207.797V308.64H218.031V309.76H209.183V311.65H218.171V312.77H213.593V314.002H218.885ZM212.907 316.116C214.484 316.116 215.754 316.289 216.715 316.634C217.686 316.979 218.171 317.535 218.171 318.3C218.171 319.065 217.686 319.621 216.715 319.966C215.744 320.321 214.475 320.498 212.907 320.498C211.339 320.498 210.07 320.321 209.099 319.966C208.128 319.621 207.643 319.065 207.643 318.3C207.643 317.535 208.124 316.979 209.085 316.634C210.056 316.289 211.33 316.116 212.907 316.116ZM212.907 319.406C213.999 319.406 214.904 319.317 215.623 319.14C216.351 318.963 216.715 318.683 216.715 318.3C216.715 317.927 216.351 317.651 215.623 317.474C214.904 317.297 213.999 317.208 212.907 317.208C211.815 317.208 210.905 317.297 210.177 317.474C209.458 317.651 209.099 317.927 209.099 318.3C209.099 318.683 209.458 318.963 210.177 319.14C210.905 319.317 211.815 319.406 212.907 319.406ZM231.904 308.5V320.456H230.588V308.5H231.904ZM227.704 308.57H229.006V320.246H227.704V314.184H224.554V312.896H227.704V308.57ZM223.812 318.51C224.325 318.51 224.824 318.473 225.31 318.398C225.804 318.314 226.234 318.197 226.598 318.048V319.266C226.252 319.425 225.814 319.541 225.282 319.616C224.759 319.7 224.218 319.742 223.658 319.742H220.774V308.906H222.132V318.51H223.812ZM239.984 310.236H237.66V308.948H241.454V320.162H239.984V310.236ZM244.984 308.64H255.218V309.76H246.37V311.65H255.358V312.77H244.984V308.64ZM244.13 313.932H256.072V315.052H244.13V313.932ZM250.094 320.498C248.526 320.498 247.257 320.321 246.286 319.966C245.316 319.621 244.83 319.065 244.83 318.3C244.83 317.535 245.311 316.979 246.272 316.634C247.243 316.289 248.517 316.116 250.094 316.116C251.672 316.116 252.941 316.289 253.902 316.634C254.873 316.979 255.358 317.535 255.358 318.3C255.358 319.065 254.873 319.621 253.902 319.966C252.932 320.321 251.662 320.498 250.094 320.498ZM250.094 319.406C251.186 319.406 252.092 319.317 252.81 319.14C253.538 318.963 253.902 318.683 253.902 318.3C253.902 317.927 253.538 317.651 252.81 317.474C252.092 317.297 251.186 317.208 250.094 317.208C249.002 317.208 248.092 317.297 247.364 317.474C246.646 317.651 246.286 317.927 246.286 318.3C246.286 318.683 246.646 318.963 247.364 319.14C248.092 319.317 249.002 319.406 250.094 319.406ZM274.023 311.188V312.518H272.343V316.69H270.957V308.5H272.343V311.188H274.023ZM268.927 314.982H261.941V308.794H268.927V314.982ZM267.555 309.984H263.313V313.792H267.555V309.984ZM268.507 315.878C268.395 316.345 268.227 316.783 268.003 317.194L272.889 319.252L272.343 320.456L267.275 318.188C266.659 318.851 265.898 319.364 264.993 319.728C264.097 320.101 263.164 320.293 262.193 320.302V319C262.949 318.991 263.672 318.851 264.363 318.58C265.054 318.3 265.642 317.908 266.127 317.404C266.622 316.9 266.948 316.307 267.107 315.626L268.507 315.878ZM286.146 308.5V314.716H284.76V308.5H286.146ZM279.286 312.364C278.856 312.989 278.296 313.498 277.606 313.89C276.924 314.273 276.15 314.506 275.282 314.59V313.358C276.262 313.227 277.05 312.859 277.648 312.252C278.254 311.645 278.604 310.889 278.698 309.984H275.436V308.808H283.178V309.984H280.098C280.07 310.441 279.976 310.88 279.818 311.3L283.57 313.442L282.912 314.478L279.286 312.364ZM284.788 315.234H286.146V320.302H276.01V315.234H277.368V316.564H284.788V315.234ZM284.788 319.168V317.684H277.368V319.168H284.788Z" fill="black"/>
</g>
</g>
<defs>
<filter id="filter0_d_861_1895" x="0" y="0" width="328" height="438" filterUnits="userSpaceOnUse" color-interpolation-filters="sRGB">
<feFlood flood-opacity="0" result="BackgroundImageFix"/>
<feColorMatrix in="SourceAlpha" type="matrix" values="0 0 0 0 0 0 0 0 0 0 0 0 0 0 0 0 0 0 127 0" result="hardAlpha"/>
<feOffset dy="4"/>
<feGaussianBlur stdDeviation="2"/>
<feComposite in2="hardAlpha" operator="out"/>
<feColorMatrix type="matrix" values="0 0 0 0 0 0 0 0 0 0 0 0 0 0 0 0 0 0 0.25 0"/>
<feBlend mode="normal" in2="BackgroundImageFix" result="effect1_dropShadow_861_1895"/>
<feBlend mode="normal" in="SourceGraphic" in2="effect1_dropShadow_861_1895" result="shape"/>
</filter>
<filter id="filter1_f_861_1895" x="52.5" y="70" width="330" height="154" filterUnits="userSpaceOnUse" color-interpolation-filters="sRGB">
<feFlood flood-opacity="0" result="BackgroundImageFix"/>
<feBlend mode="normal" in="SourceGraphic" in2="BackgroundImageFix" result="shape"/>
<feGaussianBlur stdDeviation="20" result="effect1_foregroundBlur_861_1895"/>
</filter>
<filter id="filter2_f_861_1895" x="-72.5" y="330" width="330" height="154" filterUnits="userSpaceOnUse" color-interpolation-filters="sRGB">
<feFlood flood-opacity="0" result="BackgroundImageFix"/>
<feBlend mode="normal" in="SourceGraphic" in2="BackgroundImageFix" result="shape"/>
<feGaussianBlur stdDeviation="20" result="effect1_foregroundBlur_861_1895"/>
</filter>
<filter id="filter3_f_861_1895" x="-48.5" y="157" width="330" height="154" filterUnits="userSpaceOnUse" color-interpolation-filters="sRGB">
<feFlood flood-opacity="0" result="BackgroundImageFix"/>
<feBlend mode="normal" in="SourceGraphic" in2="BackgroundImageFix" result="shape"/>
<feGaussianBlur stdDeviation="20" result="effect1_foregroundBlur_861_1895"/>
</filter>
<filter id="filter4_f_861_1895" x="-36" y="-4" width="281" height="154" filterUnits="userSpaceOnUse" color-interpolation-filters="sRGB">
<feFlood flood-opacity="0" result="BackgroundImageFix"/>
<feBlend mode="normal" in="SourceGraphic" in2="BackgroundImageFix" result="shape"/>
<feGaussianBlur stdDeviation="20" result="effect1_foregroundBlur_861_1895"/>
</filter>
<filter id="filter5_f_861_1895" x="91" y="238" width="281" height="154" filterUnits="userSpaceOnUse" color-interpolation-filters="sRGB">
<feFlood flood-opacity="0" result="BackgroundImageFix"/>
<feBlend mode="normal" in="SourceGraphic" in2="BackgroundImageFix" result="shape"/>
<feGaussianBlur stdDeviation="20" result="effect1_foregroundBlur_861_1895"/>
</filter>
<linearGradient id="paint0_linear_861_1895" x1="164" y1="0" x2="164" y2="430" gradientUnits="userSpaceOnUse">
<stop stop-color="#E1F1FF"/>
<stop offset="1" stop-color="#B7D4FF"/>
</linearGradient>
<clipPath id="clip0_861_1895">
<rect x="4" width="320" height="430" rx="16" fill="white"/>
</clipPath>
</defs>
</svg>
