<svg width="62" height="66" viewBox="0 0 62 66" fill="none" xmlns="http://www.w3.org/2000/svg">
<path d="M7.23252 9.55365L7.47537 9.50338L7.53914 9.26372C8.89698 4.16119 13.554 0.401515 19.0895 0.401515C25.3477 0.401515 30.4822 5.20685 30.9974 11.3242L31.0244 11.6446L31.343 11.6883C34.9779 12.1867 37.7774 15.3019 37.7774 19.0691C37.7774 23.1835 34.4384 26.5195 30.3186 26.5195H19.6509H8.98328C4.2433 26.5195 0.401515 22.6812 0.401515 17.9474C0.401515 13.813 3.33219 10.361 7.23252 9.55365Z" fill="url(#paint0_linear_936_3120)" stroke="white" stroke-width="0.80303"/>
<path d="M20.4458 14.6217L20.6886 14.5715L20.7525 14.3319C22.59 7.43967 28.8922 2.3605 36.3844 2.3605C44.8546 2.3605 51.803 8.85212 52.5002 17.1151L52.5272 17.4356L52.8458 17.4792C57.7909 18.156 61.5986 22.3858 61.5986 27.5C61.5986 33.0855 57.0572 37.6154 51.4525 37.6154H37.1378H22.823C16.3862 37.6154 11.1701 32.4128 11.1701 25.9976C11.1701 20.3946 15.1492 15.716 20.4458 14.6217Z" fill="url(#paint1_linear_936_3120)" stroke="white" stroke-width="0.80303"/>
<path d="M20.8471 53.5896V55.0296H5.49309V53.5896H12.2791V52.0056H6.59109V46.6956H19.7491V48.1356H8.37309V50.5656H19.9291V52.0056H14.0431V53.5896H20.8471ZM13.1611 56.3076C15.1891 56.3076 16.8211 56.5296 18.0571 56.9736C19.3051 57.4176 19.9291 58.1316 19.9291 59.1156C19.9291 60.0996 19.3051 60.8136 18.0571 61.2576C16.8091 61.7136 15.1771 61.9416 13.1611 61.9416C11.1451 61.9416 9.51309 61.7136 8.26509 61.2576C7.01709 60.8136 6.39309 60.0996 6.39309 59.1156C6.39309 58.1316 7.01109 57.4176 8.24709 56.9736C9.49509 56.5296 11.1331 56.3076 13.1611 56.3076ZM13.1611 60.5376C14.5651 60.5376 15.7291 60.4236 16.6531 60.1956C17.5891 59.9676 18.0571 59.6076 18.0571 59.1156C18.0571 58.6356 17.5891 58.2816 16.6531 58.0536C15.7291 57.8256 14.5651 57.7116 13.1611 57.7116C11.7571 57.7116 10.5871 57.8256 9.65109 58.0536C8.72709 58.2816 8.26509 58.6356 8.26509 59.1156C8.26509 59.6076 8.72709 59.9676 9.65109 60.1956C10.5871 60.4236 11.7571 60.5376 13.1611 60.5376ZM57.2465 51.3756H55.0865V54.8676H53.3045V46.5156H55.0865V49.6656H57.2465V51.3756ZM50.4245 48.5676C50.4245 50.5836 49.6445 52.0656 48.0845 53.0136C46.5365 53.9616 44.3645 54.4356 41.5685 54.4356V52.8876C43.8005 52.8756 45.5345 52.5396 46.7705 51.8796C48.0065 51.2196 48.6245 50.2176 48.6245 48.8736V48.4056H41.5685V46.8936H50.4245V48.5676ZM42.2345 55.7136H55.0865V61.6896H42.2345V55.7136ZM44.0165 60.1776H53.3045V57.2256H44.0165V60.1776Z" fill="#ABCEF2"/>
<defs>
<linearGradient id="paint0_linear_936_3120" x1="19.0895" y1="0" x2="19.0895" y2="26.9211" gradientUnits="userSpaceOnUse">
<stop stop-color="#DCEEFF"/>
<stop offset="0.463542" stop-color="#BBDEFF"/>
<stop offset="1" stop-color="#82C1FF"/>
</linearGradient>
<linearGradient id="paint1_linear_936_3120" x1="36.3844" y1="1.95898" x2="36.3844" y2="38.0169" gradientUnits="userSpaceOnUse">
<stop stop-color="#D7EAFF"/>
<stop offset="0.520833" stop-color="#98C3FF"/>
<stop offset="1" stop-color="#A3AAFF"/>
</linearGradient>
</defs>
</svg>
