<svg width="33" height="29" viewBox="0 0 33 29" fill="none" xmlns="http://www.w3.org/2000/svg">
<path d="M15.5239 14.5679L20.3914 10.3156C20.6475 10.0905 20.7912 9.7861 20.7912 9.46876C20.7912 9.15142 20.6475 8.84697 20.3914 8.62191C20.2635 8.50933 20.1115 8.41997 19.9439 8.35898C19.7764 8.298 19.5966 8.2666 19.4151 8.2666C19.2336 8.2666 19.0539 8.298 18.8863 8.35898C18.7188 8.41997 18.5667 8.50933 18.4389 8.62191L12.6089 13.715C12.48 13.8267 12.3777 13.9595 12.3079 14.1059C12.2381 14.2523 12.2021 14.4093 12.2021 14.5679C12.2021 14.7264 12.2381 14.8834 12.3079 15.0298C12.3777 15.1762 12.48 15.309 12.6089 15.4207L18.4389 20.5739C18.5674 20.6852 18.7197 20.7733 18.8873 20.8331C19.0548 20.8928 19.2342 20.9231 19.4151 20.9222C19.5961 20.9231 19.7755 20.8928 19.943 20.8331C20.1105 20.7733 20.2629 20.6852 20.3914 20.5739C20.6475 20.3488 20.7912 20.0444 20.7912 19.727C20.7912 19.4097 20.6475 19.1052 20.3914 18.8802L15.5239 14.5679Z" fill="#2B2B2B"/>
</svg>
